{
.appVersion = "965";
customParameters = (
{
name = glyphOrder;
value = (
.notdef,
CR,
space,
itfLogo,
zerowidthnonjoiner,
dottedcircle,
dvAnusvara,
dvCandrabindu,
dvVisarga,
dvA,
dvAA,
dvmAA,
dvI,
dvII,
dvU,
dvUU,
dvvR,
dvvL,
dvEcandra,
dvE,
dvAI,
dvOcandra,
dvO,
dvAU,
dvKA,
dvKHA,
dvGA,
dvGHA,
dvNGA,
dvCA,
dvCHA,
dvJA,
dvJHA,
dvNYA,
dvTTA,
dvTTHA,
dvDDA,
dvDDHA,
dvNNA,
dvTA,
dvTHA,
dvDA,
dvNA,
dvPA,
dvPHA,
dvBA,
dvBHA,
dvMA,
dvYA,
dvRA,
dvRxA,
dvNukta,
dvLA,
dvLLA,
dvVA,
dvSHA,
dvSSA,
dvSA,
dvHA,
dvAvagraha,
dvmI,
dvmII,
dvmU,
dvmUU,
dvmvR,
dvmEcandra,
dvmE,
dvmAI,
dvmOcandra,
dvmO,
dvmAU,
dvVirama,
dvKxA,
dvKHxA,
dvGxA,
dvJxA,
dvDDxA,
dvDDHxA,
dvPHxA,
dvvRR,
dvvLL,
danda,
doubledanda,
dvOne,
dvTwo,
dvThree,
dvFour,
dvFive,
dvSix,
dvSeven,
dvEight,
dvNine,
dvAbbreviationsign,
dvK_SSA,
dvJ_NYA,
dvReph,
dvRashtrasign,
dvK,
dvKH,
dvG,
dvGH,
dvNG,
dvC,
dvCH,
dvJ,
dvJH,
dvNY,
dvTT,
dvTTH,
dvDD,
dvDDH,
dvNN,
dvT,
dvTH,
dvD,
dvDH,
dvN,
dvP,
dvPH,
dvB,
dvBH,
dvM,
dvY,
dvR,
dvL,
dvLL,
dvV,
dvSH,
dvSS,
dvS,
dvH,
dvJ_NY,
dvK_R,
dvKH_R,
dvG_R,
dvGH_R,
dvC_R,
dvJ_R,
dvJH_R,
dvNY_R,
dvTT_R,
dvTTH_R,
dvDD_R,
dvDDH_R,
dvNN_R,
dvT_R,
dvTH_R,
dvD_R,
dvDH_R,
dvN_R,
dvP_R,
dvPH_R,
dvB_R,
dvBH_R,
dvM_R,
dvY_R,
dvV_R,
dvK_RA,
dvKH_RA,
dvG_RA,
dvGH_RA,
dvNG_RA,
dvC_RA,
dvCH_RA,
dvJ_RA,
dvJH_RA,
dvNY_RA,
dvTT_RA,
dvTTH_RA,
dvDD_RA,
dvDDH_RA,
dvNN_RA,
dvT_RA,
dvTH_RA,
dvD_RA,
dvDH_RA,
dvN_RA,
dvP_RA,
dvPH_RA,
dvB_RA,
dvBH_RA,
dvM_RA,
dvY_RA,
dvV_RA,
dvH_NA,
dvK_NA,
dvKH_NA,
dvG_NA,
dvGH_NA,
dvC_NA,
dvJ_NA,
dvJH_NA,
dvT_NA,
dvTH_NA,
dvD_NA,
dvDH_NA,
dvN_NA,
dvP_NA,
dvPH_NA,
dvB_NA,
dvBH_NA,
dvM_NA,
dvY_NA,
dvV_NA,
dvSH_NA,
dvS_NA,
dvK_KA,
dvK_TA,
dvK_VA,
dvC_CA,
dvJ_JA,
dvNY_CA,
dvNY_JA,
dvTT_TTA,
dvTT_TTHA,
dvTT_VA,
dvTTH_TTHA,
dvDD_DDA,
dvDD_DDHA,
dvDD_VA,
dvDDH_DDHA,
dvT_TA,
dvD_GA,
dvD_G_RA,
dvD_GHA,
dvD_DA,
dvD_DHA,
dvD_BA,
dvD_B_RA,
dvD_BHA,
dvD_MA,
dvD_VA,
dvD_YA,
dvDA_mvR,
dvP_TA,
dvP_TTA,
dvP_TTHA,
dvRA_mU,
dvRA_mUU,
dvSH_CA,
dvSH_VA,
dvSH_RA,
dvSHA_mvR,
dvSS_TTA,
dvSS_TTHA,

glyphs = (
{
glyphname = .notdef;
lastChange = "2017-01-30 15:56:24 +0000";
layers = (
{
layerId = "7872E05C-01F2-413A-9F3F-5746E4900C50";
paths = (
{
closed = 1;
nodes = (
"180 -50 LINE",
"570 -50 LINE",
"570 651 LINE",
"180 651 LINE"
);
},
{
closed = 1;
nodes = (
"234 601 LINE",
"516 601 LINE",
"516 0 LINE",
"234 0 LINE"
);
}
);
width = 750;
},
{
layerId = "20CB0FE4-6866-45E2-B7C3-9D16484A9962";
paths = (
{
closed = 1;
nodes = (
"160 -40 LINE",
"596 -40 LINE",
"596 661 LINE",
"160 661 LINE"
);
},
{
closed = 1;
nodes = (
"241 585 LINE",
"516 585 LINE",
"516 36 LINE",
"241 36 LINE"
);
}
);
width = 756;
}
);
},
{
glyphname = itfLogo;
lastChange = "2017-01-30 15:56:24 +0000";
layers = (
{
layerId = "7872E05C-01F2-413A-9F3F-5746E4900C50";
paths = (
{
closed = 1;
nodes = (
"147 -50 LINE",
"343 -50 LINE",
"343 584 LINE",
"147 584 LINE"
);
},
{
closed = 1;
nodes = (
"383 399 LINE",
"579 399 LINE",
"579 584 LINE",
"383 584 LINE"
);
},
{
closed = 1;
nodes = (
"619 -50 LINE",
"815 -50 LINE",
"815 584 LINE",
"619 584 LINE"
);
},
{
closed = 1;
nodes = (
"855 399 LINE",
"1051 399 LINE",
"1051 584 LINE",
"855 584 LINE"
);
},
{
closed = 1;
nodes = (
"1091 -50 LINE",
"1287 -50 LINE",
"1287 584 LINE",
"1091 584 LINE"
);
},
{
closed = 1;
nodes = (
"1327 399 LINE",
"1523 399 LINE",
"1523 584 LINE",
"1327 584 LINE"
);
},
{
closed = 1;
nodes = (
"1327 174 LINE",
"1523 174 LINE",
"1523 359 LINE",
"1327 359 LINE"
);
}
);
width = 1648;
},
{
layerId = "20CB0FE4-6866-45E2-B7C3-9D16484A9962";
paths = (
{
closed = 1;
nodes = (
"147 -40 LINE",
"343 -40 LINE",
"343 594 LINE",
"147 594 LINE"
);
},
{
closed = 1;
nodes = (
"383 409 LINE",
"579 409 LINE",
"579 594 LINE",
"383 594 LINE"
);
},
{
closed = 1;
nodes = (
"619 -40 LINE",
"815 -40 LINE",
"815 594 LINE",
"619 594 LINE"
);
},
{
closed = 1;
nodes = (
"855 409 LINE",
"1051 409 LINE",
"1051 594 LINE",
"855 594 LINE"
);
},
{
closed = 1;
nodes = (
"1091 -40 LINE",
"1287 -40 LINE",
"1287 594 LINE",
"1091 594 LINE"
);
},
{
closed = 1;
nodes = (
"1327 409 LINE",
"1523 409 LINE",
"1523 594 LINE",
"1327 594 LINE"
);
},
{
closed = 1;
nodes = (
"1327 184 LINE",
"1523 184 LINE",
"1523 369 LINE",
"1327 369 LINE"
);
}
);
width = 1648;
}
);
},
{
glyphname = zerowidthnonjoiner;
lastChange = "2017-01-30 15:56:24 +0000";
layers = (
{
layerId = "7872E05C-01F2-413A-9F3F-5746E4900C50";
paths = (
{
closed = 1;
nodes = (
"24 -280 LINE",
"24 761 LINE",
"-23 761 LINE",
"-23 -280 LINE"
);
}
);
width = 0;
},
{
layerId = "20CB0FE4-6866-45E2-B7C3-9D16484A9962";
paths = (
{
closed = 1;
nodes = (
"24 -270 LINE",
"24 771 LINE",
"-23 771 LINE",
"-23 -270 LINE"
);
}
);
width = 0;
}
);
unicode = 200C;
},
{
glyphname = dottedcircle;
lastChange = "2017-01-30 15:56:24 +0000";
layers = (
{
layerId = "7872E05C-01F2-413A-9F3F-5746E4900C50";
paths = (
{
closed = 1;
nodes = (
"139 467 CURVE SMOOTH",
"139 441 OFFCURVE",
"157 422 OFFCURVE",
"183 422 CURVE SMOOTH",
"209 422 OFFCURVE",
"227 441 OFFCURVE",
"227 467 CURVE SMOOTH",
"227 492 OFFCURVE",
"209 511 OFFCURVE",
"183 511 CURVE SMOOTH",
"157 511 OFFCURVE",
"139 492 OFFCURVE"
);
},
{
closed = 1;
nodes = (
"57 357 CURVE SMOOTH",
"57 332 OFFCURVE",
"77 313 OFFCURVE",
"103 313 CURVE SMOOTH",
"127 313 OFFCURVE",
"147 332 OFFCURVE",
"147 357 CURVE SMOOTH",
"147 382 OFFCURVE",
"127 401 OFFCURVE",
"103 401 CURVE SMOOTH",
"77 401 OFFCURVE",
"57 382 OFFCURVE"
);
},
{
closed = 1;
nodes = (
"44 231 CURVE SMOOTH",
"44 206 OFFCURVE",
"63 188 OFFCURVE",
"88 188 CURVE SMOOTH",
"114 188 OFFCURVE",
"132 206 OFFCURVE",
"132 231 CURVE SMOOTH",
"132 257 OFFCURVE",
"114 276 OFFCURVE",
"88 276 CURVE SMOOTH",
"63 276 OFFCURVE",
"44 257 OFFCURVE"
);
},
{
closed = 1;
nodes = (
"96 115 CURVE SMOOTH",
"96 89 OFFCURVE",
"114 71 OFFCURVE",
"140 71 CURVE SMOOTH",
"165 71 OFFCURVE",
"184 89 OFFCURVE",
"184 115 CURVE SMOOTH",
"184 140 OFFCURVE",
"165 159 OFFCURVE",
"140 159 CURVE SMOOTH",
"114 159 OFFCURVE",
"96 140 OFFCURVE"
);
},
{
closed = 1;
nodes = (
"197 40 CURVE SMOOTH",
"197 14 OFFCURVE",
"216 -6 OFFCURVE",
"242 -6 CURVE SMOOTH",
"267 -6 OFFCURVE",
"286 14 OFFCURVE",
"286 40 CURVE SMOOTH",
"286 64 OFFCURVE",
"267 84 OFFCURVE",
"242 84 CURVE SMOOTH",
"216 84 OFFCURVE",
"197 64 OFFCURVE"
);
},
{
closed = 1;
nodes = (
"324 24 CURVE SMOOTH",
"324 -2 OFFCURVE",
"342 -20 OFFCURVE",
"368 -20 CURVE SMOOTH",
"394 -20 OFFCURVE",
"413 -2 OFFCURVE",
"413 24 CURVE SMOOTH",
"413 50 OFFCURVE",
"394 68 OFFCURVE",
"368 68 CURVE SMOOTH",
"342 68 OFFCURVE",
"324 50 OFFCURVE"
);
},
{
closed = 1;
nodes = (
"445 77 CURVE SMOOTH",
"445 51 OFFCURVE",
"464 33 OFFCURVE",
"489 33 CURVE SMOOTH",
"514 33 OFFCURVE",
"534 51 OFFCURVE",
"534 77 CURVE SMOOTH",
"534 102 OFFCURVE",
"514 121 OFFCURVE",
"489 121 CURVE SMOOTH",
"464 121 OFFCURVE",
"445 102 OFFCURVE"
);
},
{
closed = 1;
nodes = (
"518 175 CURVE SMOOTH",
"518 150 OFFCURVE",
"537 131 OFFCURVE",
"563 131 CURVE SMOOTH",
"587 131 OFFCURVE",
"606 150 OFFCURVE",
"606 175 CURVE SMOOTH",
"606 201 OFFCURVE",
"587 220 OFFCURVE",
"563 220 CURVE SMOOTH",
"537 220 OFFCURVE",
"518 201 OFFCURVE"
);
},
{
closed = 1;
nodes = (
"528 309 CURVE SMOOTH",
"528 283 OFFCURVE",
"546 265 OFFCURVE",
"572 265 CURVE SMOOTH",
"597 265 OFFCURVE",
"616 283 OFFCURVE",
"616 309 CURVE SMOOTH",
"616 335 OFFCURVE",
"597 353 OFFCURVE",
"572 353 CURVE SMOOTH",
"546 353 OFFCURVE",
"528 335 OFFCURVE"
);
},
{
closed = 1;
nodes = (
"478 427 CURVE SMOOTH",
"478 402 OFFCURVE",
"497 383 OFFCURVE",
"522 383 CURVE SMOOTH",
"548 383 OFFCURVE",
"566 402 OFFCURVE",
"566 427 CURVE SMOOTH",
"566 453 OFFCURVE",
"548 472 OFFCURVE",
"522 472 CURVE SMOOTH",
"497 472 OFFCURVE",
"478 453 OFFCURVE"
);
},
{
closed = 1;
nodes = (
"383 495 CURVE SMOOTH",
"383 471 OFFCURVE",
"402 451 OFFCURVE",
"428 451 CURVE SMOOTH",
"453 451 OFFCURVE",
"471 471 OFFCURVE",
"471 495 CURVE SMOOTH",
"471 521 OFFCURVE",
"453 540 OFFCURVE",
"428 540 CURVE SMOOTH",
"402 540 OFFCURVE",
"383 521 OFFCURVE"
);
},
{
closed = 1;
nodes = (
"257 510 CURVE SMOOTH",
"257 484 OFFCURVE",
"275 466 OFFCURVE",
"301 466 CURVE SMOOTH",
"327 466 OFFCURVE",
"345 484 OFFCURVE",
"345 510 CURVE SMOOTH",
"345 536 OFFCURVE",
"327 554 OFFCURVE",
"301 554 CURVE SMOOTH",
"275 554 OFFCURVE",
"257 536 OFFCURVE"
);
}
);
width = 660;
},
{
layerId = "20CB0FE4-6866-45E2-B7C3-9D16484A9962";
paths = (
{
closed = 1;
nodes = (
"139 477 CURVE SMOOTH",
"139 451 OFFCURVE",
"157 432 OFFCURVE",
"183 432 CURVE SMOOTH",
"209 432 OFFCURVE",
"227 451 OFFCURVE",
"227 477 CURVE SMOOTH",
"227 502 OFFCURVE",
"209 521 OFFCURVE",
"183 521 CURVE SMOOTH",
"157 521 OFFCURVE",
"139 502 OFFCURVE"
);
},
{
closed = 1;
nodes = (
"57 367 CURVE SMOOTH",
"57 342 OFFCURVE",
"77 323 OFFCURVE",
"103 323 CURVE SMOOTH",
"127 323 OFFCURVE",
"147 342 OFFCURVE",
"147 367 CURVE SMOOTH",
"147 392 OFFCURVE",
"127 411 OFFCURVE",
"103 411 CURVE SMOOTH",
"77 411 OFFCURVE",
"57 392 OFFCURVE"
);
},
{
closed = 1;
nodes = (
"44 241 CURVE SMOOTH",
"44 216 OFFCURVE",
"63 198 OFFCURVE",
"88 198 CURVE SMOOTH",
"114 198 OFFCURVE",
"132 216 OFFCURVE",
"132 241 CURVE SMOOTH",
"132 267 OFFCURVE",
"114 286 OFFCURVE",
"88 286 CURVE SMOOTH",
"63 286 OFFCURVE",
"44 267 OFFCURVE"
);
},
{
closed = 1;
nodes = (
"96 125 CURVE SMOOTH",
"96 99 OFFCURVE",
"114 81 OFFCURVE",
"140 81 CURVE SMOOTH",
"165 81 OFFCURVE",
"184 99 OFFCURVE",
"184 125 CURVE SMOOTH",
"184 150 OFFCURVE",
"165 169 OFFCURVE",
"140 169 CURVE SMOOTH",
"114 169 OFFCURVE",
"96 150 OFFCURVE"
);
},
{
closed = 1;
nodes = (
"197 50 CURVE SMOOTH",
"197 24 OFFCURVE",
"216 4 OFFCURVE",
"242 4 CURVE SMOOTH",
"267 4 OFFCURVE",
"286 24 OFFCURVE",
"286 50 CURVE SMOOTH",
"286 74 OFFCURVE",
"267 94 OFFCURVE",
"242 94 CURVE SMOOTH",
"216 94 OFFCURVE",
"197 74 OFFCURVE"
);
},
{
closed = 1;
nodes = (
"324 34 CURVE SMOOTH",
"324 8 OFFCURVE",
"342 -10 OFFCURVE",
"368 -10 CURVE SMOOTH",
"394 -10 OFFCURVE",
"413 8 OFFCURVE",
"413 34 CURVE SMOOTH",
"413 60 OFFCURVE",
"394 78 OFFCURVE",
"368 78 CURVE SMOOTH",
"342 78 OFFCURVE",
"324 60 OFFCURVE"
);
},
{
closed = 1;
nodes = (
"445 87 CURVE SMOOTH",
"445 61 OFFCURVE",
"464 43 OFFCURVE",
"489 43 CURVE SMOOTH",
"514 43 OFFCURVE",
"534 61 OFFCURVE",
"534 87 CURVE SMOOTH",
"534 112 OFFCURVE",
"514 131 OFFCURVE",
"489 131 CURVE SMOOTH",
"464 131 OFFCURVE",
"445 112 OFFCURVE"
);
},
{
closed = 1;
nodes = (
"518 185 CURVE SMOOTH",
"518 160 OFFCURVE",
"537 141 OFFCURVE",
"563 141 CURVE SMOOTH",
"587 141 OFFCURVE",
"606 160 OFFCURVE",
"606 185 CURVE SMOOTH",
"606 211 OFFCURVE",
"587 230 OFFCURVE",
"563 230 CURVE SMOOTH",
"537 230 OFFCURVE",
"518 211 OFFCURVE"
);
},
{
closed = 1;
nodes = (
"528 319 CURVE SMOOTH",
"528 293 OFFCURVE",
"546 275 OFFCURVE",
"572 275 CURVE SMOOTH",
"597 275 OFFCURVE",
"616 293 OFFCURVE",
"616 319 CURVE SMOOTH",
"616 345 OFFCURVE",
"597 363 OFFCURVE",
"572 363 CURVE SMOOTH",
"546 363 OFFCURVE",
"528 345 OFFCURVE"
);
},
{
closed = 1;
nodes = (
"478 437 CURVE SMOOTH",
"478 412 OFFCURVE",
"497 393 OFFCURVE",
"522 393 CURVE SMOOTH",
"548 393 OFFCURVE",
"566 412 OFFCURVE",
"566 437 CURVE SMOOTH",
"566 463 OFFCURVE",
"548 482 OFFCURVE",
"522 482 CURVE SMOOTH",
"497 482 OFFCURVE",
"478 463 OFFCURVE"
);
},
{
closed = 1;
nodes = (
"383 505 CURVE SMOOTH",
"383 481 OFFCURVE",
"402 461 OFFCURVE",
"428 461 CURVE SMOOTH",
"453 461 OFFCURVE",
"471 481 OFFCURVE",
"471 505 CURVE SMOOTH",
"471 531 OFFCURVE",
"453 550 OFFCURVE",
"428 550 CURVE SMOOTH",
"402 550 OFFCURVE",
"383 531 OFFCURVE"
);
},
{
closed = 1;
nodes = (
"257 520 CURVE SMOOTH",
"257 494 OFFCURVE",
"275 476 OFFCURVE",
"301 476 CURVE SMOOTH",
"327 476 OFFCURVE",
"345 494 OFFCURVE",
"345 520 CURVE SMOOTH",
"345 546 OFFCURVE",
"327 564 OFFCURVE",
"301 564 CURVE SMOOTH",
"275 564 OFFCURVE",
"257 546 OFFCURVE"
);
}
);
width = 660;
}
);
unicode = 25CC;
},
{
glyphname = dvAnusvara;
lastChange = "2017-01-30 15:56:24 +0000";
layers = (
{
anchors = (
{
name = _abvm;
position = "{-100, 625}";
}
);
layerId = "7872E05C-01F2-413A-9F3F-5746E4900C50";
paths = (
{
closed = 1;
nodes = (
"-174 812 LINE",
"-128 765 LINE",
"-80 812 LINE",
"-128 858 LINE"
);
}
);
width = 0;
},
{
anchors = (
{
name = _abvm;
position = "{-70, 635}";
}
);
layerId = "20CB0FE4-6866-45E2-B7C3-9D16484A9962";
paths = (
{
closed = 1;
nodes = (
"-226 781 LINE",
"-132 690 LINE",
"-41 781 LINE",
"-135 874 LINE"
);
}
);
width = 0;
}
);
unicode = 0902;
},
{
glyphname = dvCandrabindu;
lastChange = "2017-01-30 15:56:24 +0000";
layers = (
{
anchors = (
{
name = _abvm;
position = "{-100, 625}";
}
);
layerId = "7872E05C-01F2-413A-9F3F-5746E4900C50";
paths = (
{
closed = 1;
nodes = (
"-188 892 LINE",
"-142 845 LINE",
"-94 892 LINE",
"-142 938 LINE"
);
},
{
closed = 1;
nodes = (
"-318 845 LINE",
"-280 792 OFFCURVE",
"-217 713 OFFCURVE",
"-126 713 CURVE SMOOTH",
"-51 713 OFFCURVE",
"0 774 OFFCURVE",
"34 837 CURVE",
"-2 867 LINE",
"-34 808 OFFCURVE",
"-77 750 OFFCURVE",
"-148 750 CURVE SMOOTH",
"-205 750 OFFCURVE",
"-261 814 OFFCURVE",
"-293 863 CURVE"
);
}
);
width = 0;
},
{
anchors = (
{
name = _abvm;
position = "{-70, 635}";
}
);
layerId = "20CB0FE4-6866-45E2-B7C3-9D16484A9962";
paths = (
{
closed = 1;
nodes = (
"-258 956 LINE",
"-164 865 LINE",
"-73 956 LINE",
"-167 1049 LINE"
);
},
{
closed = 1;
nodes = (
"-378 860 LINE",
"-306 748 OFFCURVE",
"-224 685 OFFCURVE",
"-127 685 CURVE SMOOTH",
"-23 685 OFFCURVE",
"32 765 OFFCURVE",
"71 836 CURVE",
"-28 911 LINE",
"-60 850 OFFCURVE",
"-107 791 OFFCURVE",
"-173 791 CURVE SMOOTH",
"-243 791 OFFCURVE",
"-283 845 OFFCURVE",
"-322 901 CURVE"
);
}
);
width = 0;
}
);
unicode = 0901;
},
{
glyphname = dvVisarga;
lastChange = "2017-01-30 15:56:24 +0000";
layers = (
{
layerId = "7872E05C-01F2-413A-9F3F-5746E4900C50";
paths = (
{
closed = 1;
nodes = (
"145 343 LINE",
"185 303 LINE",
"226 343 LINE",
"185 383 LINE"
);
},
{
closed = 1;
nodes = (
"145 76 LINE",
"185 36 LINE",
"226 76 LINE",
"185 116 LINE"
);
}
);
width = 312;
},
{
layerId = "20CB0FE4-6866-45E2-B7C3-9D16484A9962";
paths = (
{
closed = 1;
nodes = (
"83 381 LINE",
"177 290 LINE",
"268 381 LINE",
"174 474 LINE"
);
},
{
closed = 1;
nodes = (
"83 114 LINE",
"177 23 LINE",
"268 114 LINE",
"174 207 LINE"
);
}
);
width = 312;
}
);
unicode = 0903;
},
{
glyphname = dvA;
lastChange = "2017-01-30 15:56:24 +0000";
layers = (
{
layerId = "7872E05C-01F2-413A-9F3F-5746E4900C50";
paths = (
{
closed = 1;
nodes = (
"314 41 CURVE SMOOTH",
"420 41 OFFCURVE",
"471 112 OFFCURVE",
"471 188 CURVE SMOOTH",
"471 242 OFFCURVE",
"455 275 OFFCURVE",
"434 305 CURVE",
"468 291 OFFCURVE",
"507 275 OFFCURVE",
"543 275 CURVE SMOOTH",
"574 275 OFFCURVE",
"602 283 OFFCURVE",
"626 301 CURVE",
"621 -13 LINE",
"677 -50 LINE",
"677 577 LINE",
"826 577 LINE",
"794 625 LINE",
"506 625 LINE",
"517 609 OFFCURVE",
"526 597 OFFCURVE",
"538 577 CURVE",
"621 577 LINE",
"621 368 LINE",
"604 338 OFFCURVE",
"558 320 OFFCURVE",
"521 320 CURVE SMOOTH",
"491 320 OFFCURVE",
"424 335 OFFCURVE",
"385 368 CURVE",
"423 398 OFFCURVE",
"446 428 OFFCURVE",
"446 467 CURVE SMOOTH",
"446 544 OFFCURVE",
"383 635 OFFCURVE",
"294 635 CURVE SMOOTH",
"239 635 OFFCURVE",
"180 609 OFFCURVE",
"136 562 CURVE",
"172 525 LINE",
"225 577 OFFCURVE",
"274 588 OFFCURVE",
"307 588 CURVE SMOOTH",
"354 588 OFFCURVE",
"404 552 OFFCURVE",
"404 495 CURVE SMOOTH",
"404 416 OFFCURVE",
"305 367 OFFCURVE",
"236 342 CURVE",
"263 298 LINE",
"292 309 OFFCURVE",
"326 325 OFFCURVE",
"357 346 CURVE",
"406 307 OFFCURVE",
"428 262 OFFCURVE",
"428 206 CURVE SMOOTH",
"428 139 OFFCURVE",
"379 87 OFFCURVE",
"294 87 CURVE SMOOTH",
"190 87 OFFCURVE",
"119 225 OFFCURVE",
"81 313 CURVE",
"52 298 LINE",
"88 208 OFFCURVE",
"171 41 OFFCURVE"
);
}
);
width = 777;
},
{
layerId = "20CB0FE4-6866-45E2-B7C3-9D16484A9962";
paths = (
{
closed = 1;
nodes = (
"296 23 CURVE SMOOTH",
"404 23 OFFCURVE",
"470 103 OFFCURVE",
"470 197 CURVE SMOOTH",
"470 212 OFFCURVE",
"468 227 OFFCURVE",
"464 240 CURVE",
"484 229 OFFCURVE",
"505 223 OFFCURVE",
"526 223 CURVE SMOOTH",
"541 223 OFFCURVE",
"557 226 OFFCURVE",
"572 234 CURVE",
"565 32 LINE",
"695 -40 LINE",
"695 531 LINE",
"852 531 LINE",
"780 635 LINE",
"410 635 LINE",
"482 531 LINE",
"565 531 LINE",
"565 393 LINE",
"552 371 OFFCURVE",
"499 343 OFFCURVE",
"452 343 CURVE SMOOTH",
"437 343 OFFCURVE",
"425 346 OFFCURVE",
"415 351 CURVE",
"431 375 OFFCURVE",
"441 402 OFFCURVE",
"441 433 CURVE SMOOTH",
"441 521 OFFCURVE",
"343 642 OFFCURVE",
"257 642 CURVE SMOOTH",
"196 642 OFFCURVE",
"142 598 OFFCURVE",
"104 549 CURVE",
"201 454 LINE",
"235 494 OFFCURVE",
"273 519 OFFCURVE",
"304 519 CURVE SMOOTH",
"326 519 OFFCURVE",
"339 502 OFFCURVE",
"339 484 CURVE SMOOTH",
"339 439 OFFCURVE",
"284 403 OFFCURVE",
"179 368 CURVE",
"253 244 LINE",
"288 257 OFFCURVE",
"321 272 OFFCURVE",
"349 290 CURVE",
"357 278 OFFCURVE",
"362 263 OFFCURVE",
"362 247 CURVE SMOOTH",
"362 194 OFFCURVE",
"323 146 OFFCURVE",
"254 146 CURVE SMOOTH",
"174 146 OFFCURVE",
"123 251 OFFCURVE",
"75 356 CURVE",
"11 319 LINE",
"54 208 OFFCURVE",
"144 23 OFFCURVE"
);
}
);
width = 765;
}
);
unicode = 0905;
},
{
glyphname = dvmAA;
lastChange = "2017-01-30 15:56:24 +0000";
layers = (
{
layerId = "7872E05C-01F2-413A-9F3F-5746E4900C50";
paths = (
{
closed = 1;
nodes = (
"156 577 LINE",
"308 577 LINE",
"276 625 LINE",
"-52 625 LINE",
"-20 577 LINE",
"100 577 LINE",
"100 -6 LINE",
"156 -50 LINE"
);
}
);
width = 256;
},
{
layerId = "20CB0FE4-6866-45E2-B7C3-9D16484A9962";
paths = (
{
closed = 1;
nodes = (
"200 531 LINE",
"343 531 LINE",
"290 635 LINE",
"-77 635 LINE",
"-24 531 LINE",
"70 531 LINE",
"70 37 LINE",
"200 -40 LINE"
);
}
);
width = 270;
}
);
unicode = 093E;
},
{
glyphname = dvI;
lastChange = "2017-01-30 15:56:24 +0000";
layers = (
{
layerId = "7872E05C-01F2-413A-9F3F-5746E4900C50";
paths = (
{
closed = 1;
nodes = (
"471 132 CURVE SMOOTH",
"471 186 OFFCURVE",
"412 266 OFFCURVE",
"341 266 CURVE SMOOTH",
"301 266 OFFCURVE",
"240 228 OFFCURVE",
"193 228 CURVE SMOOTH",
"148 228 OFFCURVE",
"116 265 OFFCURVE",
"116 317 CURVE SMOOTH",
"116 379 OFFCURVE",
"171 403 OFFCURVE",
"219 403 CURVE SMOOTH",
"420 403 LINE",
"420 577 LINE",
"588 577 LINE",
"557 625 LINE",
"-40 625 LINE",
"-7 577 LINE",
"364 577 LINE",
"364 455 LINE",
"204 455 LINE SMOOTH",
"132 455 OFFCURVE",
"75 408 OFFCURVE",
"75 344 CURVE SMOOTH",
"75 256 OFFCURVE",
"153 181 OFFCURVE",
"211 181 CURVE SMOOTH",
"268 181 OFFCURVE",
"319 218 OFFCURVE",
"360 218 CURVE SMOOTH",
"398 218 OFFCURVE",
"429 190 OFFCURVE",
"429 150 CURVE SMOOTH",
"429 60 OFFCURVE",
"285 12 OFFCURVE",
"219 21 CURVE",
"179 74 OFFCURVE",
"140 125 OFFCURVE",
"117 125 CURVE SMOOTH",
"94 125 OFFCURVE",
"73 113 OFFCURVE",
"73 96 CURVE SMOOTH",
"73 52 OFFCURVE",
"139 2 OFFCURVE",
"205 -17 CURVE",
"363 -202 LINE",
"400 -176 LINE",
"251 -24 LINE",
"334 -24 OFFCURVE",
"471 31 OFFCURVE"
);
}
);
width = 544;
},
{
layerId = "20CB0FE4-6866-45E2-B7C3-9D16484A9962";
paths = (
{
closed = 1;
nodes = (
"508 108 CURVE SMOOTH",
"508 190 OFFCURVE",
"421 288 OFFCURVE",
"343 288 CURVE SMOOTH",
"290 288 OFFCURVE",
"246 254 OFFCURVE",
"192 254 CURVE SMOOTH",
"171 254 OFFCURVE",
"163 268 OFFCURVE",
"163 284 CURVE SMOOTH",
"163 315 OFFCURVE",
"184 343 OFFCURVE",
"225 343 CURVE SMOOTH",
"461 343 LINE",
"461 531 LINE",
"624 531 LINE",
"553 635 LINE",
"-67 635 LINE",
"5 531 LINE",
"335 531 LINE",
"335 463 LINE",
"192 463 LINE SMOOTH",
"124 463 OFFCURVE",
"64 427 OFFCURVE",
"64 352 CURVE SMOOTH",
"64 265 OFFCURVE",
"176 140 OFFCURVE",
"249 140 CURVE SMOOTH",
"315 140 OFFCURVE",
"369 179 OFFCURVE",
"402 179 CURVE SMOOTH",
"412 179 OFFCURVE",
"417 166 OFFCURVE",
"417 156 CURVE SMOOTH",
"417 102 OFFCURVE",
"324 62 OFFCURVE",
"244 59 CURVE",
"208 106 OFFCURVE",
"170 142 OFFCURVE",
"140 142 CURVE SMOOTH",
"104 142 OFFCURVE",
"68 112 OFFCURVE",
"68 77 CURVE SMOOTH",
"68 22 OFFCURVE",
"164 -43 OFFCURVE",
"237 -58 CURVE",
"360 -230 LINE",
"443 -176 LINE",
"332 -53 LINE",
"431 -32 OFFCURVE",
"508 36 OFFCURVE"
);
}
);
width = 546;
}
);
unicode = 0907;
},
{
glyphname = dvII;
lastChange = "2017-01-30 15:56:24 +0000";
layers = (
{
layerId = "7872E05C-01F2-413A-9F3F-5746E4900C50";
paths = (
{
closed = 1;
nodes = (
"511 853 LINE",
"485 866 OFFCURVE",
"460 872 OFFCURVE",
"429 872 CURVE SMOOTH",
"364 872 OFFCURVE",
"309 832 OFFCURVE",
"309 751 CURVE SMOOTH",
"309 710 OFFCURVE",
"326 661 OFFCURVE",
"361 625 CURVE",
"-40 625 LINE",
"-7 577 LINE",
"364 577 LINE",
"364 455 LINE",
"204 455 LINE SMOOTH",
"132 455 OFFCURVE",
"75 408 OFFCURVE",
"75 344 CURVE SMOOTH",
"75 256 OFFCURVE",
"153 181 OFFCURVE",
"211 181 CURVE SMOOTH",
"268 181 OFFCURVE",
"319 218 OFFCURVE",
"360 218 CURVE SMOOTH",
"398 218 OFFCURVE",
"429 190 OFFCURVE",
"429 150 CURVE SMOOTH",
"429 60 OFFCURVE",
"285 12 OFFCURVE",
"219 21 CURVE",
"179 74 OFFCURVE",
"140 125 OFFCURVE",
"117 125 CURVE SMOOTH",
"94 125 OFFCURVE",
"73 113 OFFCURVE",
"73 96 CURVE SMOOTH",
"73 52 OFFCURVE",
"139 2 OFFCURVE",
"205 -17 CURVE",
"363 -202 LINE",
"400 -176 LINE",
"251 -24 LINE",
"334 -24 OFFCURVE",
"471 31 OFFCURVE",
"471 132 CURVE SMOOTH",
"471 186 OFFCURVE",
"412 266 OFFCURVE",
"341 266 CURVE SMOOTH",
"301 266 OFFCURVE",
"240 228 OFFCURVE",
"193 228 CURVE SMOOTH",
"148 228 OFFCURVE",
"116 265 OFFCURVE",
"116 317 CURVE SMOOTH",
"116 379 OFFCURVE",
"171 403 OFFCURVE",
"219 403 CURVE SMOOTH",
"420 403 LINE",
"420 577 LINE",
"588 577 LINE",
"557 625 LINE",
"405 625 LINE",
"373 652 OFFCURVE",
"355 691 OFFCURVE",
"355 730 CURVE SMOOTH",
"355 803 OFFCURVE",
"399 832 OFFCURVE",
"453 832 CURVE SMOOTH",
"468 832 OFFCURVE",
"480 830 OFFCURVE",
"494 826 CURVE"
);
}
);
width = 544;
},
{
layerId = "20CB0FE4-6866-45E2-B7C3-9D16484A9962";
paths = (
{
closed = 1;
nodes = (
"555 885 LINE",
"522 911 OFFCURVE",
"483 931 OFFCURVE",
"426 931 CURVE SMOOTH",
"350 931 OFFCURVE",
"283 881 OFFCURVE",
"283 798 CURVE SMOOTH",
"283 737 OFFCURVE",
"316 676 OFFCURVE",
"352 635 CURVE",
"-83 635 LINE",
"-11 531 LINE",
"319 531 LINE",
"319 463 LINE",
"176 463 LINE SMOOTH",
"108 463 OFFCURVE",
"48 427 OFFCURVE",
"48 352 CURVE SMOOTH",
"48 265 OFFCURVE",
"160 140 OFFCURVE",
"233 140 CURVE SMOOTH",
"299 140 OFFCURVE",
"353 179 OFFCURVE",
"386 179 CURVE SMOOTH",
"396 179 OFFCURVE",
"401 166 OFFCURVE",
"401 156 CURVE SMOOTH",
"401 102 OFFCURVE",
"308 62 OFFCURVE",
"228 59 CURVE",
"192 106 OFFCURVE",
"154 142 OFFCURVE",
"124 142 CURVE SMOOTH",
"88 142 OFFCURVE",
"52 112 OFFCURVE",
"52 77 CURVE SMOOTH",
"52 22 OFFCURVE",
"148 -43 OFFCURVE",
"221 -58 CURVE",
"344 -230 LINE",
"427 -176 LINE",
"316 -53 LINE",
"415 -32 OFFCURVE",
"492 36 OFFCURVE",
"492 108 CURVE SMOOTH",
"492 190 OFFCURVE",
"405 288 OFFCURVE",
"327 288 CURVE SMOOTH",
"274 288 OFFCURVE",
"230 254 OFFCURVE",
"176 254 CURVE SMOOTH",
"155 254 OFFCURVE",
"147 268 OFFCURVE",
"147 284 CURVE SMOOTH",
"147 315 OFFCURVE",
"168 343 OFFCURVE",
"209 343 CURVE SMOOTH",
"445 343 LINE",
"445 531 LINE",
"608 531 LINE",
"537 635 LINE",
"437 635 LINE",
"408 664 OFFCURVE",
"384 699 OFFCURVE",
"384 744 CURVE SMOOTH",
"384 804 OFFCURVE",
"432 839 OFFCURVE",
"485 839 CURVE SMOOTH",
"499 839 OFFCURVE",
"513 837 OFFCURVE",
"528 832 CURVE"
);
}
);
width = 544;
}
);
unicode = 0908;
},
{
glyphname = dvU;
lastChange = "2017-01-30 15:56:24 +0000";
layers = (
{
layerId = "7872E05C-01F2-413A-9F3F-5746E4900C50";
paths = (
{
closed = 1;
nodes = (
"47 298 LINE",
"91 189 OFFCURVE",
"174 41 OFFCURVE",
"316 41 CURVE SMOOTH",
"415 41 OFFCURVE",
"467 113 OFFCURVE",
"467 188 CURVE SMOOTH",
"467 280 OFFCURVE",
"413 346 OFFCURVE",
"388 369 CURVE",
"422 395 OFFCURVE",
"443 429 OFFCURVE",
"443 470 CURVE SMOOTH",
"443 499 OFFCURVE",
"432 541 OFFCURVE",
"399 577 CURVE",
"595 577 LINE",
"562 625 LINE",
"-66 625 LINE",
"-33 577 LINE",
"349 577 LINE",
"379 560 OFFCURVE",
"400 524 OFFCURVE",
"400 489 CURVE SMOOTH",
"400 406 OFFCURVE",
"298 369 OFFCURVE",
"202 352 CURVE",
"230 307 LINE",
"278 315 OFFCURVE",
"323 329 OFFCURVE",
"359 350 CURVE",
"406 311 OFFCURVE",
"424 261 OFFCURVE",
"424 206 CURVE SMOOTH",
"424 141 OFFCURVE",
"375 87 OFFCURVE",
"300 87 CURVE SMOOTH",
"184 87 OFFCURVE",
"118 214 OFFCURVE",
"77 313 CURVE"
);
}
);
width = 544;
},
{
layerId = "20CB0FE4-6866-45E2-B7C3-9D16484A9962";
paths = (
{
closed = 1;
nodes = (
"14 305 LINE",
"57 196 OFFCURVE",
"165 -1 OFFCURVE",
"309 -1 CURVE SMOOTH",
"423 -1 OFFCURVE",
"489 80 OFFCURVE",
"489 175 CURVE SMOOTH",
"489 237 OFFCURVE",
"458 291 OFFCURVE",
"419 328 CURVE",
"440 355 OFFCURVE",
"450 386 OFFCURVE",
"450 420 CURVE SMOOTH",
"450 464 OFFCURVE",
"432 502 OFFCURVE",
"408 531 CURVE",
"616 531 LINE",
"545 635 LINE",
"-75 635 LINE",
"-3 531 LINE",
"303 531 LINE",
"327 521 OFFCURVE",
"343 492 OFFCURVE",
"343 470 CURVE SMOOTH",
"343 430 OFFCURVE",
"312 388 OFFCURVE",
"168 368 CURVE",
"240 245 LINE",
"288 252 OFFCURVE",
"328 264 OFFCURVE",
"359 280 CURVE",
"372 262 OFFCURVE",
"379 242 OFFCURVE",
"379 224 CURVE SMOOTH",
"379 168 OFFCURVE",
"337 126 OFFCURVE",
"272 126 CURVE SMOOTH",
"176 126 OFFCURVE",
"114 264 OFFCURVE",
"80 347 CURVE"
);
}
);
width = 519;
}
);
unicode = 0909;
},
{
glyphname = dvUU;
lastChange = "2017-01-30 15:56:24 +0000";
layers = (
{
layerId = "7872E05C-01F2-413A-9F3F-5746E4900C50";
paths = (
{
closed = 1;
nodes = (
"696 224 CURVE SMOOTH",
"696 308 OFFCURVE",
"623 409 OFFCURVE",
"541 409 CURVE SMOOTH",
"494 409 OFFCURVE",
"445 380 OFFCURVE",
"409 347 CURVE",
"390 367 LINE",
"423 393 OFFCURVE",
"443 427 OFFCURVE",
"443 470 CURVE SMOOTH",
"443 499 OFFCURVE",
"432 541 OFFCURVE",
"399 577 CURVE",
"791 577 LINE",
"758 625 LINE",
"-39 625 LINE",
"-6 577 LINE",
"349 577 LINE",
"379 560 OFFCURVE",
"400 524 OFFCURVE",
"400 489 CURVE SMOOTH",
"400 406 OFFCURVE",
"312 369 OFFCURVE",
"222 353 CURVE",
"249 309 LINE",
"291 317 OFFCURVE",
"330 330 OFFCURVE",
"361 348 CURVE",
"407 309 OFFCURVE",
"424 260 OFFCURVE",
"424 206 CURVE SMOOTH",
"424 138 OFFCURVE",
"371 87 OFFCURVE",
"290 87 CURVE SMOOTH",
"183 87 OFFCURVE",
"114 220 OFFCURVE",
"77 313 CURVE",
"48 298 LINE",
"84 208 OFFCURVE",
"167 41 OFFCURVE",
"310 41 CURVE SMOOTH",
"412 41 OFFCURVE",
"467 112 OFFCURVE",
"467 188 CURVE SMOOTH",
"467 232 OFFCURVE",
"455 271 OFFCURVE",
"439 301 CURVE",
"465 331 OFFCURVE",
"503 363 OFFCURVE",
"557 363 CURVE SMOOTH",
"610 363 OFFCURVE",
"657 305 OFFCURVE",
"657 247 CURVE SMOOTH",
"657 186 OFFCURVE",
"614 141 OFFCURVE",
"530 112 CURVE",
"560 75 LINE",
"619 100 OFFCURVE",
"696 146 OFFCURVE"
);
}
);
width = 729;
},
{
layerId = "20CB0FE4-6866-45E2-B7C3-9D16484A9962";
paths = (
{
closed = 1;
nodes = (
"727 185 CURVE SMOOTH",
"727 282 OFFCURVE",
"614 394 OFFCURVE",
"520 394 CURVE SMOOTH",
"476 394 OFFCURVE",
"424 356 OFFCURVE",
"385 318 CURVE",
"382 322 OFFCURVE",
"378 325 OFFCURVE",
"375 328 CURVE",
"396 355 OFFCURVE",
"406 386 OFFCURVE",
"406 420 CURVE SMOOTH",
"406 463 OFFCURVE",
"389 502 OFFCURVE",
"367 531 CURVE",
"772 531 LINE",
"700 635 LINE",
"-92 635 LINE",
"-20 531 LINE",
"255 531 LINE",
"281 523 OFFCURVE",
"298 493 OFFCURVE",
"298 470 CURVE SMOOTH",
"298 430 OFFCURVE",
"268 388 OFFCURVE",
"124 368 CURVE",
"196 245 LINE",
"244 252 OFFCURVE",
"283 264 OFFCURVE",
"314 280 CURVE",
"326 263 OFFCURVE",
"333 244 OFFCURVE",
"333 226 CURVE SMOOTH",
"333 172 OFFCURVE",
"291 127 OFFCURVE",
"222 127 CURVE SMOOTH",
"146 127 OFFCURVE",
"82 232 OFFCURVE",
"36 347 CURVE",
"-26 310 LINE",
"17 201 OFFCURVE",
"121 -1 OFFCURVE",
"265 -1 CURVE SMOOTH",
"379 -1 OFFCURVE",
"444 80 OFFCURVE",
"444 175 CURVE SMOOTH",
"444 183 LINE",
"472 220 OFFCURVE",
"529 276 OFFCURVE",
"577 276 CURVE SMOOTH",
"604 276 OFFCURVE",
"618 265 OFFCURVE",
"618 239 CURVE SMOOTH",
"618 188 OFFCURVE",
"575 138 OFFCURVE",
"490 115 CURVE",
"573 1 LINE",
"656 31 OFFCURVE",
"727 94 OFFCURVE"
);
}
);
width = 729;
}
);
unicode = 090A;
},
{
glyphname = dvvR;
lastChange = "2017-01-30 15:56:24 +0000";
layers = (
{
layerId = "7872E05C-01F2-413A-9F3F-5746E4900C50";
paths = (
{
closed = 1;
nodes = (
"689 324 LINE",
"716 338 OFFCURVE",
"741 360 OFFCURVE",
"741 379 CURVE SMOOTH",
"741 417 OFFCURVE",
"704 466 OFFCURVE",
"667 466 CURVE SMOOTH",
"633 466 OFFCURVE",
"605 444 OFFCURVE",
"605 411 CURVE SMOOTH",
"605 390 OFFCURVE",
"615 370 OFFCURVE",
"626 349 CURVE",
"601 337 OFFCURVE",
"567 327 OFFCURVE",
"535 327 CURVE SMOOTH",
"518 327 OFFCURVE",
"501 329 OFFCURVE",
"487 336 CURVE",
"487 577 LINE",
"897 577 LINE",
"865 625 LINE",
"-22 625 LINE",
"10 577 LINE",
"431 577 LINE",
"431 332 LINE",
"351 435 OFFCURVE",
"286 467 OFFCURVE",
"225 467 CURVE SMOOTH",
"176 467 OFFCURVE",
"128 456 OFFCURVE",
"72 413 CURVE",
"106 371 LINE",
"151 403 OFFCURVE",
"194 424 OFFCURVE",
"252 424 CURVE SMOOTH",
"325 424 OFFCURVE",
"379 350 OFFCURVE",
"407 312 CURVE",
"141 102 LINE",
"182 69 LINE",
"431 274 LINE",
"431 -9 LINE",
"487 -50 LINE",
"487 306 LINE",
"510 295 OFFCURVE",
"538 289 OFFCURVE",
"570 289 CURVE SMOOTH",
"598 289 OFFCURVE",
"629 295 OFFCURVE",
"658 310 CURVE",
"696 243 LINE",
"682 234 OFFCURVE",
"567 197 OFFCURVE",
"567 123 CURVE SMOOTH",
"567 42 OFFCURVE",
"639 -5 OFFCURVE",
"711 -5 CURVE SMOOTH",
"765 -5 OFFCURVE",
"819 30 OFFCURVE",
"847 59 CURVE",
"809 92 LINE",
"768 58 OFFCURVE",
"741 38 OFFCURVE",
"688 38 CURVE SMOOTH",
"654 38 OFFCURVE",
"610 54 OFFCURVE",
"610 99 CURVE SMOOTH",
"610 158 OFFCURVE",
"699 194 OFFCURVE",
"758 205 CURVE"
);
}
);
width = 872;
},
{
layerId = "20CB0FE4-6866-45E2-B7C3-9D16484A9962";
paths = (
{
closed = 1;
nodes = (
"816 287 LINE",
"834 304 OFFCURVE",
"842 321 OFFCURVE",
"842 344 CURVE SMOOTH",
"842 403 OFFCURVE",
"784 467 OFFCURVE",
"741 467 CURVE SMOOTH",
"707 467 OFFCURVE",
"677 438 OFFCURVE",
"677 406 CURVE SMOOTH",
"677 388 OFFCURVE",
"685 370 OFFCURVE",
"694 354 CURVE",
"694 354 OFFCURVE",
"668 327 OFFCURVE",
"608 327 CURVE SMOOTH",
"598 327 OFFCURVE",
"587 329 OFFCURVE",
"577 332 CURVE",
"577 531 LINE",
"1069 531 LINE",
"997 635 LINE",
"-92 635 LINE",
"-20 531 LINE",
"452 531 LINE",
"452 319 LINE",
"346 442 OFFCURVE",
"274 464 OFFCURVE",
"201 464 CURVE SMOOTH",
"145 464 OFFCURVE",
"97 446 OFFCURVE",
"36 397 CURVE",
"126 293 LINE",
"180 339 OFFCURVE",
"229 357 OFFCURVE",
"272 357 CURVE SMOOTH",
"318 357 OFFCURVE",
"365 331 OFFCURVE",
"392 294 CURVE",
"120 73 LINE",
"217 -4 LINE",
"452 195 LINE",
"452 31 LINE",
"577 -40 LINE",
"577 253 LINE",
"607 241 OFFCURVE",
"643 235 OFFCURVE",
"678 235 CURVE SMOOTH",
"707 235 OFFCURVE",
"729 238 OFFCURVE",
"751 246 CURVE",
"772 218 LINE",
"707 178 OFFCURVE",
"662 151 OFFCURVE",
"662 92 CURVE SMOOTH",
"662 11 OFFCURVE",
"779 -113 OFFCURVE",
"875 -113 CURVE SMOOTH",
"943 -113 OFFCURVE",
"991 -82 OFFCURVE",
"1029 -40 CURVE",
"949 36 LINE",
"923 10 OFFCURVE",
"881 -13 OFFCURVE",
"836 -13 CURVE SMOOTH",
"804 -13 OFFCURVE",
"774 3 OFFCURVE",
"774 38 CURVE SMOOTH",
"774 82 OFFCURVE",
"843 128 OFFCURVE",
"910 162 CURVE"
);
}
);
width = 978;
}
);
unicode = 090B;
},
{
glyphname = dvvL;
lastChange = "2017-01-30 15:56:24 +0000";
layers = (
{
layerId = "7872E05C-01F2-413A-9F3F-5746E4900C50";
paths = (
{
closed = 1;
nodes = (
"543 367 CURVE SMOOTH",
"569 367 OFFCURVE",
"598 361 OFFCURVE",
"618 354 CURVE",
"618 74 LINE",
"604 65 OFFCURVE",
"470 22 OFFCURVE",
"470 -52 CURVE SMOOTH",
"470 -133 OFFCURVE",
"542 -180 OFFCURVE",
"614 -180 CURVE SMOOTH",
"668 -180 OFFCURVE",
"741 -139 OFFCURVE",
"769 -110 CURVE",
"731 -77 LINE",
"690 -111 OFFCURVE",
"644 -137 OFFCURVE",
"591 -137 CURVE SMOOTH",
"557 -137 OFFCURVE",
"513 -121 OFFCURVE",
"513 -76 CURVE SMOOTH",
"513 -17 OFFCURVE",
"615 19 OFFCURVE",
"674 30 CURVE",
"674 577 LINE",
"828 577 LINE",
"796 625 LINE",
"-56 625 LINE",
"-24 577 LINE",
"618 577 LINE",
"618 387 LINE",
"591 404 OFFCURVE",
"552 415 OFFCURVE",
"516 415 CURVE SMOOTH",
"470 415 OFFCURVE",
"430 392 OFFCURVE",
"408 360 CURVE",
"384 388 OFFCURVE",
"335 418 OFFCURVE",
"282 418 CURVE SMOOTH",
"195 418 OFFCURVE",
"123 350 OFFCURVE",
"123 260 CURVE SMOOTH",
"123 140 OFFCURVE",
"221 28 OFFCURVE",
"312 -50 CURVE",
"342 -29 LINE",
"258 43 OFFCURVE",
"173 133 OFFCURVE",
"173 234 CURVE SMOOTH",
"173 318 OFFCURVE",
"224 370 OFFCURVE",
"299 370 CURVE SMOOTH",
"337 370 OFFCURVE",
"368 353 OFFCURVE",
"391 330 CURVE",
"379 303 OFFCURVE",
"376 274 OFFCURVE",
"376 244 CURVE SMOOTH",
"376 210 OFFCURVE",
"382 177 OFFCURVE",
"392 148 CURVE",
"440 135 LINE",
"435 164 OFFCURVE",
"430 198 OFFCURVE",
"430 231 CURVE SMOOTH",
"430 301 OFFCURVE",
"456 367 OFFCURVE"
);
}
);
width = 774;
},
{
layerId = "20CB0FE4-6866-45E2-B7C3-9D16484A9962";
paths = (
{
closed = 1;
nodes = (
"512 345 CURVE SMOOTH",
"527 345 OFFCURVE",
"541 343 OFFCURVE",
"553 338 CURVE",
"553 112 LINE",
"488 72 OFFCURVE",
"429 37 OFFCURVE",
"429 -22 CURVE SMOOTH",
"429 -103 OFFCURVE",
"546 -227 OFFCURVE",
"642 -227 CURVE SMOOTH",
"710 -227 OFFCURVE",
"772 -188 OFFCURVE",
"810 -146 CURVE",
"730 -70 LINE",
"704 -96 OFFCURVE",
"648 -127 OFFCURVE",
"603 -127 CURVE SMOOTH",
"571 -127 OFFCURVE",
"541 -111 OFFCURVE",
"541 -76 CURVE SMOOTH",
"541 -32 OFFCURVE",
"616 6 OFFCURVE",
"683 40 CURVE",
"683 531 LINE",
"844 531 LINE",
"772 635 LINE",
"-71 635 LINE",
"1 531 LINE",
"553 531 LINE",
"553 421 LINE",
"522 442 OFFCURVE",
"488 456 OFFCURVE",
"457 456 CURVE SMOOTH",
"406 456 OFFCURVE",
"365 434 OFFCURVE",
"338 400 CURVE",
"304 433 OFFCURVE",
"258 458 OFFCURVE",
"204 458 CURVE SMOOTH",
"104 458 OFFCURVE",
"37 383 OFFCURVE",
"37 285 CURVE SMOOTH",
"37 155 OFFCURVE",
"169 35 OFFCURVE",
"256 -40 CURVE",
"320 6 LINE",
"250 63 OFFCURVE",
"161 140 OFFCURVE",
"161 237 CURVE SMOOTH",
"161 302 OFFCURVE",
"202 342 OFFCURVE",
"252 342 CURVE SMOOTH",
"274 342 OFFCURVE",
"291 337 OFFCURVE",
"304 330 CURVE",
"299 313 OFFCURVE",
"297 294 OFFCURVE",
"297 276 CURVE SMOOTH",
"297 240 OFFCURVE",
"306 202 OFFCURVE",
"328 164 CURVE",
"445 123 LINE",
"430 156 OFFCURVE",
"421 194 OFFCURVE",
"421 230 CURVE SMOOTH",
"421 291 OFFCURVE",
"445 345 OFFCURVE"
);
}
);
width = 753;
}
);
unicode = 090C;
},
{
glyphname = dvEcandra;
lastChange = "2017-01-30 15:56:24 +0000";
layers = (
{
layerId = "7872E05C-01F2-413A-9F3F-5746E4900C50";
paths = (
{
closed = 1;
nodes = (
"603 625 LINE",
"-55 625 LINE",
"-22 577 LINE",
"106 577 LINE",
"106 271 LINE SMOOTH",
"106 238 OFFCURVE",
"106 218 OFFCURVE",
"129 201 CURVE SMOOTH",
"211 138 OFFCURVE",
"283 89 OFFCURVE",
"336 50 CURVE SMOOTH",
"394 7 OFFCURVE",
"429 -24 OFFCURVE",
"429 -49 CURVE SMOOTH",
"429 -74 OFFCURVE",
"418 -90 OFFCURVE",
"405 -104 CURVE",
"451 -138 LINE",
"466 -121 OFFCURVE",
"481 -94 OFFCURVE",
"481 -67 CURVE SMOOTH",
"481 -46 OFFCURVE",
"474 -11 OFFCURVE",
"430 20 CURVE SMOOTH",
"228 167 LINE",
"175 208 OFFCURVE",
"162 206 OFFCURVE",
"162 269 CURVE SMOOTH",
"162 577 LINE",
"423 577 LINE",
"423 371 LINE SMOOTH",
"423 310 OFFCURVE",
"404 279 OFFCURVE",
"362 251 CURVE",
"402 211 LINE",
"455 248 OFFCURVE",
"479 288 OFFCURVE",
"479 364 CURVE SMOOTH",
"479 577 LINE",
"635 577 LINE"
);
},
{
closed = 1;
nodes = (
"96 845 LINE",
"126 790 OFFCURVE",
"190 713 OFFCURVE",
"285 713 CURVE SMOOTH",
"360 713 OFFCURVE",
"414 774 OFFCURVE",
"448 837 CURVE",
"412 867 LINE",
"380 808 OFFCURVE",
"338 750 OFFCURVE",
"267 750 CURVE SMOOTH",
"198 750 OFFCURVE",
"145 818 OFFCURVE",
"121 863 CURVE"
);
}
);
width = 571;
},
{
layerId = "20CB0FE4-6866-45E2-B7C3-9D16484A9962";
paths = (
{
closed = 1;
nodes = (
"577 635 LINE",
"-68 635 LINE",
"-6 531 LINE",
"83 531 LINE",
"83 254 LINE SMOOTH",
"83 230 OFFCURVE",
"87 220 OFFCURVE",
"108 203 CURVE SMOOTH",
"342 17 LINE",
"372 -8 OFFCURVE",
"385 -22 OFFCURVE",
"385 -39 CURVE SMOOTH",
"385 -52 OFFCURVE",
"371 -71 OFFCURVE",
"348 -92 CURVE",
"453 -175 LINE",
"480 -150 OFFCURVE",
"504 -114 OFFCURVE",
"504 -71 CURVE SMOOTH",
"504 -36 OFFCURVE",
"484 5 OFFCURVE",
"443 36 CURVE",
"249 188 LINE SMOOTH",
"215 214 OFFCURVE",
"213 230 OFFCURVE",
"213 273 CURVE SMOOTH",
"213 531 LINE",
"372 531 LINE",
"372 351 LINE SMOOTH",
"372 307 OFFCURVE",
"348 287 OFFCURVE",
"294 256 CURVE",
"390 160 LINE",
"462 204 OFFCURVE",
"502 257 OFFCURVE",
"502 345 CURVE SMOOTH",
"502 531 LINE",
"639 531 LINE"
);
},
{
closed = 1;
nodes = (
"65 860 LINE",
"137 748 OFFCURVE",
"219 685 OFFCURVE",
"316 685 CURVE SMOOTH",
"420 685 OFFCURVE",
"475 765 OFFCURVE",
"514 836 CURVE",
"415 911 LINE",
"383 850 OFFCURVE",
"336 791 OFFCURVE",
"270 791 CURVE SMOOTH",
"200 791 OFFCURVE",
"160 845 OFFCURVE",
"121 901 CURVE"
);
}
);
width = 571;
}
);
unicode = 090D;
},
{
glyphname = dvE;
lastChange = "2017-01-30 15:56:24 +0000";
layers = (
{
layerId = "7872E05C-01F2-413A-9F3F-5746E4900C50";
paths = (
{
closed = 1;
nodes = (
"603 625 LINE",
"-55 625 LINE",
"-22 577 LINE",
"106 577 LINE",
"106 271 LINE SMOOTH",
"106 238 OFFCURVE",
"106 218 OFFCURVE",
"129 201 CURVE SMOOTH",
"211 138 OFFCURVE",
"283 89 OFFCURVE",
"336 50 CURVE SMOOTH",
"394 7 OFFCURVE",
"429 -24 OFFCURVE",
"429 -49 CURVE SMOOTH",
"429 -74 OFFCURVE",
"418 -90 OFFCURVE",
"405 -104 CURVE",
"451 -138 LINE",
"466 -121 OFFCURVE",
"481 -94 OFFCURVE",
"481 -67 CURVE SMOOTH",
"481 -46 OFFCURVE",
"474 -11 OFFCURVE",
"430 20 CURVE SMOOTH",
"228 167 LINE",
"175 208 OFFCURVE",
"162 206 OFFCURVE",
"162 269 CURVE SMOOTH",
"162 577 LINE",
"423 577 LINE",
"423 371 LINE SMOOTH",
"423 310 OFFCURVE",
"404 279 OFFCURVE",
"362 251 CURVE",
"402 211 LINE",
"455 248 OFFCURVE",
"479 288 OFFCURVE",
"479 364 CURVE SMOOTH",
"479 577 LINE",
"635 577 LINE"
);
}
);
width = 571;
},
{
layerId = "20CB0FE4-6866-45E2-B7C3-9D16484A9962";
paths = (
{
closed = 1;
nodes = (
"566 635 LINE",
"-79 635 LINE",
"-17 531 LINE",
"72 531 LINE",
"72 254 LINE SMOOTH",
"72 230 OFFCURVE",
"76 220 OFFCURVE",
"97 203 CURVE SMOOTH",
"331 17 LINE",
"361 -8 OFFCURVE",
"374 -22 OFFCURVE",
"374 -39 CURVE SMOOTH",
"374 -52 OFFCURVE",
"360 -71 OFFCURVE",
"337 -92 CURVE",
"442 -175 LINE",
"469 -150 OFFCURVE",
"493 -114 OFFCURVE",
"493 -71 CURVE SMOOTH",
"493 -36 OFFCURVE",
"473 5 OFFCURVE",
"432 36 CURVE",
"238 188 LINE SMOOTH",
"204 214 OFFCURVE",
"202 230 OFFCURVE",
"202 273 CURVE SMOOTH",
"202 531 LINE",
"361 531 LINE",
"361 351 LINE SMOOTH",
"361 307 OFFCURVE",
"337 287 OFFCURVE",
"283 256 CURVE",
"379 160 LINE",
"451 204 OFFCURVE",
"491 257 OFFCURVE",
"491 345 CURVE SMOOTH",
"491 531 LINE",
"628 531 LINE"
);
}
);
width = 561;
}
);
unicode = 090F;
},
{
glyphname = dvAI;
lastChange = "2017-01-30 15:56:24 +0000";
layers = (
{
layerId = "7872E05C-01F2-413A-9F3F-5746E4900C50";
paths = (
{
closed = 1;
nodes = (
"199 799 LINE",
"218 806 OFFCURVE",
"231 809 OFFCURVE",
"248 809 CURVE SMOOTH",
"329 809 OFFCURVE",
"391 712 OFFCURVE",
"435 625 CURVE",
"-55 625 LINE",
"-22 577 LINE",
"106 577 LINE",
"106 271 LINE SMOOTH",
"106 238 OFFCURVE",
"106 218 OFFCURVE",
"129 201 CURVE SMOOTH",
"211 138 OFFCURVE",
"283 89 OFFCURVE",
"336 50 CURVE SMOOTH",
"394 7 OFFCURVE",
"429 -24 OFFCURVE",
"429 -49 CURVE SMOOTH",
"429 -74 OFFCURVE",
"418 -90 OFFCURVE",
"405 -104 CURVE",
"451 -138 LINE",
"466 -121 OFFCURVE",
"481 -94 OFFCURVE",
"481 -67 CURVE SMOOTH",
"481 -46 OFFCURVE",
"474 -11 OFFCURVE",
"430 20 CURVE SMOOTH",
"228 167 LINE",
"175 208 OFFCURVE",
"162 206 OFFCURVE",
"162 269 CURVE SMOOTH",
"162 577 LINE",
"423 577 LINE",
"423 371 LINE SMOOTH",
"423 310 OFFCURVE",
"404 279 OFFCURVE",
"362 251 CURVE",
"402 211 LINE",
"455 248 OFFCURVE",
"479 288 OFFCURVE",
"479 364 CURVE SMOOTH",
"479 577 LINE",
"635 577 LINE",
"603 625 LINE",
"472 625 LINE",
"430 714 OFFCURVE",
"361 860 OFFCURVE",
"227 860 CURVE SMOOTH",
"213 860 OFFCURVE",
"185 854 OFFCURVE",
"172 845 CURVE"
);
}
);
width = 571;
},
{
layerId = "20CB0FE4-6866-45E2-B7C3-9D16484A9962";
paths = (
{
closed = 1;
nodes = (
"186 732 LINE",
"212 751 OFFCURVE",
"237 762 OFFCURVE",
"258 762 CURVE SMOOTH",
"310 762 OFFCURVE",
"354 701 OFFCURVE",
"390 635 CURVE",
"-68 635 LINE",
"-6 531 LINE",
"83 531 LINE",
"83 254 LINE SMOOTH",
"83 230 OFFCURVE",
"87 220 OFFCURVE",
"108 203 CURVE SMOOTH",
"342 17 LINE",
"372 -8 OFFCURVE",
"385 -22 OFFCURVE",
"385 -39 CURVE SMOOTH",
"385 -52 OFFCURVE",
"371 -71 OFFCURVE",
"348 -92 CURVE",
"453 -175 LINE",
"480 -150 OFFCURVE",
"504 -114 OFFCURVE",
"504 -71 CURVE SMOOTH",
"504 -36 OFFCURVE",
"484 5 OFFCURVE",
"443 36 CURVE",
"249 188 LINE SMOOTH",
"215 214 OFFCURVE",
"213 230 OFFCURVE",
"213 273 CURVE SMOOTH",
"213 531 LINE",
"372 531 LINE",
"372 351 LINE SMOOTH",
"372 307 OFFCURVE",
"348 287 OFFCURVE",
"294 256 CURVE",
"390 160 LINE",
"462 204 OFFCURVE",
"502 257 OFFCURVE",
"502 345 CURVE SMOOTH",
"502 531 LINE",
"639 531 LINE",
"577 635 LINE",
"476 635 LINE",
"422 751 OFFCURVE",
"347 885 OFFCURVE",
"221 885 CURVE SMOOTH",
"185 885 OFFCURVE",
"145 871 OFFCURVE",
"103 846 CURVE"
);
}
);
width = 571;
}
);
unicode = 0910;
},
{
glyphname = dvOcandra;
lastChange = "2017-01-30 15:56:24 +0000";
layers = (
{
layerId = "7872E05C-01F2-413A-9F3F-5746E4900C50";
paths = (
{
closed = 1;
nodes = (
"1064 625 LINE",
"546 625 LINE",
"557 609 OFFCURVE",
"566 597 OFFCURVE",
"578 577 CURVE",
"661 577 LINE",
"661 368 LINE",
"644 338 OFFCURVE",
"598 320 OFFCURVE",
"561 320 CURVE SMOOTH",
"531 320 OFFCURVE",
"464 335 OFFCURVE",
"425 368 CURVE",
"463 398 OFFCURVE",
"486 428 OFFCURVE",
"486 467 CURVE SMOOTH",
"486 544 OFFCURVE",
"423 635 OFFCURVE",
"334 635 CURVE SMOOTH",
"279 635 OFFCURVE",
"220 609 OFFCURVE",
"176 562 CURVE",
"212 525 LINE",
"265 577 OFFCURVE",
"314 588 OFFCURVE",
"347 588 CURVE SMOOTH",
"394 588 OFFCURVE",
"444 552 OFFCURVE",
"444 495 CURVE SMOOTH",
"444 416 OFFCURVE",
"345 367 OFFCURVE",
"276 342 CURVE",
"303 298 LINE",
"332 309 OFFCURVE",
"366 325 OFFCURVE",
"397 346 CURVE",
"446 307 OFFCURVE",
"468 262 OFFCURVE",
"468 206 CURVE SMOOTH",
"468 139 OFFCURVE",
"419 87 OFFCURVE",
"334 87 CURVE SMOOTH",
"230 87 OFFCURVE",
"159 225 OFFCURVE",
"121 313 CURVE",
"92 298 LINE",
"128 208 OFFCURVE",
"211 41 OFFCURVE",
"354 41 CURVE SMOOTH",
"460 41 OFFCURVE",
"511 112 OFFCURVE",
"511 188 CURVE SMOOTH",
"511 242 OFFCURVE",
"495 275 OFFCURVE",
"474 305 CURVE",
"508 291 OFFCURVE",
"547 275 OFFCURVE",
"583 275 CURVE SMOOTH",
"614 275 OFFCURVE",
"642 283 OFFCURVE",
"666 301 CURVE",
"661 -13 LINE",
"717 -50 LINE",
"717 577 LINE",
"858 577 LINE",
"858 -6 LINE",
"914 -50 LINE",
"914 577 LINE",
"1096 577 LINE"
);
},
{
closed = 1;
nodes = (
"701 845 LINE",
"731 790 OFFCURVE",
"795 713 OFFCURVE",
"890 713 CURVE SMOOTH",
"965 713 OFFCURVE",
"1019 774 OFFCURVE",
"1053 837 CURVE",
"1017 867 LINE",
"985 808 OFFCURVE",
"943 750 OFFCURVE",
"872 750 CURVE SMOOTH",
"803 750 OFFCURVE",
"750 818 OFFCURVE",
"726 863 CURVE"
);
}
);
width = 1029;
},
{
layerId = "20CB0FE4-6866-45E2-B7C3-9D16484A9962";
paths = (
{
closed = 1;
nodes = (
"1042 635 LINE",
"380 635 LINE",
"452 531 LINE",
"535 531 LINE",
"535 393 LINE",
"522 371 OFFCURVE",
"469 343 OFFCURVE",
"422 343 CURVE SMOOTH",
"407 343 OFFCURVE",
"395 346 OFFCURVE",
"385 351 CURVE",
"401 375 OFFCURVE",
"411 402 OFFCURVE",
"411 433 CURVE SMOOTH",
"411 521 OFFCURVE",
"313 642 OFFCURVE",
"227 642 CURVE SMOOTH",
"166 642 OFFCURVE",
"112 598 OFFCURVE",
"74 549 CURVE",
"171 454 LINE",
"205 494 OFFCURVE",
"243 519 OFFCURVE",
"274 519 CURVE SMOOTH",
"296 519 OFFCURVE",
"309 502 OFFCURVE",
"309 484 CURVE SMOOTH",
"309 439 OFFCURVE",
"254 403 OFFCURVE",
"149 368 CURVE",
"223 244 LINE",
"258 257 OFFCURVE",
"291 272 OFFCURVE",
"319 290 CURVE",
"327 278 OFFCURVE",
"332 263 OFFCURVE",
"332 247 CURVE SMOOTH",
"332 194 OFFCURVE",
"293 146 OFFCURVE",
"224 146 CURVE SMOOTH",
"144 146 OFFCURVE",
"93 251 OFFCURVE",
"45 356 CURVE",
"-19 319 LINE",
"24 208 OFFCURVE",
"114 23 OFFCURVE",
"266 23 CURVE SMOOTH",
"374 23 OFFCURVE",
"440 103 OFFCURVE",
"440 197 CURVE SMOOTH",
"440 212 OFFCURVE",
"438 227 OFFCURVE",
"434 240 CURVE",
"454 229 OFFCURVE",
"475 223 OFFCURVE",
"496 223 CURVE SMOOTH",
"511 223 OFFCURVE",
"527 226 OFFCURVE",
"542 234 CURVE",
"535 32 LINE",
"665 -40 LINE",
"665 531 LINE",
"822 531 LINE",
"822 37 LINE",
"952 -40 LINE",
"952 531 LINE",
"1095 531 LINE"
);
},
{
closed = 1;
nodes = (
"650 860 LINE",
"722 748 OFFCURVE",
"804 685 OFFCURVE",
"901 685 CURVE SMOOTH",
"1005 685 OFFCURVE",
"1060 765 OFFCURVE",
"1099 836 CURVE",
"1000 911 LINE",
"968 850 OFFCURVE",
"921 791 OFFCURVE",
"855 791 CURVE SMOOTH",
"785 791 OFFCURVE",
"745 845 OFFCURVE",
"706 901 CURVE"
);
}
);
width = 1029;
}
);
unicode = 0911;
},
{
glyphname = dvO;
lastChange = "2017-01-30 15:56:24 +0000";
layers = (
{
layerId = "7872E05C-01F2-413A-9F3F-5746E4900C50";
paths = (
{
closed = 1;
nodes = (
"640 799 LINE",
"659 806 OFFCURVE",
"672 809 OFFCURVE",
"689 809 CURVE SMOOTH",
"770 809 OFFCURVE",
"832 712 OFFCURVE",
"876 625 CURVE",
"546 625 LINE",
"557 609 OFFCURVE",
"566 597 OFFCURVE",
"578 577 CURVE",
"661 577 LINE",
"661 368 LINE",
"644 338 OFFCURVE",
"598 320 OFFCURVE",
"561 320 CURVE SMOOTH",
"531 320 OFFCURVE",
"464 335 OFFCURVE",
"425 368 CURVE",
"463 398 OFFCURVE",
"486 428 OFFCURVE",
"486 467 CURVE SMOOTH",
"486 544 OFFCURVE",
"423 635 OFFCURVE",
"334 635 CURVE SMOOTH",
"279 635 OFFCURVE",
"220 609 OFFCURVE",
"176 562 CURVE",
"212 525 LINE",
"265 577 OFFCURVE",
"314 588 OFFCURVE",
"347 588 CURVE SMOOTH",
"394 588 OFFCURVE",
"444 552 OFFCURVE",
"444 495 CURVE SMOOTH",
"444 416 OFFCURVE",
"345 367 OFFCURVE",
"276 342 CURVE",
"303 298 LINE",
"332 309 OFFCURVE",
"366 325 OFFCURVE",
"397 346 CURVE",
"446 307 OFFCURVE",
"468 262 OFFCURVE",
"468 206 CURVE SMOOTH",
"468 139 OFFCURVE",
"419 87 OFFCURVE",
"334 87 CURVE SMOOTH",
"230 87 OFFCURVE",
"159 225 OFFCURVE",
"121 313 CURVE",
"92 298 LINE",
"128 208 OFFCURVE",
"211 41 OFFCURVE",
"354 41 CURVE SMOOTH",
"460 41 OFFCURVE",
"511 112 OFFCURVE",
"511 188 CURVE SMOOTH",
"511 242 OFFCURVE",
"495 275 OFFCURVE",
"474 305 CURVE",
"508 291 OFFCURVE",
"547 275 OFFCURVE",
"583 275 CURVE SMOOTH",
"614 275 OFFCURVE",
"642 283 OFFCURVE",
"666 301 CURVE",
"661 -13 LINE",
"717 -50 LINE",
"717 577 LINE",
"860 577 LINE",
"860 -6 LINE",
"916 -50 LINE",
"916 577 LINE",
"1098 577 LINE",
"1066 625 LINE",
"913 625 LINE",
"871 714 OFFCURVE",
"802 860 OFFCURVE",
"668 860 CURVE SMOOTH",
"654 860 OFFCURVE",
"626 854 OFFCURVE",
"613 845 CURVE"
);
}
);
width = 1029;
},
{
layerId = "20CB0FE4-6866-45E2-B7C3-9D16484A9962";
paths = (
{
closed = 1;
nodes = (
"627 732 LINE",
"653 751 OFFCURVE",
"678 762 OFFCURVE",
"699 762 CURVE SMOOTH",
"751 762 OFFCURVE",
"795 701 OFFCURVE",
"831 635 CURVE",
"380 635 LINE",
"452 531 LINE",
"535 531 LINE",
"535 393 LINE",
"522 371 OFFCURVE",
"469 343 OFFCURVE",
"422 343 CURVE SMOOTH",
"407 343 OFFCURVE",
"395 346 OFFCURVE",
"385 351 CURVE",
"401 375 OFFCURVE",
"411 402 OFFCURVE",
"411 433 CURVE SMOOTH",
"411 521 OFFCURVE",
"313 642 OFFCURVE",
"227 642 CURVE SMOOTH",
"166 642 OFFCURVE",
"112 598 OFFCURVE",
"74 549 CURVE",
"171 454 LINE",
"205 494 OFFCURVE",
"243 519 OFFCURVE",
"274 519 CURVE SMOOTH",
"296 519 OFFCURVE",
"309 502 OFFCURVE",
"309 484 CURVE SMOOTH",
"309 439 OFFCURVE",
"254 403 OFFCURVE",
"149 368 CURVE",
"223 244 LINE",
"258 257 OFFCURVE",
"291 272 OFFCURVE",
"319 290 CURVE",
"327 278 OFFCURVE",
"332 263 OFFCURVE",
"332 247 CURVE SMOOTH",
"332 194 OFFCURVE",
"293 146 OFFCURVE",
"224 146 CURVE SMOOTH",
"144 146 OFFCURVE",
"93 251 OFFCURVE",
"45 356 CURVE",
"-19 319 LINE",
"24 208 OFFCURVE",
"114 23 OFFCURVE",
"266 23 CURVE SMOOTH",
"374 23 OFFCURVE",
"440 103 OFFCURVE",
"440 197 CURVE SMOOTH",
"440 212 OFFCURVE",
"438 227 OFFCURVE",
"434 240 CURVE",
"454 229 OFFCURVE",
"475 223 OFFCURVE",
"496 223 CURVE SMOOTH",
"511 223 OFFCURVE",
"527 226 OFFCURVE",
"542 234 CURVE",
"535 32 LINE",
"665 -40 LINE",
"665 531 LINE",
"824 531 LINE",
"824 37 LINE",
"954 -40 LINE",
"954 531 LINE",
"1097 531 LINE",
"1044 635 LINE",
"917 635 LINE",
"863 751 OFFCURVE",
"788 885 OFFCURVE",
"662 885 CURVE SMOOTH",
"626 885 OFFCURVE",
"586 871 OFFCURVE",
"544 846 CURVE"
);
}
);
width = 1029;
}
);
unicode = 0913;
},
{
glyphname = dvAU;
lastChange = "2017-01-30 15:56:24 +0000";
layers = (
{
layerId = "7872E05C-01F2-413A-9F3F-5746E4900C50";
paths = (
{
closed = 1;
nodes = (
"672 861 LINE",
"687 867 OFFCURVE",
"703 868 OFFCURVE",
"716 868 CURVE SMOOTH",
"810 868 OFFCURVE",
"847 749 OFFCURVE",
"889 650 CURVE",
"842 715 OFFCURVE",
"754 781 OFFCURVE",
"666 781 CURVE SMOOTH",
"640 781 OFFCURVE",
"614 775 OFFCURVE",
"590 762 CURVE",
"623 720 LINE",
"643 729 OFFCURVE",
"662 734 OFFCURVE",
"682 734 CURVE SMOOTH",
"754 734 OFFCURVE",
"823 688 OFFCURVE",
"868 625 CURVE",
"546 625 LINE",
"557 609 OFFCURVE",
"566 597 OFFCURVE",
"578 577 CURVE",
"661 577 LINE",
"661 368 LINE",
"644 338 OFFCURVE",
"598 320 OFFCURVE",
"561 320 CURVE SMOOTH",
"531 320 OFFCURVE",
"464 335 OFFCURVE",
"425 368 CURVE",
"463 398 OFFCURVE",
"486 428 OFFCURVE",
"486 467 CURVE SMOOTH",
"486 544 OFFCURVE",
"423 635 OFFCURVE",
"334 635 CURVE SMOOTH",
"279 635 OFFCURVE",
"220 609 OFFCURVE",
"176 562 CURVE",
"212 525 LINE",
"265 577 OFFCURVE",
"314 588 OFFCURVE",
"347 588 CURVE SMOOTH",
"394 588 OFFCURVE",
"444 552 OFFCURVE",
"444 495 CURVE SMOOTH",
"444 416 OFFCURVE",
"345 367 OFFCURVE",
"276 342 CURVE",
"303 298 LINE",
"332 309 OFFCURVE",
"366 325 OFFCURVE",
"397 346 CURVE",
"446 307 OFFCURVE",
"468 262 OFFCURVE",
"468 206 CURVE SMOOTH",
"468 139 OFFCURVE",
"419 87 OFFCURVE",
"334 87 CURVE SMOOTH",
"230 87 OFFCURVE",
"159 225 OFFCURVE",
"121 313 CURVE",
"92 298 LINE",
"128 208 OFFCURVE",
"211 41 OFFCURVE",
"354 41 CURVE SMOOTH",
"460 41 OFFCURVE",
"511 112 OFFCURVE",
"511 188 CURVE SMOOTH",
"511 242 OFFCURVE",
"495 275 OFFCURVE",
"474 305 CURVE",
"508 291 OFFCURVE",
"547 275 OFFCURVE",
"583 275 CURVE SMOOTH",
"614 275 OFFCURVE",
"642 283 OFFCURVE",
"666 301 CURVE",
"661 -13 LINE",
"717 -50 LINE",
"717 577 LINE",
"880 577 LINE",
"880 -6 LINE",
"936 -50 LINE",
"936 577 LINE",
"1118 577 LINE",
"1086 625 LINE",
"933 625 LINE",
"909 690 OFFCURVE",
"834 919 OFFCURVE",
"703 919 CURVE SMOOTH",
"689 919 OFFCURVE",
"665 915 OFFCURVE",
"649 908 CURVE"
);
}
);
width = 1049;
},
{
layerId = "20CB0FE4-6866-45E2-B7C3-9D16484A9962";
paths = (
{
closed = 1;
nodes = (
"711 826 LINE",
"723 831 OFFCURVE",
"735 833 OFFCURVE",
"745 833 CURVE SMOOTH",
"831 833 OFFCURVE",
"892 662 OFFCURVE",
"901 635 CURVE",
"845 721 OFFCURVE",
"758 798 OFFCURVE",
"676 798 CURVE SMOOTH",
"646 798 OFFCURVE",
"613 791 OFFCURVE",
"584 769 CURVE",
"666 666 LINE",
"689 679 OFFCURVE",
"715 685 OFFCURVE",
"733 685 CURVE SMOOTH",
"773 685 OFFCURVE",
"808 661 OFFCURVE",
"835 635 CURVE",
"380 635 LINE",
"452 531 LINE",
"535 531 LINE",
"535 393 LINE",
"522 371 OFFCURVE",
"469 343 OFFCURVE",
"422 343 CURVE SMOOTH",
"407 343 OFFCURVE",
"395 346 OFFCURVE",
"385 351 CURVE",
"401 375 OFFCURVE",
"411 402 OFFCURVE",
"411 433 CURVE SMOOTH",
"411 521 OFFCURVE",
"313 642 OFFCURVE",
"227 642 CURVE SMOOTH",
"166 642 OFFCURVE",
"112 598 OFFCURVE",
"74 549 CURVE",
"171 454 LINE",
"205 494 OFFCURVE",
"243 519 OFFCURVE",
"274 519 CURVE SMOOTH",
"296 519 OFFCURVE",
"309 502 OFFCURVE",
"309 484 CURVE SMOOTH",
"309 439 OFFCURVE",
"254 403 OFFCURVE",
"149 368 CURVE",
"223 244 LINE",
"258 257 OFFCURVE",
"291 272 OFFCURVE",
"319 290 CURVE",
"327 278 OFFCURVE",
"332 263 OFFCURVE",
"332 247 CURVE SMOOTH",
"332 194 OFFCURVE",
"293 146 OFFCURVE",
"224 146 CURVE SMOOTH",
"144 146 OFFCURVE",
"93 251 OFFCURVE",
"45 356 CURVE",
"-19 319 LINE",
"24 208 OFFCURVE",
"114 23 OFFCURVE",
"266 23 CURVE SMOOTH",
"374 23 OFFCURVE",
"440 103 OFFCURVE",
"440 197 CURVE SMOOTH",
"440 212 OFFCURVE",
"438 227 OFFCURVE",
"434 240 CURVE",
"454 229 OFFCURVE",
"475 223 OFFCURVE",
"496 223 CURVE SMOOTH",
"511 223 OFFCURVE",
"527 226 OFFCURVE",
"542 234 CURVE",
"535 32 LINE",
"665 -40 LINE",
"665 531 LINE",
"844 531 LINE",
"844 37 LINE",
"974 -40 LINE",
"974 531 LINE",
"1117 531 LINE",
"1064 635 LINE",
"952 635 LINE",
"926 772 OFFCURVE",
"864 944 OFFCURVE",
"737 944 CURVE SMOOTH",
"714 944 OFFCURVE",
"686 941 OFFCURVE",
"661 929 CURVE"
);
}
);
width = 1049;
}
);
unicode = 0914;
},
{
glyphname = dvKA;
lastChange = "2017-01-30 15:56:24 +0000";
layers = (
{
anchors = (
{
name = abvm;
position = "{439, 625}";
},
{
name = blwm.u;
position = "{439, -50}";
},
{
name = blwm.virama;
position = "{439, -50}";
}
);
layerId = "7872E05C-01F2-413A-9F3F-5746E4900C50";
paths = (
{
closed = 1;
nodes = (
"439 -50 LINE",
"439 288 LINE",
"476 360 OFFCURVE",
"519 406 OFFCURVE",
"585 406 CURVE",
"674 406 OFFCURVE",
"714 320 OFFCURVE",
"714 255 CURVE SMOOTH",
"714 174 OFFCURVE",
"662 147 OFFCURVE",
"600 147 CURVE SMOOTH",
"577 147 OFFCURVE",
"553 151 OFFCURVE",
"529 157 CURVE",
"547 110 LINE",
"569 103 OFFCURVE",
"592 100 OFFCURVE",
"613 100 CURVE SMOOTH",
"693 100 OFFCURVE",
"759 145 OFFCURVE",
"759 232 CURVE SMOOTH",
"759 331 OFFCURVE",
"679 456 OFFCURVE",
"561 456 CURVE SMOOTH",
"511 456 OFFCURVE",
"459 418 OFFCURVE",
"433 376 CURVE",
"439 577 LINE",
"858 577 LINE",
"826 625 LINE",
"-52 625 LINE",
"-20 577 LINE",
"383 577 LINE",
"383 265 LINE",
"349 203 OFFCURVE",
"302 148 OFFCURVE",
"229 148 CURVE SMOOTH",
"161 148 OFFCURVE",
"101 211 OFFCURVE",
"101 281 CURVE SMOOTH",
"101 368 OFFCURVE",
"159 408 OFFCURVE",
"228 408 CURVE SMOOTH",
"248 408 OFFCURVE",
"269 405 OFFCURVE",
"290 398 CURVE",
"273 445 LINE",
"250 454 OFFCURVE",
"226 458 OFFCURVE",
"203 458 CURVE SMOOTH",
"120 458 OFFCURVE",
"50 403 OFFCURVE",
"50 317 CURVE SMOOTH",
"50 213 OFFCURVE",
"151 98 OFFCURVE",
"249 98 CURVE SMOOTH",
"299 98 OFFCURVE",
"353 130 OFFCURVE",
"389 188 CURVE",
"383 -9 LINE"
);
}
);
width = 806;
},
{
anchors = (
{
name = abvm;
position = "{458, 635}";
},
{
name = blwm.u;
position = "{457, -40}";
},
{
name = blwm.virama;
position = "{457, -40}";
}
);
layerId = "20CB0FE4-6866-45E2-B7C3-9D16484A9962";
paths = (
{
closed = 1;
nodes = (
"457 -40 LINE",
"457 265 LINE",
"482 311 OFFCURVE",
"522 340 OFFCURVE",
"569 340 CURVE SMOOTH",
"618 340 OFFCURVE",
"649 307 OFFCURVE",
"649 264 CURVE SMOOTH",
"649 214 OFFCURVE",
"607 184 OFFCURVE",
"564 184 CURVE SMOOTH",
"538 184 OFFCURVE",
"520 188 OFFCURVE",
"493 200 CURVE",
"525 74 LINE",
"551 64 OFFCURVE",
"584 59 OFFCURVE",
"609 59 CURVE SMOOTH",
"702 59 OFFCURVE",
"755 129 OFFCURVE",
"755 211 CURVE SMOOTH",
"755 324 OFFCURVE",
"624 465 OFFCURVE",
"535 465 CURVE SMOOTH",
"501 465 OFFCURVE",
"474 457 OFFCURVE",
"453 445 CURVE",
"454 481 OFFCURVE",
"456 503 OFFCURVE",
"457 531 CURVE",
"872 531 LINE",
"800 635 LINE",
"-92 635 LINE",
"-20 531 LINE",
"327 531 LINE",
"327 257 LINE",
"310 213 OFFCURVE",
"272 186 OFFCURVE",
"228 186 CURVE SMOOTH",
"179 186 OFFCURVE",
"142 215 OFFCURVE",
"142 262 CURVE SMOOTH",
"142 317 OFFCURVE",
"193 345 OFFCURVE",
"238 345 CURVE SMOOTH",
"252 345 OFFCURVE",
"274 344 OFFCURVE",
"295 334 CURVE",
"256 455 LINE",
"232 466 OFFCURVE",
"206 470 OFFCURVE",
"181 470 CURVE SMOOTH",
"115 470 OFFCURVE",
"37 427 OFFCURVE",
"37 317 CURVE SMOOTH",
"37 191 OFFCURVE",
"172 68 OFFCURVE",
"264 68 CURVE SMOOTH",
"293 68 OFFCURVE",
"312 77 OFFCURVE",
"331 88 CURVE",
"327 32 LINE"
);
}
);
width = 780;
}
);
unicode = 0915;
},
{
glyphname = dvKHA;
lastChange = "2017-01-30 15:56:24 +0000";
layers = (
{
layerId = "7872E05C-01F2-413A-9F3F-5746E4900C50";
paths = (
{
closed = 1;
nodes = (
"50 285 LINE",
"133 147 OFFCURVE",
"239 -12 OFFCURVE",
"427 -12 CURVE SMOOTH",
"541 -12 OFFCURVE",
"630 82 OFFCURVE",
"655 129 CURVE",
"649 -5 LINE",
"705 -50 LINE",
"705 577 LINE",
"857 577 LINE",
"825 625 LINE",
"-52 625 LINE",
"-20 577 LINE",
"194 577 LINE",
"194 333 LINE",
"194 290 OFFCURVE",
"172 272 OFFCURVE",
"138 272 CURVE SMOOTH",
"114 272 OFFCURVE",
"92 284 OFFCURVE",
"71 305 CURVE"
);
},
{
closed = 1;
nodes = (
"248 315 CURVE",
"248 577 LINE",
"649 577 LINE",
"648 363 LINE",
"614 415 OFFCURVE",
"560 442 OFFCURVE",
"495 442 CURVE SMOOTH",
"414 442 OFFCURVE",
"359 383 OFFCURVE",
"359 310 CURVE SMOOTH",
"359 186 OFFCURVE",
"467 127 OFFCURVE",
"591 130 CURVE",
"547 71 OFFCURVE",
"489 34 OFFCURVE",
"403 34 CURVE SMOOTH",
"288 34 OFFCURVE",
"186 137 OFFCURVE",
"141 213 CURVE",
"207 218 OFFCURVE",
"248 261 OFFCURVE"
);
},
{
closed = 1;
nodes = (
"651 270 CURVE SMOOTH",
"651 221 OFFCURVE",
"631 180 OFFCURVE",
"616 164 CURVE",
"529 153 OFFCURVE",
"405 186 OFFCURVE",
"405 290 CURVE SMOOTH",
"405 366 OFFCURVE",
"458 402 OFFCURVE",
"511 402 CURVE SMOOTH",
"585 402 OFFCURVE",
"651 345 OFFCURVE"
);
}
);
width = 805;
},
{
layerId = "20CB0FE4-6866-45E2-B7C3-9D16484A9962";
paths = (
{
closed = 1;
nodes = (
"12 317 LINE",
"90 189 OFFCURVE",
"205 11 OFFCURVE",
"390 11 CURVE SMOOTH",
"463 11 OFFCURVE",
"528 45 OFFCURVE",
"563 75 CURVE",
"559 31 LINE",
"685 -40 LINE",
"685 531 LINE",
"847 531 LINE",
"775 635 LINE",
"-92 635 LINE",
"-20 531 LINE",
"145 531 LINE",
"145 350 LINE",
"145 338 OFFCURVE",
"139 334 OFFCURVE",
"130 334 CURVE SMOOTH",
"116 334 OFFCURVE",
"95 346 OFFCURVE",
"71 370 CURVE"
);
},
{
closed = 1;
nodes = (
"273 326 CURVE",
"273 531 LINE",
"555 531 LINE",
"555 428 LINE",
"525 450 OFFCURVE",
"486 467 OFFCURVE",
"445 467 CURVE SMOOTH",
"375 467 OFFCURVE",
"311 411 OFFCURVE",
"311 334 CURVE SMOOTH",
"311 236 OFFCURVE",
"397 175 OFFCURVE",
"478 159 CURVE",
"453 137 OFFCURVE",
"414 123 OFFCURVE",
"365 123 CURVE SMOOTH",
"290 123 OFFCURVE",
"223 159 OFFCURVE",
"185 210 CURVE",
"256 225 OFFCURVE",
"273 271 OFFCURVE"
);
},
{
closed = 1;
nodes = (
"570 294 CURVE SMOOTH",
"570 256 OFFCURVE",
"546 227 OFFCURVE",
"540 223 CURVE",
"491 225 OFFCURVE",
"435 250 OFFCURVE",
"435 302 CURVE SMOOTH",
"435 335 OFFCURVE",
"461 364 OFFCURVE",
"496 364 CURVE SMOOTH",
"541 364 OFFCURVE",
"570 338 OFFCURVE"
);
}
);
width = 755;
}
);
unicode = 0916;
},
{
glyphname = dvGA;
lastChange = "2017-01-30 15:56:24 +0000";
layers = (
{
layerId = "7872E05C-01F2-413A-9F3F-5746E4900C50";
paths = (
{
closed = 1;
nodes = (
"436 577 LINE",
"588 577 LINE",
"556 625 LINE",
"-52 625 LINE",
"-20 577 LINE",
"130 577 LINE",
"130 334 LINE",
"103 334 OFFCURVE",
"64 333 OFFCURVE",
"64 309 CURVE SMOOTH",
"64 270 OFFCURVE",
"126 198 OFFCURVE",
"163 198 CURVE SMOOTH",
"183 198 OFFCURVE",
"186 218 OFFCURVE",
"186 246 CURVE SMOOTH",
"186 577 LINE",
"380 577 LINE",
"380 -5 LINE",
"436 -50 LINE"
);
}
);
width = 536;
},
{
layerId = "20CB0FE4-6866-45E2-B7C3-9D16484A9962";
paths = (
{
closed = 1;
nodes = (
"446 531 LINE",
"614 531 LINE",
"536 635 LINE",
"-96 635 LINE",
"-20 531 LINE",
"89 531 LINE",
"89 364 LINE",
"42 364 OFFCURVE",
"21 351 OFFCURVE",
"21 322 CURVE SMOOTH",
"21 265 OFFCURVE",
"119 170 OFFCURVE",
"174 170 CURVE SMOOTH",
"201 170 OFFCURVE",
"214 185 OFFCURVE",
"214 248 CURVE SMOOTH",
"214 531 LINE",
"316 531 LINE",
"316 39 LINE",
"446 -40 LINE"
);
}
);
width = 516;
}
);
unicode = 0917;
},
{
glyphname = dvGHA;
lastChange = "2017-01-30 15:56:24 +0000";
layers = (
{
layerId = "7872E05C-01F2-413A-9F3F-5746E4900C50";
paths = (
{
closed = 1;
nodes = (
"522 -50 LINE",
"522 577 LINE",
"674 577 LINE",
"642 625 LINE",
"-52 625 LINE",
"-20 577 LINE",
"42 577 LINE",
"126 579 LINE",
"88 558 OFFCURVE",
"70 516 OFFCURVE",
"70 484 CURVE SMOOTH",
"70 442 OFFCURVE",
"93 389 OFFCURVE",
"147 357 CURVE",
"103 340 OFFCURVE",
"71 310 OFFCURVE",
"71 258 CURVE SMOOTH",
"71 154 OFFCURVE",
"190 63 OFFCURVE",
"306 63 CURVE SMOOTH",
"361 63 OFFCURVE",
"422 97 OFFCURVE",
"470 157 CURVE",
"466 -9 LINE"
);
},
{
closed = 1;
nodes = (
"312 368 LINE",
"292 371 OFFCURVE",
"271 373 OFFCURVE",
"249 373 CURVE SMOOTH",
"226 373 OFFCURVE",
"203 371 OFFCURVE",
"181 366 CURVE",
"146 395 OFFCURVE",
"120 428 OFFCURVE",
"120 466 CURVE SMOOTH",
"120 525 OFFCURVE",
"167 566 OFFCURVE",
"210 577 CURVE",
"466 577 LINE",
"466 231 LINE",
"434 182 OFFCURVE",
"368 110 OFFCURVE",
"273 110 CURVE SMOOTH",
"199 110 OFFCURVE",
"121 161 OFFCURVE",
"121 232 CURVE SMOOTH",
"121 307 OFFCURVE",
"193 323 OFFCURVE",
"257 323 CURVE SMOOTH",
"286 323 OFFCURVE",
"312 320 OFFCURVE",
"330 317 CURVE"
);
}
);
width = 622;
},
{
layerId = "20CB0FE4-6866-45E2-B7C3-9D16484A9962";
paths = (
{
closed = 1;
nodes = (
"535 -40 LINE",
"535 531 LINE",
"696 531 LINE",
"625 635 LINE",
"-92 635 LINE",
"-20 531 LINE",
"20 531 LINE",
"27 531 OFFCURVE",
"49 533 OFFCURVE",
"57 533 CURVE",
"52 522 OFFCURVE",
"47 505 OFFCURVE",
"47 487 CURVE SMOOTH",
"47 445 OFFCURVE",
"84 412 OFFCURVE",
"114 390 CURVE",
"76 369 OFFCURVE",
"54 334 OFFCURVE",
"54 292 CURVE SMOOTH",
"54 186 OFFCURVE",
"178 72 OFFCURVE",
"298 72 CURVE SMOOTH",
"340 72 OFFCURVE",
"377 88 OFFCURVE",
"411 113 CURVE",
"405 36 LINE"
);
},
{
closed = 1;
nodes = (
"308 406 LINE",
"289 412 OFFCURVE",
"261 417 OFFCURVE",
"238 417 CURVE SMOOTH",
"221 417 OFFCURVE",
"205 415 OFFCURVE",
"189 412 CURVE",
"177 424 OFFCURVE",
"170 442 OFFCURVE",
"170 461 CURVE SMOOTH",
"170 485 OFFCURVE",
"188 521 OFFCURVE",
"215 531 CURVE",
"405 531 LINE",
"405 285 LINE",
"372 238 OFFCURVE",
"312 181 OFFCURVE",
"239 181 CURVE SMOOTH",
"194 181 OFFCURVE",
"168 207 OFFCURVE",
"168 240 CURVE SMOOTH",
"168 288 OFFCURVE",
"221 299 OFFCURVE",
"264 299 CURVE SMOOTH",
"293 299 OFFCURVE",
"324 292 OFFCURVE",
"344 285 CURVE"
);
}
);
width = 605;
}
);
unicode = 0918;
},
{
glyphname = dvNGA;
lastChange = "2017-01-30 15:56:24 +0000";
layers = (
{
anchors = (
{
name = abvm;
position = "{429, 625}";
},
{
name = blwm.u;
position = "{364, -129}";
},
{
name = blwm.virama;
position = "{350, -37}";
}
);
layerId = "7872E05C-01F2-413A-9F3F-5746E4900C50";
paths = (
{
closed = 1;
nodes = (
"52 125 LINE",
"113 35 OFFCURVE",
"203 -27 OFFCURVE",
"291 -27 CURVE SMOOTH",
"412 -27 OFFCURVE",
"479 52 OFFCURVE",
"479 126 CURVE SMOOTH",
"479 182 OFFCURVE",
"427 265 OFFCURVE",
"356 265 CURVE SMOOTH",
"314 265 OFFCURVE",
"245 223 OFFCURVE",
"202 223 CURVE SMOOTH",
"159 223 OFFCURVE",
"126 264 OFFCURVE",
"126 312 CURVE SMOOTH",
"126 374 OFFCURVE",
"163 403 OFFCURVE",
"225 403 CURVE SMOOTH",
"429 403 LINE",
"429 577 LINE",
"642 577 LINE",
"611 625 LINE",
"-53 625 LINE",
"-20 577 LINE",
"373 577 LINE",
"373 455 LINE",
"210 455 LINE SMOOTH",
"131 455 OFFCURVE",
"85 403 OFFCURVE",
"85 339 CURVE SMOOTH",
"85 247 OFFCURVE",
"162 176 OFFCURVE",
"220 176 CURVE SMOOTH",
"274 176 OFFCURVE",
"333 217 OFFCURVE",
"368 217 CURVE SMOOTH",
"418 217 OFFCURVE",
"438 180 OFFCURVE",
"438 147 CURVE SMOOTH",
"438 80 OFFCURVE",
"371 18 OFFCURVE",
"270 18 CURVE SMOOTH",
"200 18 OFFCURVE",
"128 71 OFFCURVE",
"77 147 CURVE"
);
},
{
closed = 1;
nodes = (
"481 306 LINE",
"527 259 LINE",
"575 306 LINE",
"527 352 LINE"
);
}
);
width = 591;
},
{
anchors = (
{
name = abvm;
position = "{445, 635}";
},
{
name = blwm.u;
position = "{397, -178}";
},
{
name = blwm.virama;
position = "{397, -78}";
}
);
layerId = "20CB0FE4-6866-45E2-B7C3-9D16484A9962";
paths = (
{
closed = 1;
nodes = (
"33 140 LINE",
"88 34 OFFCURVE",
"194 -50 OFFCURVE",
"305 -50 CURVE SMOOTH",
"418 -50 OFFCURVE",
"501 30 OFFCURVE",
"501 107 CURVE SMOOTH",
"501 175 OFFCURVE",
"427 294 OFFCURVE",
"349 294 CURVE SMOOTH",
"300 294 OFFCURVE",
"258 257 OFFCURVE",
"210 257 CURVE SMOOTH",
"185 257 OFFCURVE",
"174 276 OFFCURVE",
"174 299 CURVE SMOOTH",
"174 328 OFFCURVE",
"193 345 OFFCURVE",
"235 345 CURVE SMOOTH",
"445 345 LINE",
"445 531 LINE",
"719 531 LINE",
"647 635 LINE",
"-92 635 LINE",
"-20 531 LINE",
"322 531 LINE",
"322 465 LINE",
"205 465 LINE SMOOTH",
"119 465 OFFCURVE",
"74 423 OFFCURVE",
"74 350 CURVE SMOOTH",
"74 257 OFFCURVE",
"177 141 OFFCURVE",
"259 141 CURVE SMOOTH",
"308 141 OFFCURVE",
"354 178 OFFCURVE",
"387 178 CURVE SMOOTH",
"400 178 OFFCURVE",
"406 170 OFFCURVE",
"406 159 CURVE SMOOTH",
"406 111 OFFCURVE",
"346 63 OFFCURVE",
"270 63 CURVE SMOOTH",
"193 63 OFFCURVE",
"134 129 OFFCURVE",
"99 184 CURVE"
);
},
{
closed = 1;
nodes = (
"470 287 LINE",
"564 196 LINE",
"655 287 LINE",
"561 380 LINE"
);
}
);
width = 627;
}
);
unicode = 0919;
},
{
glyphname = dvCA;
lastChange = "2017-01-30 15:56:24 +0000";
layers = (
{
layerId = "7872E05C-01F2-413A-9F3F-5746E4900C50";
paths = (
{
closed = 1;
nodes = (
"527 -9 LINE",
"583 -50 LINE",
"583 577 LINE",
"735 577 LINE",
"703 625 LINE",
"-52 625 LINE",
"-20 577 LINE",
"527 577 LINE",
"527 259 LINE",
"478 180 OFFCURVE",
"410 123 OFFCURVE",
"324 123 CURVE SMOOTH",
"256 123 OFFCURVE",
"195 178 OFFCURVE",
"195 242 CURVE SMOOTH",
"195 321 OFFCURVE",
"261 363 OFFCURVE",
"336 375 CURVE",
"437 375 LINE",
"404 425 LINE",
"9 425 LINE",
"42 375 LINE",
"219 377 LINE",
"178 361 OFFCURVE",
"143 312 OFFCURVE",
"143 269 CURVE SMOOTH",
"143 167 OFFCURVE",
"259 75 OFFCURVE",
"351 75 CURVE SMOOTH",
"433 75 OFFCURVE",
"484 120 OFFCURVE",
"531 180 CURVE"
);
}
);
width = 683;
},
{
layerId = "20CB0FE4-6866-45E2-B7C3-9D16484A9962";
paths = (
{
closed = 1;
nodes = (
"473 37 LINE",
"603 -40 LINE",
"603 531 LINE",
"756 531 LINE",
"693 635 LINE",
"-84 635 LINE",
"-20 531 LINE",
"474 531 LINE",
"474 323 LINE",
"428 242 OFFCURVE",
"363 189 OFFCURVE",
"297 189 CURVE SMOOTH",
"262 189 OFFCURVE",
"231 204 OFFCURVE",
"231 247 CURVE SMOOTH",
"231 291 OFFCURVE",
"273 333 OFFCURVE",
"341 343 CURVE",
"434 343 LINE",
"362 448 LINE",
"-14 448 LINE",
"58 342 LINE",
"144 347 LINE",
"129 332 OFFCURVE",
"120 311 OFFCURVE",
"120 290 CURVE SMOOTH",
"120 186 OFFCURVE",
"247 77 OFFCURVE",
"337 77 CURVE SMOOTH",
"397 77 OFFCURVE",
"445 105 OFFCURVE",
"478 136 CURVE"
);
}
);
width = 673;
}
);
unicode = 091A;
},
{
glyphname = dvCHA;
lastChange = "2017-01-30 15:56:24 +0000";
layers = (
{
anchors = (
{
name = abvm;
position = "{537, 625}";
},
{
name = blwm.u;
position = "{417, -104}";
},
{
name = blwm.virama;
position = "{364, -13}";
}
);
layerId = "7872E05C-01F2-413A-9F3F-5746E4900C50";
paths = (
{
closed = 1;
nodes = (
"300 287 LINE",
"285 290 OFFCURVE",
"267 291 OFFCURVE",
"248 291 CURVE SMOOTH",
"224 291 OFFCURVE",
"199 288 OFFCURVE",
"175 282 CURVE",
"148 303 OFFCURVE",
"116 333 OFFCURVE",
"116 368 CURVE SMOOTH",
"116 432 OFFCURVE",
"170 451 OFFCURVE",
"237 451 CURVE SMOOTH",
"260 451 OFFCURVE",
"285 449 OFFCURVE",
"310 445 CURVE",
"292 496 LINE",
"268 501 OFFCURVE",
"243 504 OFFCURVE",
"218 504 CURVE SMOOTH",
"136 504 OFFCURVE",
"61 472 OFFCURVE",
"61 392 CURVE SMOOTH",
"61 338 OFFCURVE",
"104 296 OFFCURVE",
"140 270 CURVE",
"110 255 OFFCURVE",
"89 230 OFFCURVE",
"89 192 CURVE SMOOTH",
"89 85 OFFCURVE",
"193 6 OFFCURVE",
"318 6 CURVE SMOOTH",
"394 6 OFFCURVE",
"473 42 OFFCURVE",
"533 99 CURVE",
"573 67 OFFCURVE",
"622 32 OFFCURVE",
"657 8 CURVE",
"686 42 LINE",
"648 65 OFFCURVE",
"603 92 OFFCURVE",
"558 125 CURVE",
"603 177 OFFCURVE",
"632 242 OFFCURVE",
"632 312 CURVE SMOOTH",
"632 377 OFFCURVE",
"603 457 OFFCURVE",
"537 480 CURVE",
"537 577 LINE",
"747 577 LINE",
"715 625 LINE",
"-52 625 LINE",
"-20 577 LINE",
"481 577 LINE",
"481 485 LINE",
"409 476 OFFCURVE",
"372 408 OFFCURVE",
"372 339 CURVE SMOOTH",
"372 250 OFFCURVE",
"424 190 OFFCURVE",
"492 133 CURVE",
"437 82 OFFCURVE",
"365 50 OFFCURVE",
"289 50 CURVE SMOOTH",
"195 50 OFFCURVE",
"142 100 OFFCURVE",
"142 158 CURVE SMOOTH",
"142 227 OFFCURVE",
"201 241 OFFCURVE",
"253 241 CURVE SMOOTH",
"280 241 OFFCURVE",
"306 237 OFFCURVE",
"319 235 CURVE"
);
},
{
closed = 1;
nodes = (
"418 314 CURVE SMOOTH",
"418 378 OFFCURVE",
"454 446 OFFCURVE",
"519 446 CURVE SMOOTH",
"572 446 OFFCURVE",
"589 392 OFFCURVE",
"589 339 CURVE SMOOTH",
"589 272 OFFCURVE",
"561 208 OFFCURVE",
"516 157 CURVE",
"467 196 OFFCURVE",
"418 244 OFFCURVE"
);
}
);
width = 695;
},
{
anchors = (
{
name = abvm;
position = "{545, 635}";
},
{
name = blwm.u;
position = "{444, -160}";
},
{
name = blwm.virama;
position = "{444, -65}";
}
);
layerId = "20CB0FE4-6866-45E2-B7C3-9D16484A9962";
paths = (
{
closed = 1;
nodes = (
"300 295 LINE",
"274 302 OFFCURVE",
"242 305 OFFCURVE",
"219 305 CURVE SMOOTH",
"202 305 OFFCURVE",
"188 303 OFFCURVE",
"174 301 CURVE",
"161 311 OFFCURVE",
"155 322 OFFCURVE",
"155 335 CURVE SMOOTH",
"155 363 OFFCURVE",
"186 377 OFFCURVE",
"234 377 CURVE SMOOTH",
"257 377 OFFCURVE",
"285 373 OFFCURVE",
"315 367 CURVE",
"275 481 LINE",
"242 488 OFFCURVE",
"211 492 OFFCURVE",
"187 492 CURVE SMOOTH",
"89 492 OFFCURVE",
"39 447 OFFCURVE",
"39 376 CURVE SMOOTH",
"39 338 OFFCURVE",
"68 299 OFFCURVE",
"101 268 CURVE",
"81 248 OFFCURVE",
"70 221 OFFCURVE",
"70 189 CURVE SMOOTH",
"70 70 OFFCURVE",
"208 -29 OFFCURVE",
"337 -29 CURVE SMOOTH",
"422 -29 OFFCURVE",
"498 6 OFFCURVE",
"554 63 CURVE",
"660 -20 LINE",
"719 49 LINE",
"604 129 LINE",
"627 172 OFFCURVE",
"641 220 OFFCURVE",
"641 271 CURVE SMOOTH",
"641 343 OFFCURVE",
"600 417 OFFCURVE",
"545 457 CURVE",
"545 531 LINE",
"803 531 LINE",
"731 635 LINE",
"-92 635 LINE",
"-20 531 LINE",
"419 531 LINE",
"419 475 LINE",
"377 456 OFFCURVE",
"343 411 OFFCURVE",
"343 351 CURVE SMOOTH",
"343 270 OFFCURVE",
"405 190 OFFCURVE",
"452 146 CURVE",
"408 104 OFFCURVE",
"348 78 OFFCURVE",
"280 78 CURVE SMOOTH",
"232 78 OFFCURVE",
"183 91 OFFCURVE",
"183 135 CURVE SMOOTH",
"183 178 OFFCURVE",
"236 190 OFFCURVE",
"266 190 CURVE SMOOTH",
"297 190 OFFCURVE",
"326 184 OFFCURVE",
"347 179 CURVE"
);
},
{
closed = 1;
nodes = (
"457 293 CURVE SMOOTH",
"457 339 OFFCURVE",
"479 380 OFFCURVE",
"513 380 CURVE SMOOTH",
"537 380 OFFCURVE",
"544 354 OFFCURVE",
"544 337 CURVE SMOOTH",
"544 276 OFFCURVE",
"513 215 OFFCURVE",
"504 206 CURVE",
"476 230 OFFCURVE",
"457 262 OFFCURVE"
);
}
);
width = 711;
}
);
unicode = 091B;
},
{
glyphname = dvJA;
lastChange = "2017-01-30 15:56:24 +0000";
layers = (
{
layerId = "7872E05C-01F2-413A-9F3F-5746E4900C50";
paths = (
{
closed = 1;
nodes = (
"625 -50 LINE",
"625 577 LINE",
"777 577 LINE",
"745 625 LINE",
"-52 625 LINE",
"-20 577 LINE",
"569 577 LINE",
"569 394 LINE",
"252 394 LINE",
"248 388 LINE",
"295 341 OFFCURVE",
"374 277 OFFCURVE",
"374 199 CURVE SMOOTH",
"374 137 OFFCURVE",
"335 101 OFFCURVE",
"275 101 CURVE SMOOTH",
"162 101 OFFCURVE",
"105 286 OFFCURVE",
"73 380 CURVE",
"41 361 LINE",
"80 246 OFFCURVE",
"148 56 OFFCURVE",
"297 56 CURVE SMOOTH",
"374 56 OFFCURVE",
"417 113 OFFCURVE",
"417 177 CURVE SMOOTH",
"417 239 OFFCURVE",
"387 298 OFFCURVE",
"334 344 CURVE",
"569 344 LINE",
"569 -9 LINE"
);
}
);
width = 725;
},
{
layerId = "20CB0FE4-6866-45E2-B7C3-9D16484A9962";
paths = (
{
closed = 1;
nodes = (
"625 -40 LINE",
"625 531 LINE",
"788 531 LINE",
"716 635 LINE",
"-92 635 LINE",
"-20 531 LINE",
"495 531 LINE",
"495 436 LINE",
"216 436 LINE",
"201 412 LINE",
"272 344 OFFCURVE",
"300 285 OFFCURVE",
"300 249 CURVE SMOOTH",
"300 211 OFFCURVE",
"280 192 OFFCURVE",
"244 192 CURVE SMOOTH",
"167 192 OFFCURVE",
"115 307 OFFCURVE",
"77 436 CURVE",
"9 397 LINE",
"64 237 OFFCURVE",
"145 67 OFFCURVE",
"279 67 CURVE SMOOTH",
"364 67 OFFCURVE",
"410 117 OFFCURVE",
"410 194 CURVE SMOOTH",
"410 237 OFFCURVE",
"393 286 OFFCURVE",
"356 321 CURVE",
"495 321 LINE",
"495 37 LINE"
);
}
);
width = 696;
}
);
unicode = 091C;
},
{
glyphname = dvJHA;
lastChange = "2017-01-30 15:56:24 +0000";
layers = (
{
layerId = "7872E05C-01F2-413A-9F3F-5746E4900C50";
paths = (
{
closed = 1;
nodes = (
"649 -50 LINE",
"649 577 LINE",
"800 577 LINE",
"769 625 LINE",
"-53 625 LINE",
"-20 577 LINE",
"358 577 LINE",
"358 471 LINE",
"198 471 LINE SMOOTH",
"126 471 OFFCURVE",
"69 424 OFFCURVE",
"69 360 CURVE SMOOTH",
"69 272 OFFCURVE",
"147 197 OFFCURVE",
"205 197 CURVE SMOOTH",
"256 197 OFFCURVE",
"313 234 OFFCURVE",
"354 234 CURVE SMOOTH",
"392 234 OFFCURVE",
"423 206 OFFCURVE",
"423 166 CURVE SMOOTH",
"423 76 OFFCURVE",
"294 33 OFFCURVE",
"212 39 CURVE",
"172 92 OFFCURVE",
"134 141 OFFCURVE",
"111 141 CURVE SMOOTH",
"88 141 OFFCURVE",
"67 129 OFFCURVE",
"67 112 CURVE SMOOTH",
"67 68 OFFCURVE",
"132 19 OFFCURVE",
"198 0 CURVE",
"359 -187 LINE",
"396 -161 LINE",
"246 -8 LINE",
"328 -8 OFFCURVE",
"465 47 OFFCURVE",
"465 148 CURVE SMOOTH",
"465 173 OFFCURVE",
"452 205 OFFCURVE",
"430 231 CURVE",
"454 224 OFFCURVE",
"478 220 OFFCURVE",
"501 220 CURVE SMOOTH",
"540 220 OFFCURVE",
"570 232 OFFCURVE",
"597 256 CURVE",
"594 -9 LINE"
);
},
{
closed = 1;
nodes = (
"593 320 LINE",
"555 270 OFFCURVE",
"514 259 OFFCURVE",
"469 259 CURVE SMOOTH",
"421 259 OFFCURVE",
"373 282 OFFCURVE",
"335 282 CURVE SMOOTH",
"300 282 OFFCURVE",
"234 244 OFFCURVE",
"187 244 CURVE SMOOTH",
"142 244 OFFCURVE",
"110 281 OFFCURVE",
"110 333 CURVE SMOOTH",
"110 395 OFFCURVE",
"165 419 OFFCURVE",
"213 419 CURVE SMOOTH",
"414 419 LINE",
"414 577 LINE",
"593 577 LINE"
);
}
);
width = 749;
},
{
layerId = "20CB0FE4-6866-45E2-B7C3-9D16484A9962";
paths = (
{
closed = 1;
nodes = (
"681 -40 LINE",
"681 531 LINE",
"843 531 LINE",
"771 635 LINE",
"-92 635 LINE",
"-20 531 LINE",
"302 531 LINE",
"302 472 LINE",
"178 472 LINE",
"97 472 OFFCURVE",
"50 441 OFFCURVE",
"50 369 CURVE SMOOTH",
"50 283 OFFCURVE",
"162 167 OFFCURVE",
"235 167 CURVE SMOOTH",
"284 167 OFFCURVE",
"321 206 OFFCURVE",
"363 206 CURVE SMOOTH",
"380 206 OFFCURVE",
"385 195 OFFCURVE",
"385 187 CURVE SMOOTH",
"385 134 OFFCURVE",
"307 94 OFFCURVE",
"230 90 CURVE",
"194 137 OFFCURVE",
"153 181 OFFCURVE",
"123 181 CURVE SMOOTH",
"87 181 OFFCURVE",
"51 151 OFFCURVE",
"51 115 CURVE SMOOTH",
"51 60 OFFCURVE",
"144 -8 OFFCURVE",
"218 -23 CURVE",
"346 -199 LINE",
"429 -145 LINE",
"313 -19 LINE",
"403 6 OFFCURVE",
"475 70 OFFCURVE",
"475 140 CURVE SMOOTH",
"475 160 OFFCURVE",
"467 192 OFFCURVE",
"451 217 CURVE",
"463 214 OFFCURVE",
"500 207 OFFCURVE",
"514 207 CURVE SMOOTH",
"530 207 OFFCURVE",
"544 209 OFFCURVE",
"558 215 CURVE",
"551 37 LINE"
);
},
{
closed = 1;
nodes = (
"552 351 LINE",
"529 319 OFFCURVE",
"500 302 OFFCURVE",
"471 302 CURVE SMOOTH",
"379 302 OFFCURVE",
"359 316 OFFCURVE",
"310 316 CURVE SMOOTH",
"262 316 OFFCURVE",
"226 279 OFFCURVE",
"180 279 CURVE SMOOTH",
"158 279 OFFCURVE",
"149 296 OFFCURVE",
"149 312 CURVE SMOOTH",
"149 342 OFFCURVE",
"175 360 OFFCURVE",
"211 360 CURVE",
"428 360 LINE",
"428 531 LINE",
"552 531 LINE"
);
}
);
width = 751;
}
);
unicode = 091D;
},
{
glyphname = dvNYA;
lastChange = "2017-01-30 15:56:24 +0000";
layers = (
{
layerId = "7872E05C-01F2-413A-9F3F-5746E4900C50";
paths = (
{
closed = 1;
nodes = (
"18 315 LINE",
"78 230 OFFCURVE",
"165 109 OFFCURVE",
"282 109 CURVE SMOOTH",
"366 109 OFFCURVE",
"436 159 OFFCURVE",
"453 262 CURVE",
"476 244 OFFCURVE",
"498 237 OFFCURVE",
"520 237 CURVE SMOOTH",
"544 237 OFFCURVE",
"568 248 OFFCURVE",
"594 269 CURVE",
"590 8 LINE",
"646 -50 LINE",
"646 577 LINE",
"798 577 LINE",
"766 625 LINE",
"-53 625 LINE",
"-20 577 LINE",
"590 577 LINE",
"590 342 LINE",
"567 309 OFFCURVE",
"535 286 OFFCURVE",
"498 286 CURVE SMOOTH",
"482 286 OFFCURVE",
"468 292 OFFCURVE",
"451 301 CURVE",
"425 371 OFFCURVE",
"374 453 OFFCURVE",
"269 453 CURVE SMOOTH",
"236 453 OFFCURVE",
"192 438 OFFCURVE",
"154 402 CURVE",
"190 363 LINE",
"206 381 OFFCURVE",
"248 406 OFFCURVE",
"288 406 CURVE SMOOTH",
"366 406 OFFCURVE",
"407 354 OFFCURVE",
"407 296 CURVE SMOOTH",
"407 202 OFFCURVE",
"342 153 OFFCURVE",
"256 153 CURVE SMOOTH",
"158 153 OFFCURVE",
"65 301 OFFCURVE",
"41 336 CURVE"
);
}
);
width = 746;
},
{
layerId = "20CB0FE4-6866-45E2-B7C3-9D16484A9962";
paths = (
{
closed = 1;
nodes = (
"8 313 LINE",
"93 197 OFFCURVE",
"206 68 OFFCURVE",
"333 68 CURVE SMOOTH",
"420 68 OFFCURVE",
"509 136 OFFCURVE",
"492 238 CURVE",
"510 228 OFFCURVE",
"525 223 OFFCURVE",
"541 223 CURVE SMOOTH",
"550 223 OFFCURVE",
"560 224 OFFCURVE",
"572 228 CURVE",
"563 37 LINE",
"693 -40 LINE",
"693 531 LINE",
"855 531 LINE",
"783 635 LINE",
"-92 635 LINE",
"-20 531 LINE",
"564 531 LINE",
"564 363 LINE",
"547 339 OFFCURVE",
"526 327 OFFCURVE",
"498 327 CURVE SMOOTH",
"491 327 OFFCURVE",
"478 327 OFFCURVE",
"470 332 CURVE",
"410 441 OFFCURVE",
"338 490 OFFCURVE",
"272 490 CURVE SMOOTH",
"231 490 OFFCURVE",
"184 463 OFFCURVE",
"138 413 CURVE",
"236 307 LINE",
"260 340 OFFCURVE",
"294 368 OFFCURVE",
"328 368 CURVE SMOOTH",
"366 368 OFFCURVE",
"392 338 OFFCURVE",
"392 295 CURVE SMOOTH",
"392 228 OFFCURVE",
"354 187 OFFCURVE",
"285 187 CURVE SMOOTH",
"204 187 OFFCURVE",
"143 262 OFFCURVE",
"68 367 CURVE"
);
}
);
width = 763;
}
);
unicode = 091E;
},
{
glyphname = dvTTA;
lastChange = "2017-01-30 15:56:24 +0000";
layers = (
{
anchors = (
{
name = abvm;
position = "{417, 625}";
},
{
name = blwm.u;
position = "{362, -97}";
},
{
name = blwm.virama;
position = "{362, -4}";
}
);
layerId = "7872E05C-01F2-413A-9F3F-5746E4900C50";
paths = (
{
closed = 1;
nodes = (
"533 625 LINE",
"-52 625 LINE",
"-20 577 LINE",
"361 577 LINE",
"361 440 LINE",
"246 440 LINE SMOOTH",
"113 440 OFFCURVE",
"58 350 OFFCURVE",
"58 260 CURVE SMOOTH",
"58 130 OFFCURVE",
"193 14 OFFCURVE",
"320 14 CURVE SMOOTH",
"391 14 OFFCURVE",
"453 52 OFFCURVE",
"478 84 CURVE",
"445 126 LINE",
"399 81 OFFCURVE",
"354 64 OFFCURVE",
"295 64 CURVE SMOOTH",
"197 64 OFFCURVE",
"108 137 OFFCURVE",
"108 230 CURVE SMOOTH",
"108 357 OFFCURVE",
"206 390 OFFCURVE",
"270 390 CURVE SMOOTH",
"417 390 LINE",
"417 577 LINE",
"565 577 LINE"
);
}
);
width = 513;
},
{
anchors = (
{
name = abvm;
position = "{431, 635}";
},
{
name = blwm.u;
position = "{409, -135}";
},
{
name = blwm.virama;
position = "{409, -36}";
}
);
layerId = "20CB0FE4-6866-45E2-B7C3-9D16484A9962";
paths = (
{
closed = 1;
nodes = (
"540 635 LINE",
"-88 635 LINE",
"-20 531 LINE",
"301 531 LINE",
"301 442 LINE",
"227 442 LINE SMOOTH",
"136 442 OFFCURVE",
"53 387 OFFCURVE",
"53 275 CURVE SMOOTH",
"53 141 OFFCURVE",
"201 -5 OFFCURVE",
"328 -5 CURVE SMOOTH",
"403 -5 OFFCURVE",
"460 23 OFFCURVE",
"515 81 CURVE",
"433 191 LINE",
"385 136 OFFCURVE",
"338 116 OFFCURVE",
"277 116 CURVE SMOOTH",
"214 116 OFFCURVE",
"170 146 OFFCURVE",
"170 215 CURVE SMOOTH",
"170 285 OFFCURVE",
"215 322 OFFCURVE",
"284 322 CURVE SMOOTH",
"431 322 LINE",
"431 531 LINE",
"608 531 LINE"
);
}
);
width = 520;
}
);
unicode = 091F;
},
{
glyphname = dvTTHA;
lastChange = "2017-01-30 15:56:24 +0000";
layers = (
{
anchors = (
{
name = abvm;
position = "{412, 625}";
},
{
name = blwm.u;
position = "{365, -98}";
},
{
name = blwm.virama;
position = "{355, -9}";
}
);
layerId = "7872E05C-01F2-413A-9F3F-5746E4900C50";
paths = (
{
closed = 1;
nodes = (
"594 625 LINE",
"-52 625 LINE",
"-20 577 LINE",
"356 577 LINE",
"356 440 LINE",
"242 440 LINE SMOOTH",
"118 440 OFFCURVE",
"58 360 OFFCURVE",
"58 270 CURVE SMOOTH",
"58 129 OFFCURVE",
"187 17 OFFCURVE",
"322 17 CURVE SMOOTH",
"438 17 OFFCURVE",
"519 102 OFFCURVE",
"519 212 CURVE SMOOTH",
"519 280 OFFCURVE",
"490 348 OFFCURVE",
"412 398 CURVE",
"412 577 LINE",
"626 577 LINE"
);
},
{
closed = 1;
nodes = (
"473 229 CURVE SMOOTH",
"473 123 OFFCURVE",
"393 64 OFFCURVE",
"295 64 CURVE SMOOTH",
"191 64 OFFCURVE",
"108 140 OFFCURVE",
"108 235 CURVE SMOOTH",
"108 362 OFFCURVE",
"193 390 OFFCURVE",
"284 390 CURVE SMOOTH",
"368 390 LINE",
"420 360 OFFCURVE",
"473 303 OFFCURVE"
);
}
);
width = 574;
},
{
anchors = (
{
name = abvm;
position = "{434, 635}";
},
{
name = blwm.u;
position = "{414, -148}";
},
{
name = blwm.virama;
position = "{414, -45}";
}
);
layerId = "20CB0FE4-6866-45E2-B7C3-9D16484A9962";
paths = (
{
closed = 1;
nodes = (
"610 635 LINE",
"-88 635 LINE",
"-20 531 LINE",
"304 531 LINE",
"304 440 LINE",
"230 440 LINE SMOOTH",
"124 440 OFFCURVE",
"56 385 OFFCURVE",
"56 274 CURVE SMOOTH",
"56 118 OFFCURVE",
"210 -11 OFFCURVE",
"355 -11 CURVE SMOOTH",
"491 -11 OFFCURVE",
"560 64 OFFCURVE",
"560 172 CURVE SMOOTH",
"560 261 OFFCURVE",
"498 335 OFFCURVE",
"434 374 CURVE",
"434 531 LINE",
"678 531 LINE"
);
},
{
closed = 1;
nodes = (
"445 213 CURVE SMOOTH",
"445 150 OFFCURVE",
"400 90 OFFCURVE",
"310 90 CURVE SMOOTH",
"237 90 OFFCURVE",
"171 140 OFFCURVE",
"171 210 CURVE SMOOTH",
"171 282 OFFCURVE",
"220 322 OFFCURVE",
"276 322 CURVE SMOOTH",
"375 322 LINE",
"414 302 OFFCURVE",
"445 267 OFFCURVE"
);
}
);
width = 590;
}
);
unicode = 0920;
},
{
glyphname = dvDDA;
lastChange = "2017-01-30 15:56:24 +0000";
layers = (
{
anchors = (
{
name = abvm;
position = "{429, 625}";
},
{
name = blwm.u;
position = "{364, -129}";
},
{
name = blwm.virama;
position = "{350, -41}";
}
);
layerId = "7872E05C-01F2-413A-9F3F-5746E4900C50";
paths = (
{
closed = 1;
nodes = (
"52 125 LINE",
"113 35 OFFCURVE",
"203 -27 OFFCURVE",
"291 -27 CURVE SMOOTH",
"412 -27 OFFCURVE",
"479 52 OFFCURVE",
"479 126 CURVE SMOOTH",
"479 182 OFFCURVE",
"427 265 OFFCURVE",
"356 265 CURVE SMOOTH",
"314 265 OFFCURVE",
"245 223 OFFCURVE",
"202 223 CURVE SMOOTH",
"159 223 OFFCURVE",
"126 264 OFFCURVE",
"126 312 CURVE SMOOTH",
"126 374 OFFCURVE",
"163 403 OFFCURVE",
"225 403 CURVE SMOOTH",
"429 403 LINE",
"429 577 LINE",
"577 577 LINE",
"546 625 LINE",
"-53 625 LINE",
"-20 577 LINE",
"373 577 LINE",
"373 455 LINE",
"210 455 LINE SMOOTH",
"131 455 OFFCURVE",
"85 403 OFFCURVE",
"85 339 CURVE SMOOTH",
"85 247 OFFCURVE",
"162 176 OFFCURVE",
"220 176 CURVE SMOOTH",
"274 176 OFFCURVE",
"333 217 OFFCURVE",
"368 217 CURVE SMOOTH",
"418 217 OFFCURVE",
"438 180 OFFCURVE",
"438 147 CURVE SMOOTH",
"438 80 OFFCURVE",
"371 18 OFFCURVE",
"270 18 CURVE SMOOTH",
"200 18 OFFCURVE",
"128 71 OFFCURVE",
"77 147 CURVE"
);
}
);
width = 526;
},
{
anchors = (
{
name = abvm;
position = "{439, 635}";
},
{
name = blwm.u;
position = "{389, -171}";
},
{
name = blwm.virama;
position = "{389, -71}";
}
);
layerId = "20CB0FE4-6866-45E2-B7C3-9D16484A9962";
paths = (
{
closed = 1;
nodes = (
"27 140 LINE",
"82 34 OFFCURVE",
"186 -43 OFFCURVE",
"297 -43 CURVE SMOOTH",
"410 -43 OFFCURVE",
"493 37 OFFCURVE",
"493 114 CURVE SMOOTH",
"493 182 OFFCURVE",
"424 289 OFFCURVE",
"346 289 CURVE SMOOTH",
"297 289 OFFCURVE",
"255 252 OFFCURVE",
"207 252 CURVE SMOOTH",
"182 252 OFFCURVE",
"168 276 OFFCURVE",
"168 299 CURVE SMOOTH",
"168 328 OFFCURVE",
"187 345 OFFCURVE",
"229 345 CURVE SMOOTH",
"439 345 LINE",
"439 531 LINE",
"615 531 LINE",
"543 635 LINE",
"-88 635 LINE",
"-16 531 LINE",
"316 531 LINE",
"316 455 LINE",
"199 455 LINE SMOOTH",
"113 455 OFFCURVE",
"68 423 OFFCURVE",
"68 350 CURVE SMOOTH",
"68 257 OFFCURVE",
"171 141 OFFCURVE",
"253 141 CURVE SMOOTH",
"302 141 OFFCURVE",
"348 178 OFFCURVE",
"381 178 CURVE SMOOTH",
"394 178 OFFCURVE",
"400 170 OFFCURVE",
"400 159 CURVE SMOOTH",
"400 111 OFFCURVE",
"340 63 OFFCURVE",
"264 63 CURVE SMOOTH",
"187 63 OFFCURVE",
"128 129 OFFCURVE",
"93 184 CURVE"
);
}
);
width = 523;
}
);
unicode = 0921;
},
{
glyphname = dvDDHA;
lastChange = "2017-01-30 15:56:24 +0000";
layers = (
{
anchors = (
{
name = abvm;
position = "{409, 625}";
},
{
name = blwm.u;
position = "{384, -90}";
},
{
name = blwm.virama;
position = "{377, 0}";
}
);
layerId = "7872E05C-01F2-413A-9F3F-5746E4900C50";
paths = (
{
closed = 1;
nodes = (
"544 625 LINE",
"-52 625 LINE",
"-20 577 LINE",
"353 577 LINE",
"353 443 LINE",
"239 443 LINE SMOOTH",
"115 443 OFFCURVE",
"58 363 OFFCURVE",
"58 273 CURVE SMOOTH",
"58 131 OFFCURVE",
"181 20 OFFCURVE",
"317 20 CURVE SMOOTH",
"395 20 OFFCURVE",
"488 73 OFFCURVE",
"488 149 CURVE SMOOTH",
"488 231 OFFCURVE",
"423 282 OFFCURVE",
"361 282 CURVE SMOOTH",
"291 282 OFFCURVE",
"250 228 OFFCURVE",
"250 167 CURVE",
"250 117 OFFCURVE",
"278 77 OFFCURVE",
"291 64 CURVE",
"189 65 OFFCURVE",
"105 144 OFFCURVE",
"105 238 CURVE SMOOTH",
"105 365 OFFCURVE",
"190 393 OFFCURVE",
"281 393 CURVE SMOOTH",
"409 393 LINE",
"409 577 LINE",
"576 577 LINE"
);
},
{
closed = 1;
nodes = (
"295 147 CURVE SMOOTH",
"295 198 OFFCURVE",
"326 240 OFFCURVE",
"379 240 CURVE SMOOTH",
"420 240 OFFCURVE",
"444 214 OFFCURVE",
"444 176 CURVE SMOOTH",
"444 110 OFFCURVE",
"385 75 OFFCURVE",
"326 66 CURVE",
"307 87 OFFCURVE",
"295 117 OFFCURVE"
);
}
);
width = 524;
},
{
anchors = (
{
name = abvm;
position = "{446, 635}";
},
{
name = blwm.u;
position = "{411, -151}";
},
{
name = blwm.virama;
position = "{411, -49}";
}
);
layerId = "20CB0FE4-6866-45E2-B7C3-9D16484A9962";
paths = (
{
closed = 1;
nodes = (
"557 635 LINE",
"-60 635 LINE",
"12 531 LINE",
"316 531 LINE",
"316 446 LINE",
"222 446 LINE SMOOTH",
"112 446 OFFCURVE",
"49 374 OFFCURVE",
"49 284 CURVE SMOOTH",
"49 100 OFFCURVE",
"221 -17 OFFCURVE",
"340 -17 CURVE SMOOTH",
"443 -17 OFFCURVE",
"515 55 OFFCURVE",
"515 137 CURVE SMOOTH",
"515 220 OFFCURVE",
"426 297 OFFCURVE",
"358 297 CURVE SMOOTH",
"296 297 OFFCURVE",
"247 244 OFFCURVE",
"247 183 CURVE SMOOTH",
"247 145 OFFCURVE",
"264 114 OFFCURVE",
"285 88 CURVE",
"220 94 OFFCURVE",
"160 146 OFFCURVE",
"160 213 CURVE SMOOTH",
"160 287 OFFCURVE",
"211 330 OFFCURVE",
"281 330 CURVE SMOOTH",
"446 330 LINE",
"446 531 LINE",
"629 531 LINE"
);
},
{
closed = 1;
nodes = (
"344 128 CURVE SMOOTH",
"344 160 OFFCURVE",
"372 195 OFFCURVE",
"408 195 CURVE SMOOTH",
"421 195 OFFCURVE",
"427 189 OFFCURVE",
"427 180 CURVE SMOOTH",
"427 147 OFFCURVE",
"392 111 OFFCURVE",
"354 98 CURVE",
"347 107 OFFCURVE",
"344 118 OFFCURVE"
);
}
);
width = 537;
}
);
unicode = 0922;
},
{
glyphname = dvNNA;
lastChange = "2017-01-30 15:56:24 +0000";
layers = (
{
layerId = "7872E05C-01F2-413A-9F3F-5746E4900C50";
paths = (
{
closed = 1;
nodes = (
"738 625 LINE",
"-52 625 LINE",
"-20 577 LINE",
"73 577 LINE",
"73 373 LINE SMOOTH",
"73 326 OFFCURVE",
"89 266 OFFCURVE",
"140 221 CURVE SMOOTH",
"193 175 OFFCURVE",
"232 168 OFFCURVE",
"262 168 CURVE SMOOTH",
"335 168 OFFCURVE",
"387 224 OFFCURVE",
"387 300 CURVE SMOOTH",
"387 577 LINE",
"562 577 LINE",
"562 -9 LINE",
"618 -50 LINE",
"618 577 LINE",
"771 577 LINE"
);
},
{
closed = 1;
nodes = (
"238 213 CURVE",
"165 213 OFFCURVE",
"127 270 OFFCURVE",
"127 356 CURVE SMOOTH",
"127 577 LINE",
"333 577 LINE",
"333 330 LINE SMOOTH",
"333 248 OFFCURVE",
"303 213 OFFCURVE"
);
}
);
width = 718;
},
{
layerId = "20CB0FE4-6866-45E2-B7C3-9D16484A9962";
paths = (
{
closed = 1;
nodes = (
"775 635 LINE",
"-92 635 LINE",
"-20 531 LINE",
"57 531 LINE",
"57 351 LINE SMOOTH",
"57 291 OFFCURVE",
"103 228 OFFCURVE",
"160 183 CURVE SMOOTH",
"205 148 OFFCURVE",
"258 124 OFFCURVE",
"300 124 CURVE SMOOTH",
"391 124 OFFCURVE",
"444 181 OFFCURVE",
"444 279 CURVE SMOOTH",
"444 531 LINE",
"555 531 LINE",
"555 37 LINE",
"685 -40 LINE",
"685 531 LINE",
"847 531 LINE"
);
},
{
closed = 1;
nodes = (
"250 230 CURVE SMOOTH",
"213 230 OFFCURVE",
"186 261 OFFCURVE",
"186 309 CURVE SMOOTH",
"186 531 LINE",
"314 531 LINE",
"314 310 LINE SMOOTH",
"314 251 OFFCURVE",
"290 230 OFFCURVE"
);
}
);
width = 755;
}
);
unicode = 0923;
},
{
glyphname = dvTA;
lastChange = "2017-01-30 15:56:24 +0000";
layers = (
{
layerId = "7872E05C-01F2-413A-9F3F-5746E4900C50";
paths = (
{
closed = 1;
nodes = (
"566 625 LINE",
"-52 625 LINE",
"-20 577 LINE",
"390 577 LINE",
"390 390 LINE",
"224 390 LINE SMOOTH",
"119 390 OFFCURVE",
"60 334 OFFCURVE",
"60 248 CURVE SMOOTH",
"60 154 OFFCURVE",
"113 50 OFFCURVE",
"189 -50 CURVE",
"216 -30 LINE",
"163 41 OFFCURVE",
"107 134 OFFCURVE",
"107 218 CURVE SMOOTH",
"107 295 OFFCURVE",
"152 340 OFFCURVE",
"236 340 CURVE SMOOTH",
"390 340 LINE",
"390 -9 LINE",
"446 -50 LINE",
"446 577 LINE",
"598 577 LINE"
);
}
);
width = 546;
},
{
layerId = "20CB0FE4-6866-45E2-B7C3-9D16484A9962";
paths = (
{
closed = 1;
nodes = (
"601 635 LINE",
"-92 635 LINE",
"-20 531 LINE",
"386 531 LINE",
"386 430 LINE",
"221 430 LINE SMOOTH",
"111 430 OFFCURVE",
"56 377 OFFCURVE",
"56 281 CURVE SMOOTH",
"56 185 OFFCURVE",
"130 52 OFFCURVE",
"207 -40 CURVE",
"275 5 LINE",
"223 67 OFFCURVE",
"173 138 OFFCURVE",
"173 207 CURVE SMOOTH",
"173 263 OFFCURVE",
"202 309 OFFCURVE",
"264 309 CURVE SMOOTH",
"386 309 LINE",
"386 34 LINE",
"511 -40 LINE",
"511 531 LINE",
"673 531 LINE"
);
}
);
width = 581;
}
);
unicode = 0924;
},
{
glyphname = dvTHA;
lastChange = "2017-01-30 15:56:24 +0000";
layers = (
{
layerId = "7872E05C-01F2-413A-9F3F-5746E4900C50";
paths = (
{
closed = 1;
nodes = (
"352 492 CURVE",
"352 558 OFFCURVE",
"287 633 OFFCURVE",
"206 633 CURVE SMOOTH",
"142 633 OFFCURVE",
"97 584 OFFCURVE",
"97 537 CURVE SMOOTH",
"97 502 OFFCURVE",
"111 469 OFFCURVE",
"155 432 CURVE",
"177 451 LINE",
"156 468 OFFCURVE",
"141 494 OFFCURVE",
"141 514 CURVE SMOOTH",
"141 558 OFFCURVE",
"179 591 OFFCURVE",
"231 591 CURVE SMOOTH",
"277 591 OFFCURVE",
"309 553 OFFCURVE",
"309 515 CURVE SMOOTH",
"309 440 OFFCURVE",
"155 378 OFFCURVE",
"103 345 CURVE SMOOTH",
"86 334 OFFCURVE",
"80 323 OFFCURVE",
"80 311 CURVE SMOOTH",
"80 228 OFFCURVE",
"183 127 OFFCURVE",
"291 127 CURVE SMOOTH",
"343 127 OFFCURVE",
"419 163 OFFCURVE",
"477 231 CURVE",
"473 -9 LINE",
"529 -50 LINE",
"529 577 LINE",
"681 577 LINE",
"649 625 LINE",
"358 625 LINE",
"390 577 LINE",
"473 577 LINE",
"473 306 LINE",
"447 260 OFFCURVE",
"349 173 OFFCURVE",
"267 173 CURVE SMOOTH",
"210 173 OFFCURVE",
"134 217 OFFCURVE",
"134 278 CURVE SMOOTH",
"134 302 OFFCURVE",
"155 315 OFFCURVE",
"171 325 CURVE SMOOTH",
"230 363 OFFCURVE",
"352 419 OFFCURVE"
);
}
);
width = 629;
},
{
layerId = "20CB0FE4-6866-45E2-B7C3-9D16484A9962";
paths = (
{
closed = 1;
nodes = (
"446 436 CURVE SMOOTH",
"446 509 OFFCURVE",
"348 643 OFFCURVE",
"240 643 CURVE SMOOTH",
"180 643 OFFCURVE",
"112 602 OFFCURVE",
"112 530 CURVE SMOOTH",
"112 485 OFFCURVE",
"142 439 OFFCURVE",
"181 400 CURVE",
"240 438 LINE",
"229 449 OFFCURVE",
"216 468 OFFCURVE",
"216 488 CURVE SMOOTH",
"216 522 OFFCURVE",
"245 547 OFFCURVE",
"280 547 CURVE SMOOTH",
"305 547 OFFCURVE",
"339 526 OFFCURVE",
"339 490 CURVE SMOOTH",
"339 418 OFFCURVE",
"191 357 OFFCURVE",
"132 323 CURVE SMOOTH",
"118 315 OFFCURVE",
"114 309 OFFCURVE",
"114 293 CURVE SMOOTH",
"114 200 OFFCURVE",
"276 69 OFFCURVE",
"384 69 CURVE SMOOTH",
"433 69 OFFCURVE",
"479 88 OFFCURVE",
"516 122 CURVE",
"510 37 LINE",
"640 -40 LINE",
"640 531 LINE",
"802 531 LINE",
"730 635 LINE",
"391 635 LINE",
"463 531 LINE",
"510 531 LINE",
"510 291 LINE",
"454 230 OFFCURVE",
"390 185 OFFCURVE",
"326 185 CURVE SMOOTH",
"288 185 OFFCURVE",
"255 197 OFFCURVE",
"255 225 CURVE SMOOTH",
"255 243 OFFCURVE",
"273 253 OFFCURVE",
"287 263 CURVE",
"347 302 OFFCURVE",
"446 348 OFFCURVE"
);
}
);
width = 710;
}
);
unicode = 0925;
},
{
glyphname = dvDA;
lastChange = "2017-01-30 15:56:24 +0000";
layers = (
{
anchors = (
{
name = abvm;
position = "{413, 625}";
},
{
name = blwm.u;
position = "{392, -104}";
},
{
name = blwm.virama;
position = "{392, -6}";
}
);
layerId = "7872E05C-01F2-413A-9F3F-5746E4900C50";
paths = (
{
closed = 1;
nodes = (
"413 390 LINE",
"413 577 LINE",
"596 577 LINE",
"564 625 LINE",
"-52 625 LINE",
"-20 577 LINE",
"357 577 LINE",
"357 440 LINE",
"245 440 LINE SMOOTH",
"125 440 OFFCURVE",
"59 362 OFFCURVE",
"59 270 CURVE SMOOTH",
"59 204 OFFCURVE",
"96 137 OFFCURVE",
"146 93 CURVE SMOOTH",
"188 55 OFFCURVE",
"238 30 OFFCURVE",
"292 30 CURVE SMOOTH",
"330 30 OFFCURVE",
"367 43 OFFCURVE",
"398 61 CURVE",
"494 -70 LINE",
"530 -43 LINE",
"425 80 LINE",
"452 102 OFFCURVE",
"470 129 OFFCURVE",
"470 151 CURVE SMOOTH",
"470 184 OFFCURVE",
"435 238 OFFCURVE",
"399 238 CURVE SMOOTH",
"366 238 OFFCURVE",
"332 213 OFFCURVE",
"332 182 CURVE SMOOTH",
"332 160 OFFCURVE",
"347 132 OFFCURVE",
"364 107 CURVE",
"364 107 OFFCURVE",
"337 76 OFFCURVE",
"270 76 CURVE SMOOTH",
"192 76 OFFCURVE",
"109 153 OFFCURVE",
"109 239 CURVE SMOOTH",
"109 350 OFFCURVE",
"176 390 OFFCURVE",
"283 390 CURVE"
);
}
);
width = 544;
},
{
anchors = (
{
name = abvm;
position = "{435, 635}";
},
{
name = blwm.u;
position = "{395, -134}";
},
{
name = blwm.virama;
position = "{419, -40}";
}
);
layerId = "20CB0FE4-6866-45E2-B7C3-9D16484A9962";
paths = (
{
closed = 1;
nodes = (
"435 331 LINE",
"435 531 LINE",
"617 531 LINE",
"555 635 LINE",
"-82 635 LINE",
"-20 531 LINE",
"305 531 LINE",
"305 451 LINE",
"226 451 LINE SMOOTH",
"99 451 OFFCURVE",
"48 382 OFFCURVE",
"48 292 CURVE SMOOTH",
"48 223 OFFCURVE",
"84 154 OFFCURVE",
"137 102 CURVE SMOOTH",
"189 51 OFFCURVE",
"256 18 OFFCURVE",
"320 18 CURVE SMOOTH",
"346 18 OFFCURVE",
"372 25 OFFCURVE",
"395 36 CURVE",
"481 -97 LINE",
"556 -47 LINE",
"453 76 LINE",
"479 102 OFFCURVE",
"495 132 OFFCURVE",
"495 155 CURVE SMOOTH",
"495 194 OFFCURVE",
"439 277 OFFCURVE",
"393 277 CURVE SMOOTH",
"347 277 OFFCURVE",
"308 241 OFFCURVE",
"308 202 CURVE SMOOTH",
"308 179 OFFCURVE",
"313 164 OFFCURVE",
"324 146 CURVE",
"324 146 OFFCURVE",
"301 129 OFFCURVE",
"272 129 CURVE SMOOTH",
"205 129 OFFCURVE",
"161 172 OFFCURVE",
"161 239 CURVE SMOOTH",
"161 299 OFFCURVE",
"196 331 OFFCURVE",
"276 331 CURVE SMOOTH"
);
}
);
width = 535;
}
);
unicode = 0926;
},
{
glyphname = dvNA;
lastChange = "2017-01-30 15:56:24 +0000";
layers = (
{
layerId = "7872E05C-01F2-413A-9F3F-5746E4900C50";
paths = (
{
closed = 1;
nodes = (
"436 -50 LINE",
"436 577 LINE",
"589 577 LINE",
"556 625 LINE",
"-52 625 LINE",
"-20 577 LINE",
"380 577 LINE",
"380 355 LINE",
"98 355 LINE SMOOTH",
"70 355 OFFCURVE",
"51 345 OFFCURVE",
"51 320 CURVE SMOOTH",
"51 268 OFFCURVE",
"117 183 OFFCURVE",
"156 183 CURVE SMOOTH",
"168 183 OFFCURVE",
"176 191 OFFCURVE",
"176 205 CURVE SMOOTH",
"176 301 LINE",
"380 301 LINE",
"380 -9 LINE"
);
}
);
width = 536;
},
{
layerId = "20CB0FE4-6866-45E2-B7C3-9D16484A9962";
paths = (
{
closed = 1;
nodes = (
"476 -40 LINE",
"476 531 LINE",
"637 531 LINE",
"566 635 LINE",
"-92 635 LINE",
"-20 531 LINE",
"351 531 LINE",
"351 386 LINE",
"110 386 LINE SMOOTH",
"62 386 OFFCURVE",
"34 371 OFFCURVE",
"34 327 CURVE SMOOTH",
"34 270 OFFCURVE",
"121 156 OFFCURVE",
"173 156 CURVE SMOOTH",
"197 156 OFFCURVE",
"209 174 OFFCURVE",
"209 196 CURVE SMOOTH",
"209 272 LINE",
"351 272 LINE",
"351 34 LINE"
);
}
);
width = 546;
}
);
unicode = 0928;
},
{
glyphname = dvPA;
lastChange = "2017-01-30 15:56:24 +0000";
layers = (
{
layerId = "7872E05C-01F2-413A-9F3F-5746E4900C50";
paths = (
{
closed = 1;
nodes = (
"443 577 LINE",
"594 577 LINE",
"563 625 LINE",
"-53 625 LINE",
"-20 577 LINE",
"86 577 LINE",
"86 375 LINE",
"86 272 OFFCURVE",
"194 175 OFFCURVE",
"272 175 CURVE SMOOTH",
"322 175 OFFCURVE",
"372 212 OFFCURVE",
"394 234 CURVE",
"387 -9 LINE",
"443 -50 LINE"
);
},
{
closed = 1;
nodes = (
"244 225 CURVE",
"194 225 OFFCURVE",
"142 272 OFFCURVE",
"142 344 CURVE",
"142 577 LINE",
"387 577 LINE",
"387 309 LINE",
"364 267 OFFCURVE",
"309 225 OFFCURVE"
);
}
);
width = 543;
},
{
layerId = "20CB0FE4-6866-45E2-B7C3-9D16484A9962";
paths = (
{
closed = 1;
nodes = (
"469 531 LINE",
"631 531 LINE",
"559 635 LINE",
"-92 635 LINE",
"-20 531 LINE",
"57 531 LINE",
"57 384 LINE",
"57 284 OFFCURVE",
"206 164 OFFCURVE",
"283 164 CURVE SMOOTH",
"301 164 OFFCURVE",
"329 172 OFFCURVE",
"348 180 CURVE",
"341 36 LINE",
"469 -40 LINE"
);
},
{
closed = 1;
nodes = (
"242 275 CURVE SMOOTH",
"206 275 OFFCURVE",
"186 292 OFFCURVE",
"186 334 CURVE",
"186 531 LINE",
"340 531 LINE",
"340 337 LINE",
"319 307 OFFCURVE",
"282 275 OFFCURVE"
);
}
);
width = 539;
}
);
unicode = 092A;
},
{
glyphname = dvPHA;
lastChange = "2017-01-30 15:56:24 +0000";
layers = (
{
anchors = (
{
name = abvm;
position = "{430, 625}";
},
{
name = blwm.u;
position = "{430, -50}";
},
{
name = blwm.virama;
position = "{430, -50}";
}
);
layerId = "7872E05C-01F2-413A-9F3F-5746E4900C50";
paths = (
{
closed = 1;
nodes = (
"430 -50 LINE",
"430 276 LINE",
"468 349 OFFCURVE",
"530 372 OFFCURVE",
"586 372 CURVE SMOOTH",
"660 372 OFFCURVE",
"712 302 OFFCURVE",
"712 233 CURVE SMOOTH",
"712 151 OFFCURVE",
"658 113 OFFCURVE",
"585 113 CURVE SMOOTH",
"568 113 OFFCURVE",
"550 115 OFFCURVE",
"532 119 CURVE",
"549 71 LINE",
"564 68 OFFCURVE",
"580 66 OFFCURVE",
"595 66 CURVE SMOOTH",
"683 66 OFFCURVE",
"757 120 OFFCURVE",
"757 216 CURVE SMOOTH",
"757 317 OFFCURVE",
"656 421 OFFCURVE",
"563 421 CURVE SMOOTH",
"508 421 OFFCURVE",
"458 395 OFFCURVE",
"427 360 CURVE",
"430 577 LINE",
"865 577 LINE",
"833 625 LINE",
"-52 625 LINE",
"-20 577 LINE",
"83 577 LINE",
"83 394 LINE SMOOTH",
"83 289 OFFCURVE",
"184 190 OFFCURVE",
"263 190 CURVE SMOOTH",
"297 190 OFFCURVE",
"340 206 OFFCURVE",
"376 239 CURVE",
"372 -9 LINE"
);
},
{
closed = 1;
nodes = (
"239 240 CURVE",
"180 240 OFFCURVE",
"139 293 OFFCURVE",
"139 359 CURVE SMOOTH",
"139 577 LINE",
"375 577 LINE",
"375 315 LINE",
"341 272 OFFCURVE",
"302 240 OFFCURVE"
);
}
);
width = 813;
},
{
anchors = (
{
name = abvm;
position = "{453, 635}";
},
{
name = blwm.u;
position = "{454, -40}";
},
{
name = blwm.virama;
position = "{454, -40}";
}
);
layerId = "20CB0FE4-6866-45E2-B7C3-9D16484A9962";
paths = (
{
closed = 1;
nodes = (
"454 -40 LINE",
"454 246 LINE",
"479 292 OFFCURVE",
"521 324 OFFCURVE",
"567 324 CURVE SMOOTH",
"613 324 OFFCURVE",
"644 291 OFFCURVE",
"644 242 CURVE SMOOTH",
"644 191 OFFCURVE",
"607 164 OFFCURVE",
"562 164 CURVE SMOOTH",
"546 164 OFFCURVE",
"524 165 OFFCURVE",
"491 178 CURVE",
"535 49 LINE",
"563 43 OFFCURVE",
"587 40 OFFCURVE",
"610 40 CURVE SMOOTH",
"705 40 OFFCURVE",
"756 93 OFFCURVE",
"756 198 CURVE SMOOTH",
"756 299 OFFCURVE",
"620 442 OFFCURVE",
"531 442 CURVE SMOOTH",
"498 442 OFFCURVE",
"472 435 OFFCURVE",
"452 424 CURVE",
"453 531 LINE",
"876 531 LINE",
"804 635 LINE",
"-91 635 LINE",
"-20 531 LINE",
"49 531 LINE",
"49 393 LINE",
"49 298 OFFCURVE",
"198 164 OFFCURVE",
"275 164 CURVE SMOOTH",
"294 164 OFFCURVE",
"314 170 OFFCURVE",
"331 178 CURVE",
"324 37 LINE"
);
},
{
closed = 1;
nodes = (
"230 278 CURVE SMOOTH",
"196 278 OFFCURVE",
"178 302 OFFCURVE",
"178 341 CURVE",
"178 531 LINE",
"324 531 LINE",
"324 337 LINE",
"304 307 OFFCURVE",
"269 278 OFFCURVE"
);
}
);
width = 784;
}
);
unicode = 092B;
},
{
glyphname = dvBA;
lastChange = "2017-01-30 15:56:24 +0000";
layers = (
{
layerId = "7872E05C-01F2-413A-9F3F-5746E4900C50";
paths = (
{
closed = 1;
nodes = (
"471 577 LINE",
"623 577 LINE",
"591 625 LINE",
"-53 625 LINE",
"-20 577 LINE",
"415 577 LINE",
"415 279 LINE",
"393 247 OFFCURVE",
"369 220 OFFCURVE",
"345 198 CURVE",
"153 405 LINE",
"177 423 OFFCURVE",
"207 434 OFFCURVE",
"239 434 CURVE SMOOTH",
"289 434 OFFCURVE",
"322 408 OFFCURVE",
"341 388 CURVE",
"359 415 LINE",
"335 438 OFFCURVE",
"290 482 OFFCURVE",
"216 482 CURVE SMOOTH",
"133 482 OFFCURVE",
"45 410 OFFCURVE",
"45 305 CURVE SMOOTH",
"45 191 OFFCURVE",
"157 99 OFFCURVE",
"256 99 CURVE SMOOTH",
"317 99 OFFCURVE",
"384 154 OFFCURVE",
"419 199 CURVE",
"416 7 LINE",
"471 -50 LINE"
);
},
{
closed = 1;
nodes = (
"233 143 CURVE",
"154 143 OFFCURVE",
"94 210 OFFCURVE",
"94 283 CURVE SMOOTH",
"94 323 OFFCURVE",
"108 358 OFFCURVE",
"131 385 CURVE",
"323 179 LINE",
"292 156 OFFCURVE",
"261 143 OFFCURVE"
);
}
);
width = 571;
},
{
layerId = "20CB0FE4-6866-45E2-B7C3-9D16484A9962";
paths = (
{
closed = 1;
nodes = (
"527 531 LINE",
"689 531 LINE",
"617 635 LINE",
"-92 635 LINE",
"-20 531 LINE",
"395 531 LINE",
"398 301 LINE",
"379 271 OFFCURVE",
"357 246 OFFCURVE",
"334 227 CURVE",
"207 364 LINE",
"220 369 OFFCURVE",
"233 372 OFFCURVE",
"246 372 CURVE SMOOTH",
"282 372 OFFCURVE",
"304 355 OFFCURVE",
"327 332 CURVE",
"371 389 LINE",
"338 429 OFFCURVE",
"282 473 OFFCURVE",
"208 473 CURVE SMOOTH",
"133 473 OFFCURVE",
"40 413 OFFCURVE",
"40 305 CURVE SMOOTH",
"40 202 OFFCURVE",
"154 87 OFFCURVE",
"266 87 CURVE SMOOTH",
"324 87 OFFCURVE",
"380 120 OFFCURVE",
"401 140 CURVE",
"394 39 LINE",
"527 -40 LINE"
);
},
{
closed = 1;
nodes = (
"228 182 CURVE SMOOTH",
"180 182 OFFCURVE",
"139 219 OFFCURVE",
"139 267 CURVE SMOOTH",
"139 289 OFFCURVE",
"146 309 OFFCURVE",
"156 324 CURVE",
"278 192 LINE",
"261 185 OFFCURVE",
"244 182 OFFCURVE"
);
}
);
width = 597;
}
);
unicode = 092C;
},
{
glyphname = dvBHA;
lastChange = "2017-01-30 15:56:24 +0000";
layers = (
{
layerId = "7872E05C-01F2-413A-9F3F-5746E4900C50";
paths = (
{
closed = 1;
nodes = (
"581 625 LINE",
"237 625 LINE",
"269 577 LINE",
"405 577 LINE",
"405 299 LINE",
"183 299 LINE",
"183 461 LINE SMOOTH",
"183 509 OFFCURVE",
"167 537 OFFCURVE",
"135 568 CURVE SMOOTH",
"110 591 LINE SMOOTH",
"79 618 OFFCURVE",
"50 625 OFFCURVE",
"16 625 CURVE SMOOTH",
"-52 625 LINE",
"-20 577 LINE",
"48 577 LINE SMOOTH",
"101 577 OFFCURVE",
"127 537 OFFCURVE",
"127 486 CURVE SMOOTH",
"127 299 LINE",
"69 299 OFFCURVE",
"58 289 OFFCURVE",
"58 264 CURVE SMOOTH",
"58 217 OFFCURVE",
"124 149 OFFCURVE",
"163 149 CURVE SMOOTH",
"175 149 OFFCURVE",
"183 157 OFFCURVE",
"183 171 CURVE SMOOTH",
"183 247 LINE",
"405 247 LINE",
"405 -6 LINE",
"461 -50 LINE",
"461 577 LINE",
"613 577 LINE"
);
}
);
width = 561;
},
{
layerId = "20CB0FE4-6866-45E2-B7C3-9D16484A9962";
paths = (
{
closed = 1;
nodes = (
"602 635 LINE",
"225 635 LINE",
"296 531 LINE",
"382 531 LINE",
"382 351 LINE",
"226 351 LINE",
"226 444 LINE SMOOTH",
"226 486 OFFCURVE",
"217 515 OFFCURVE",
"186 543 CURVE SMOOTH",
"125 596 LINE SMOOTH",
"89 628 OFFCURVE",
"61 635 OFFCURVE",
"24 635 CURVE SMOOTH",
"-90 635 LINE",
"-20 531 LINE",
"60 531 LINE SMOOTH",
"84 531 OFFCURVE",
"101 514 OFFCURVE",
"101 491 CURVE SMOOTH",
"101 350 LINE",
"49 350 OFFCURVE",
"30 336 OFFCURVE",
"30 309 CURVE SMOOTH",
"30 253 OFFCURVE",
"147 142 OFFCURVE",
"193 142 CURVE SMOOTH",
"220 142 OFFCURVE",
"228 157 OFFCURVE",
"228 179 CURVE SMOOTH",
"228 231 LINE",
"382 231 LINE",
"382 37 LINE",
"512 -40 LINE",
"512 531 LINE",
"673 531 LINE"
);
}
);
width = 582;
}
);
unicode = 092D;
},
{
glyphname = dvMA;
lastChange = "2017-01-30 15:56:24 +0000";
layers = (
{
layerId = "7872E05C-01F2-413A-9F3F-5746E4900C50";
paths = (
{
closed = 1;
nodes = (
"105 299 LINE",
"77 299 OFFCURVE",
"58 289 OFFCURVE",
"58 264 CURVE SMOOTH",
"58 217 OFFCURVE",
"124 149 OFFCURVE",
"163 149 CURVE SMOOTH",
"175 149 OFFCURVE",
"183 157 OFFCURVE",
"183 171 CURVE SMOOTH",
"183 247 LINE",
"427 247 LINE",
"427 -6 LINE",
"483 -50 LINE",
"483 577 LINE",
"635 577 LINE",
"603 625 LINE",
"-52 625 LINE",
"-20 577 LINE",
"127 577 LINE",
"127 299 LINE"
);
},
{
closed = 1;
nodes = (
"183 577 LINE",
"427 577 LINE",
"427 299 LINE",
"183 299 LINE"
);
}
);
width = 583;
},
{
layerId = "20CB0FE4-6866-45E2-B7C3-9D16484A9962";
paths = (
{
closed = 1;
nodes = (
"103 349 LINE",
"59 349 OFFCURVE",
"31 336 OFFCURVE",
"31 302 CURVE SMOOTH",
"31 246 OFFCURVE",
"148 140 OFFCURVE",
"194 140 CURVE SMOOTH",
"221 140 OFFCURVE",
"229 155 OFFCURVE",
"229 177 CURVE SMOOTH",
"229 229 LINE",
"397 229 LINE",
"397 37 LINE",
"527 -40 LINE",
"527 531 LINE",
"685 531 LINE",
"617 635 LINE",
"-87 635 LINE",
"-20 531 LINE",
"104 531 LINE",
"104 349 LINE"
);
},
{
closed = 1;
nodes = (
"229 531 LINE",
"397 531 LINE",
"397 349 LINE",
"229 349 LINE"
);
}
);
width = 597;
}
);
unicode = 092E;
},
{
glyphname = dvYA;
lastChange = "2017-01-30 15:56:24 +0000";
layers = (
{
layerId = "7872E05C-01F2-413A-9F3F-5746E4900C50";
paths = (
{
closed = 1;
nodes = (
"503 577 LINE",
"655 577 LINE",
"623 625 LINE",
"-52 625 LINE",
"-20 577 LINE",
"154 577 LINE",
"204 550 OFFCURVE",
"233 509 OFFCURVE",
"233 477 CURVE SMOOTH",
"233 449 OFFCURVE",
"207 413 OFFCURVE",
"83 351 CURVE SMOOTH",
"71 345 OFFCURVE",
"65 339 OFFCURVE",
"65 327 CURVE SMOOTH",
"65 240 OFFCURVE",
"181 126 OFFCURVE",
"285 126 CURVE SMOOTH",
"347 126 OFFCURVE",
"399 156 OFFCURVE",
"448 216 CURVE",
"447 -6 LINE",
"503 -50 LINE"
);
},
{
closed = 1;
nodes = (
"263 173 CURVE",
"206 173 OFFCURVE",
"122 225 OFFCURVE",
"122 286 CURVE SMOOTH",
"122 313 OFFCURVE",
"145 325 OFFCURVE",
"159 335 CURVE",
"213 370 OFFCURVE",
"283 403 OFFCURVE",
"283 458 CURVE SMOOTH",
"283 484 OFFCURVE",
"267 540 OFFCURVE",
"208 577 CURVE",
"447 577 LINE",
"447 296 LINE",
"419 241 OFFCURVE",
"357 173 OFFCURVE"
);
}
);
width = 603;
},
{
layerId = "20CB0FE4-6866-45E2-B7C3-9D16484A9962";
paths = (
{
closed = 1;
nodes = (
"536 531 LINE",
"698 531 LINE",
"626 635 LINE",
"-92 635 LINE",
"-20 531 LINE",
"147 531 LINE",
"171 518 OFFCURVE",
"188 485 OFFCURVE",
"188 466 CURVE SMOOTH",
"188 440 OFFCURVE",
"169 426 OFFCURVE",
"54 367 CURVE SMOOTH",
"38 359 OFFCURVE",
"34 351 OFFCURVE",
"34 333 CURVE SMOOTH",
"34 254 OFFCURVE",
"197 89 OFFCURVE",
"300 89 CURVE SMOOTH",
"343 89 OFFCURVE",
"382 110 OFFCURVE",
"411 135 CURVE",
"406 37 LINE",
"536 -40 LINE"
);
},
{
closed = 1;
nodes = (
"249 211 CURVE SMOOTH",
"214 211 OFFCURVE",
"176 229 OFFCURVE",
"176 260 CURVE SMOOTH",
"176 270 OFFCURVE",
"182 275 OFFCURVE",
"208 291 CURVE",
"303 351 OFFCURVE",
"318 360 OFFCURVE",
"318 410 CURVE SMOOTH",
"318 446 OFFCURVE",
"288 501 OFFCURVE",
"255 531 CURVE",
"407 531 LINE",
"407 318 LINE",
"373 263 OFFCURVE",
"327 211 OFFCURVE"
);
}
);
width = 606;
}
);
unicode = 092F;
},
{
glyphname = dvRA;
lastChange = "2017-01-30 15:56:24 +0000";
layers = (
{
anchors = (
{
name = abvm;
position = "{261, 625}";
},
{
name = blwm.virama;
position = "{259, -28}";
}
);
layerId = "7872E05C-01F2-413A-9F3F-5746E4900C50";
paths = (
{
closed = 1;
nodes = (
"414 625 LINE",
"-52 625 LINE",
"-20 577 LINE",
"207 577 LINE",
"207 338 LINE SMOOTH",
"207 292 OFFCURVE",
"187 277 OFFCURVE",
"154 277 CURVE SMOOTH",
"130 277 OFFCURVE",
"109 291 OFFCURVE",
"87 312 CURVE",
"60 287 LINE",
"134 176 OFFCURVE",
"220 74 OFFCURVE",
"322 -50 CURVE",
"365 -22 LINE",
"285 65 OFFCURVE",
"199 164 OFFCURVE",
"162 220 CURVE",
"236 225 OFFCURVE",
"261 270 OFFCURVE",
"261 310 CURVE SMOOTH",
"261 577 LINE",
"446 577 LINE"
);
}
);
width = 394;
},
{
anchors = (
{
name = abvm;
position = "{296, 635}";
},
{
name = blwm.virama;
position = "{351, -81}";
}
);
layerId = "20CB0FE4-6866-45E2-B7C3-9D16484A9962";
paths = (
{
closed = 1;
nodes = (
"419 635 LINE",
"-92 635 LINE",
"-20 531 LINE",
"166 531 LINE",
"166 346 LINE SMOOTH",
"166 338 OFFCURVE",
"161 333 OFFCURVE",
"155 333 CURVE SMOOTH",
"141 333 OFFCURVE",
"122 349 OFFCURVE",
"99 372 CURVE",
"33 314 LINE",
"105 205 OFFCURVE",
"199 82 OFFCURVE",
"304 -44 CURVE",
"388 0 LINE",
"310 80 OFFCURVE",
"239 164 OFFCURVE",
"205 210 CURVE",
"263 231 OFFCURVE",
"296 265 OFFCURVE",
"296 313 CURVE SMOOTH",
"296 531 LINE",
"490 531 LINE"
);
}
);
width = 399;
}
);
unicode = 0930;
},
{
glyphname = dvNukta;
lastChange = "2017-01-30 15:56:24 +0000";
layers = (
{
layerId = "7872E05C-01F2-413A-9F3F-5746E4900C50";
paths = (
{
closed = 1;
nodes = (
"-458 -57 LINE",
"-412 -104 LINE",
"-364 -57 LINE",
"-412 -11 LINE"
);
}
);
width = 0;
},
{
layerId = "20CB0FE4-6866-45E2-B7C3-9D16484A9962";
paths = (
{
closed = 1;
nodes = (
"-501 -62 LINE",
"-407 -153 LINE",
"-316 -62 LINE",
"-410 31 LINE"
);
}
);
width = 0;
}
);
unicode = 093C;
},
{
glyphname = dvLA;
lastChange = "2017-01-30 15:56:24 +0000";
layers = (
{
layerId = "7872E05C-01F2-413A-9F3F-5746E4900C50";
paths = (
{
closed = 1;
nodes = (
"384 135 LINE",
"379 164 OFFCURVE",
"374 198 OFFCURVE",
"374 231 CURVE SMOOTH",
"374 301 OFFCURVE",
"400 367 OFFCURVE",
"487 367 CURVE SMOOTH",
"513 367 OFFCURVE",
"542 361 OFFCURVE",
"562 354 CURVE",
"562 -6 LINE",
"618 -50 LINE",
"618 577 LINE",
"770 577 LINE",
"738 625 LINE",
"-52 625 LINE",
"-20 577 LINE",
"562 577 LINE",
"562 387 LINE",
"535 404 OFFCURVE",
"496 415 OFFCURVE",
"460 415 CURVE SMOOTH",
"414 415 OFFCURVE",
"374 392 OFFCURVE",
"352 360 CURVE",
"328 388 OFFCURVE",
"279 418 OFFCURVE",
"226 418 CURVE SMOOTH",
"139 418 OFFCURVE",
"67 350 OFFCURVE",
"67 260 CURVE SMOOTH",
"67 140 OFFCURVE",
"165 28 OFFCURVE",
"256 -50 CURVE",
"286 -29 LINE",
"202 43 OFFCURVE",
"117 133 OFFCURVE",
"117 234 CURVE SMOOTH",
"117 318 OFFCURVE",
"168 370 OFFCURVE",
"243 370 CURVE SMOOTH",
"281 370 OFFCURVE",
"312 353 OFFCURVE",
"335 330 CURVE",
"323 303 OFFCURVE",
"320 274 OFFCURVE",
"320 244 CURVE SMOOTH",
"320 210 OFFCURVE",
"326 177 OFFCURVE",
"336 148 CURVE"
);
}
);
width = 718;
},
{
layerId = "20CB0FE4-6866-45E2-B7C3-9D16484A9962";
paths = (
{
closed = 1;
nodes = (
"451 123 LINE",
"436 156 OFFCURVE",
"427 194 OFFCURVE",
"427 230 CURVE SMOOTH",
"427 291 OFFCURVE",
"451 345 OFFCURVE",
"518 345 CURVE SMOOTH",
"533 345 OFFCURVE",
"547 343 OFFCURVE",
"559 338 CURVE",
"559 37 LINE",
"689 -40 LINE",
"689 531 LINE",
"851 531 LINE",
"779 635 LINE",
"-92 635 LINE",
"-20 531 LINE",
"559 531 LINE",
"559 421 LINE",
"528 442 OFFCURVE",
"494 456 OFFCURVE",
"463 456 CURVE SMOOTH",
"412 456 OFFCURVE",
"371 434 OFFCURVE",
"344 400 CURVE",
"310 433 OFFCURVE",
"264 458 OFFCURVE",
"210 458 CURVE SMOOTH",
"110 458 OFFCURVE",
"43 383 OFFCURVE",
"43 285 CURVE SMOOTH",
"43 155 OFFCURVE",
"175 35 OFFCURVE",
"262 -40 CURVE",
"326 6 LINE",
"256 63 OFFCURVE",
"167 140 OFFCURVE",
"167 237 CURVE SMOOTH",
"167 302 OFFCURVE",
"208 342 OFFCURVE",
"258 342 CURVE SMOOTH",
"280 342 OFFCURVE",
"297 337 OFFCURVE",
"310 330 CURVE",
"305 313 OFFCURVE",
"303 294 OFFCURVE",
"303 276 CURVE SMOOTH",
"303 240 OFFCURVE",
"312 202 OFFCURVE",
"334 164 CURVE"
);
}
);
width = 759;
}
);
unicode = 0932;
},
{
glyphname = dvLLA;
lastChange = "2017-01-30 15:56:24 +0000";
layers = (
{
anchors = (
{
name = abvm;
position = "{575, 625}";
},
{
name = blwm.u;
position = "{578, -33}";
},
{
name = blwm.virama;
position = "{577, 48}";
}
);
layerId = "7872E05C-01F2-413A-9F3F-5746E4900C50";
paths = (
{
closed = 1;
nodes = (
"248 74 CURVE SMOOTH",
"302 74 OFFCURVE",
"339 111 OFFCURVE",
"368 158 CURVE",
"424 101 OFFCURVE",
"494 75 OFFCURVE",
"541 75 CURVE SMOOTH",
"632 75 OFFCURVE",
"705 155 OFFCURVE",
"705 259 CURVE SMOOTH",
"705 336 OFFCURVE",
"649 423 OFFCURVE",
"575 447 CURVE",
"575 577 LINE",
"797 577 LINE",
"765 625 LINE",
"-52 625 LINE",
"-20 577 LINE",
"519 577 LINE",
"519 451 LINE",
"472 444 OFFCURVE",
"440 408 OFFCURVE",
"414 364 CURVE",
"354 426 OFFCURVE",
"308 452 OFFCURVE",
"245 452 CURVE SMOOTH",
"147 452 OFFCURVE",
"72 364 OFFCURVE",
"72 267 CURVE SMOOTH",
"72 181 OFFCURVE",
"145 74 OFFCURVE"
);
},
{
closed = 1;
nodes = (
"266 407 CURVE SMOOTH",
"320 407 OFFCURVE",
"357 377 OFFCURVE",
"399 336 CURVE",
"384 306 OFFCURVE",
"372 276 OFFCURVE",
"361 250 CURVE SMOOTH",
"334 190 OFFCURVE",
"297 117 OFFCURVE",
"229 117 CURVE SMOOTH",
"170 117 OFFCURVE",
"118 172 OFFCURVE",
"118 246 CURVE SMOOTH",
"118 332 OFFCURVE",
"176 407 OFFCURVE"
);
},
{
closed = 1;
nodes = (
"521 119 CURVE SMOOTH",
"477 119 OFFCURVE",
"427 147 OFFCURVE",
"385 186 CURVE",
"399 212 OFFCURVE",
"410 241 OFFCURVE",
"421 267 CURVE SMOOTH",
"452 339 OFFCURVE",
"490 408 OFFCURVE",
"552 408 CURVE SMOOTH",
"608 408 OFFCURVE",
"663 353 OFFCURVE",
"663 279 CURVE SMOOTH",
"663 192 OFFCURVE",
"607 119 OFFCURVE"
);
}
);
width = 745;
},
{
anchors = (
{
name = abvm;
position = "{599, 635}";
},
{
name = blwm.u;
position = "{635, -104}";
},
{
name = blwm.virama;
position = "{650, -13}";
}
);
layerId = "20CB0FE4-6866-45E2-B7C3-9D16484A9962";
paths = (
{
closed = 1;
nodes = (
"269 37 CURVE SMOOTH",
"326 37 OFFCURVE",
"365 63 OFFCURVE",
"395 110 CURVE",
"447 62 OFFCURVE",
"498 37 OFFCURVE",
"548 37 CURVE SMOOTH",
"644 37 OFFCURVE",
"729 123 OFFCURVE",
"729 225 CURVE SMOOTH",
"729 295 OFFCURVE",
"662 386 OFFCURVE",
"599 431 CURVE",
"599 531 LINE",
"851 531 LINE",
"779 635 LINE",
"-92 635 LINE",
"-20 531 LINE",
"473 531 LINE",
"473 469 LINE",
"434 464 OFFCURVE",
"402 442 OFFCURVE",
"373 397 CURVE",
"322 443 OFFCURVE",
"273 471 OFFCURVE",
"222 471 CURVE SMOOTH",
"125 471 OFFCURVE",
"40 386 OFFCURVE",
"40 283 CURVE SMOOTH",
"40 176 OFFCURVE",
"182 37 OFFCURVE"
);
},
{
closed = 1;
nodes = (
"272 353 CURVE SMOOTH",
"294 353 OFFCURVE",
"316 342 OFFCURVE",
"336 326 CURVE",
"328 306 OFFCURVE",
"323 289 OFFCURVE",
"317 270 CURVE SMOOTH",
"295 209 OFFCURVE",
"273 155 OFFCURVE",
"225 155 CURVE SMOOTH",
"189 155 OFFCURVE",
"158 181 OFFCURVE",
"158 232 CURVE SMOOTH",
"158 309 OFFCURVE",
"207 353 OFFCURVE"
);
},
{
closed = 1;
nodes = (
"495 150 CURVE SMOOTH",
"476 150 OFFCURVE",
"454 159 OFFCURVE",
"429 178 CURVE",
"435 195 OFFCURVE",
"442 211 OFFCURVE",
"448 227 CURVE SMOOTH",
"476 297 OFFCURVE",
"494 352 OFFCURVE",
"546 352 CURVE SMOOTH",
"583 352 OFFCURVE",
"611 323 OFFCURVE",
"611 274 CURVE SMOOTH",
"611 199 OFFCURVE",
"559 150 OFFCURVE"
);
}
);
width = 759;
}
);
unicode = 0933;
},
{
glyphname = dvVA;
lastChange = "2017-01-30 15:56:24 +0000";
layers = (
{
layerId = "7872E05C-01F2-413A-9F3F-5746E4900C50";
paths = (
{
closed = 1;
nodes = (
"467 577 LINE",
"619 577 LINE",
"587 625 LINE",
"-53 625 LINE",
"-20 577 LINE",
"411 577 LINE",
"411 271 LINE",
"346 187 OFFCURVE",
"278 151 OFFCURVE",
"234 151 CURVE SMOOTH",
"145 151 OFFCURVE",
"99 221 OFFCURVE",
"99 286 CURVE SMOOTH",
"99 358 OFFCURVE",
"149 434 OFFCURVE",
"245 434 CURVE SMOOTH",
"295 434 OFFCURVE",
"328 408 OFFCURVE",
"346 387 CURVE",
"365 415 LINE",
"341 438 OFFCURVE",
"296 482 OFFCURVE",
"222 482 CURVE SMOOTH",
"134 482 OFFCURVE",
"51 415 OFFCURVE",
"51 305 CURVE SMOOTH",
"51 195 OFFCURVE",
"154 107 OFFCURVE",
"257 107 CURVE SMOOTH",
"310 107 OFFCURVE",
"377 149 OFFCURVE",
"415 194 CURVE",
"412 7 LINE",
"467 -50 LINE"
);
}
);
width = 567;
},
{
layerId = "20CB0FE4-6866-45E2-B7C3-9D16484A9962";
paths = (
{
closed = 1;
nodes = (
"522 531 LINE",
"685 531 LINE",
"613 635 LINE",
"-92 635 LINE",
"-20 531 LINE",
"390 531 LINE",
"394 318 LINE",
"353 248 OFFCURVE",
"284 183 OFFCURVE",
"220 183 CURVE SMOOTH",
"176 183 OFFCURVE",
"153 208 OFFCURVE",
"153 250 CURVE SMOOTH",
"153 306 OFFCURVE",
"199 365 OFFCURVE",
"251 365 CURVE SMOOTH",
"290 365 OFFCURVE",
"311 347 OFFCURVE",
"332 326 CURVE",
"366 383 LINE",
"329 430 OFFCURVE",
"274 482 OFFCURVE",
"194 482 CURVE SMOOTH",
"121 482 OFFCURVE",
"40 422 OFFCURVE",
"40 316 CURVE SMOOTH",
"40 192 OFFCURVE",
"172 71 OFFCURVE",
"265 71 CURVE SMOOTH",
"320 71 OFFCURVE",
"367 102 OFFCURVE",
"395 128 CURVE",
"389 38 LINE",
"522 -40 LINE"
);
}
);
width = 592;
}
);
unicode = 0935;
},
{
glyphname = dvSHA;
lastChange = "2017-01-30 15:56:24 +0000";
layers = (
{
layerId = "7872E05C-01F2-413A-9F3F-5746E4900C50";
paths = (
{
closed = 1;
nodes = (
"185 211 CURVE",
"319 194 OFFCURVE",
"419 288 OFFCURVE",
"419 423 CURVE SMOOTH",
"419 518 OFFCURVE",
"349 630 OFFCURVE",
"246 630 CURVE SMOOTH",
"174 630 OFFCURVE",
"123 573 OFFCURVE",
"123 504 CURVE SMOOTH",
"123 435 OFFCURVE",
"184 379 OFFCURVE",
"242 355 CURVE",
"258 384 LINE",
"206 400 OFFCURVE",
"171 436 OFFCURVE",
"171 486 CURVE SMOOTH",
"171 547 OFFCURVE",
"217 585 OFFCURVE",
"265 585 CURVE SMOOTH",
"335 585 OFFCURVE",
"373 518 OFFCURVE",
"373 440 CURVE SMOOTH",
"373 326 OFFCURVE",
"301 259 OFFCURVE",
"203 259 CURVE SMOOTH",
"159 259 OFFCURVE",
"119 280 OFFCURVE",
"91 307 CURVE",
"71 289 LINE",
"96 256 OFFCURVE",
"204 118 OFFCURVE",
"351 -50 CURVE",
"392 -21 LINE",
"329 44 OFFCURVE",
"214 169 OFFCURVE"
);
},
{
closed = 1;
nodes = (
"718 625 LINE",
"432 625 LINE",
"464 577 LINE",
"542 577 LINE",
"542 -9 LINE",
"598 -50 LINE",
"598 577 LINE",
"751 577 LINE"
);
}
);
width = 698;
},
{
layerId = "20CB0FE4-6866-45E2-B7C3-9D16484A9962";
paths = (
{
closed = 1;
nodes = (
"256 188 CURVE",
"380 196 OFFCURVE",
"464 276 OFFCURVE",
"464 388 CURVE SMOOTH",
"464 498 OFFCURVE",
"358 645 OFFCURVE",
"243 645 CURVE SMOOTH",
"167 645 OFFCURVE",
"112 582 OFFCURVE",
"112 510 CURVE SMOOTH",
"112 427 OFFCURVE",
"202 367 OFFCURVE",
"256 351 CURVE",
"295 404 LINE",
"263 418 OFFCURVE",
"238 441 OFFCURVE",
"238 468 CURVE SMOOTH",
"238 502 OFFCURVE",
"258 526 OFFCURVE",
"294 526 CURVE SMOOTH",
"330 526 OFFCURVE",
"359 493 OFFCURVE",
"359 446 CURVE SMOOTH",
"359 364 OFFCURVE",
"304 310 OFFCURVE",
"216 310 CURVE SMOOTH",
"180 310 OFFCURVE",
"150 338 OFFCURVE",
"123 366 CURVE",
"57 307 LINE",
"119 220 OFFCURVE",
"250 71 OFFCURVE",
"346 -40 CURVE",
"427 10 LINE",
"368 69 OFFCURVE",
"297 142 OFFCURVE"
);
},
{
closed = 1;
nodes = (
"763 635 LINE",
"412 635 LINE",
"470 531 LINE",
"543 531 LINE",
"543 37 LINE",
"673 -40 LINE",
"673 531 LINE",
"821 531 LINE"
);
}
);
width = 743;
}
);
unicode = 0936;
},
{
glyphname = dvSSA;
lastChange = "2017-01-30 15:56:24 +0000";
layers = (
{
layerId = "7872E05C-01F2-413A-9F3F-5746E4900C50";
paths = (
{
closed = 1;
nodes = (
"447 577 LINE",
"598 577 LINE",
"567 625 LINE",
"-52 625 LINE",
"-20 577 LINE",
"85 577 LINE",
"85 375 LINE SMOOTH",
"85 272 OFFCURVE",
"198 170 OFFCURVE",
"276 170 CURVE SMOOTH",
"326 170 OFFCURVE",
"371 202 OFFCURVE",
"393 224 CURVE",
"391 -6 LINE",
"447 -50 LINE"
);
},
{
closed = 1;
nodes = (
"248 220 CURVE",
"196 220 OFFCURVE",
"141 270 OFFCURVE",
"141 344 CURVE SMOOTH",
"141 533 LINE",
"378 282 LINE",
"345 242 OFFCURVE",
"302 220 OFFCURVE"
);
},
{
closed = 1;
nodes = (
"391 577 LINE",
"391 311 LINE",
"141 577 LINE"
);
}
);
width = 547;
},
{
layerId = "20CB0FE4-6866-45E2-B7C3-9D16484A9962";
paths = (
{
closed = 1;
nodes = (
"490 531 LINE",
"652 531 LINE",
"580 635 LINE",
"-87 635 LINE",
"-15 531 LINE",
"57 531 LINE",
"57 369 LINE",
"67 268 OFFCURVE",
"187 151 OFFCURVE",
"281 151 CURVE SMOOTH",
"316 151 OFFCURVE",
"349 163 OFFCURVE",
"368 174 CURVE",
"360 37 LINE",
"490 -40 LINE"
);
},
{
closed = 1;
nodes = (
"251 250 CURVE SMOOTH",
"217 250 OFFCURVE",
"183 270 OFFCURVE",
"183 314 CURVE SMOOTH",
"183 445 LINE",
"338 283 LINE",
"314 265 OFFCURVE",
"279 250 OFFCURVE"
);
},
{
closed = 1;
nodes = (
"360 531 LINE",
"360 350 LINE",
"197 531 LINE"
);
}
);
width = 560;
}
);
unicode = 0937;
},
{
glyphname = dvSA;
lastChange = "2017-01-30 15:56:24 +0000";
layers = (
{
layerId = "7872E05C-01F2-413A-9F3F-5746E4900C50";
paths = (
{
closed = 1;
nodes = (
"401 227 CURVE",
"430 227 OFFCURVE",
"468 238 OFFCURVE",
"496 261 CURVE",
"496 -6 LINE",
"550 -50 LINE",
"550 577 LINE",
"702 577 LINE",
"670 625 LINE",
"-52 625 LINE",
"-20 577 LINE",
"182 577 LINE",
"182 338 LINE SMOOTH",
"182 292 OFFCURVE",
"162 277 OFFCURVE",
"129 277 CURVE SMOOTH",
"105 277 OFFCURVE",
"84 291 OFFCURVE",
"62 312 CURVE",
"35 287 LINE",
"109 176 OFFCURVE",
"195 74 OFFCURVE",
"297 -50 CURVE",
"340 -22 LINE",
"260 65 OFFCURVE",
"174 164 OFFCURVE",
"137 220 CURVE",
"201 224 OFFCURVE",
"228 258 OFFCURVE",
"234 293 CURVE",
"283 254 OFFCURVE",
"346 227 OFFCURVE"
);
},
{
closed = 1;
nodes = (
"236 577 LINE",
"496 577 LINE",
"496 330 LINE",
"466 296 OFFCURVE",
"418 280 OFFCURVE",
"369 280 CURVE SMOOTH",
"325 280 OFFCURVE",
"272 307 OFFCURVE",
"236 337 CURVE"
);
}
);
width = 650;
},
{
layerId = "20CB0FE4-6866-45E2-B7C3-9D16484A9962";
paths = (
{
closed = 1;
nodes = (
"409 206 CURVE SMOOTH",
"431 206 OFFCURVE",
"456 213 OFFCURVE",
"471 224 CURVE",
"464 35 LINE",
"591 -40 LINE",
"591 531 LINE",
"753 531 LINE",
"681 635 LINE",
"-81 635 LINE",
"-9 531 LINE",
"145 531 LINE",
"145 346 LINE",
"145 338 OFFCURVE",
"141 333 OFFCURVE",
"134 333 CURVE SMOOTH",
"120 333 OFFCURVE",
"102 349 OFFCURVE",
"78 372 CURVE",
"13 314 LINE",
"85 206 OFFCURVE",
"172 87 OFFCURVE",
"278 -41 CURVE",
"364 6 LINE",
"287 85 OFFCURVE",
"227 163 OFFCURVE",
"192 211 CURVE",
"226 221 OFFCURVE",
"253 240 OFFCURVE",
"264 266 CURVE",
"326 218 OFFCURVE",
"370 206 OFFCURVE"
);
},
{
closed = 1;
nodes = (
"275 531 LINE",
"464 531 LINE",
"464 361 LINE",
"442 338 OFFCURVE",
"404 319 OFFCURVE",
"357 319 CURVE SMOOTH",
"326 319 OFFCURVE",
"298 330 OFFCURVE",
"275 351 CURVE"
);
}
);
width = 661;
}
);
unicode = 0938;
},
{
glyphname = dvHA;
lastChange = "2017-01-30 15:56:24 +0000";
layers = (
{
anchors = (
{
name = abvm;
position = "{402, 625}";
},
{
name = blwm.u;
position = "{354, -271}";
},
{
name = blwm.virama;
position = "{363, -187}";
}
);
layerId = "7872E05C-01F2-413A-9F3F-5746E4900C50";
paths = (
{
closed = 1;
nodes = (
"354 -4 LINE",
"401 21 OFFCURVE",
"441 67 OFFCURVE",
"441 117 CURVE SMOOTH",
"441 186 OFFCURVE",
"385 272 OFFCURVE",
"269 272 CURVE SMOOTH",
"236 272 OFFCURVE",
"204 262 OFFCURVE",
"176 246 CURVE",
"158 264 OFFCURVE",
"132 294 OFFCURVE",
"132 335 CURVE SMOOTH",
"132 393 OFFCURVE",
"180 396 OFFCURVE",
"241 396 CURVE SMOOTH",
"402 396 LINE",
"402 577 LINE",
"552 577 LINE",
"520 625 LINE",
"-52 625 LINE",
"-20 577 LINE",
"346 577 LINE",
"346 446 LINE",
"176 446 LINE SMOOTH",
"111 446 OFFCURVE",
"74 415 OFFCURVE",
"74 364 CURVE SMOOTH",
"74 326 OFFCURVE",
"92 280 OFFCURVE",
"149 228 CURVE",
"111 196 OFFCURVE",
"85 150 OFFCURVE",
"85 100 CURVE SMOOTH",
"85 -35 OFFCURVE",
"280 -135 OFFCURVE",
"338 -171 CURVE",
"370 -150 LINE",
"311 -116 OFFCURVE",
"134 -29 OFFCURVE",
"134 82 CURVE SMOOTH",
"134 164 OFFCURVE",
"210 225 OFFCURVE",
"298 225 CURVE SMOOTH",
"367 225 OFFCURVE",
"398 185 OFFCURVE",
"398 147 CURVE SMOOTH",
"398 107 OFFCURVE",
"368 59 OFFCURVE",
"318 36 CURVE"
);
}
);
width = 500;
},
{
anchors = (
{
name = abvm;
position = "{439, 635}";
},
{
name = blwm.u;
position = "{404, -323}";
},
{
name = blwm.virama;
position = "{404, -221}";
}
);
layerId = "20CB0FE4-6866-45E2-B7C3-9D16484A9962";
paths = (
{
closed = 1;
nodes = (
"374 -33 LINE",
"448 1 OFFCURVE",
"474 52 OFFCURVE",
"474 100 CURVE SMOOTH",
"474 191 OFFCURVE",
"390 299 OFFCURVE",
"271 299 CURVE SMOOTH",
"245 299 OFFCURVE",
"218 293 OFFCURVE",
"191 282 CURVE",
"180 294 OFFCURVE",
"172 307 OFFCURVE",
"172 319 CURVE SMOOTH",
"172 346 OFFCURVE",
"190 362 OFFCURVE",
"227 362 CURVE SMOOTH",
"439 362 LINE",
"439 531 LINE",
"606 531 LINE",
"534 635 LINE",
"-77 635 LINE",
"-5 531 LINE",
"313 531 LINE",
"313 475 LINE",
"171 475 LINE SMOOTH",
"95 475 OFFCURVE",
"51 442 OFFCURVE",
"51 376 CURVE SMOOTH",
"51 336 OFFCURVE",
"73 290 OFFCURVE",
"125 239 CURVE",
"92 208 OFFCURVE",
"69 166 OFFCURVE",
"69 115 CURVE SMOOTH",
"69 -25 OFFCURVE",
"281 -160 OFFCURVE",
"346 -198 CURVE",
"416 -146 LINE",
"352 -117 OFFCURVE",
"192 -32 OFFCURVE",
"192 73 CURVE SMOOTH",
"192 144 OFFCURVE",
"269 188 OFFCURVE",
"325 188 CURVE SMOOTH",
"354 188 OFFCURVE",
"370 179 OFFCURVE",
"370 161 CURVE SMOOTH",
"370 135 OFFCURVE",
"344 92 OFFCURVE",
"280 67 CURVE"
);
}
);
width = 514;
}
);
unicode = 0939;
},
{
glyphname = dvAvagraha;
lastChange = "2017-01-30 15:56:24 +0000";
layers = (
{
layerId = "7872E05C-01F2-413A-9F3F-5746E4900C50";
paths = (
{
closed = 1;
nodes = (
"263 412 LINE",
"217 453 OFFCURVE",
"194 492 OFFCURVE",
"194 520 CURVE SMOOTH",
"194 556 OFFCURVE",
"218 577 OFFCURVE",
"256 577 CURVE SMOOTH",
"509 577 LINE",
"457 624 LINE",
"234 624 LINE SMOOTH",
"161 624 OFFCURVE",
"133 592 OFFCURVE",
"133 550 CURVE SMOOTH",
"133 506 OFFCURVE",
"164 451 OFFCURVE",
"206 410 CURVE SMOOTH",
"358 262 LINE SMOOTH",
"395 226 OFFCURVE",
"430 176 OFFCURVE",
"430 128 CURVE SMOOTH",
"430 70 OFFCURVE",
"400 18 OFFCURVE",
"294 18 CURVE SMOOTH",
"201 18 OFFCURVE",
"108 116 OFFCURVE",
"79 160 CURVE",
"53 136 LINE",
"85 87 OFFCURVE",
"187 -28 OFFCURVE",
"316 -28 CURVE SMOOTH",
"429 -28 OFFCURVE",
"480 49 OFFCURVE",
"480 121 CURVE SMOOTH",
"480 174 OFFCURVE",
"438 248 OFFCURVE",
"372 310 CURVE SMOOTH"
);
}
);
width = 608;
},
{
layerId = "20CB0FE4-6866-45E2-B7C3-9D16484A9962";
paths = (
{
closed = 1;
nodes = (
"302 409 LINE",
"255 452 OFFCURVE",
"248 467 OFFCURVE",
"248 486 CURVE SMOOTH",
"248 511 OFFCURVE",
"267 528 OFFCURVE",
"295 528 CURVE SMOOTH",
"509 531 LINE",
"509 531 OFFCURVE",
"457 635 OFFCURVE",
"457 635 CURVE",
"234 635 LINE SMOOTH",
"160 635 OFFCURVE",
"106 592 OFFCURVE",
"106 535 CURVE SMOOTH",
"106 507 OFFCURVE",
"110 467 OFFCURVE",
"176 406 CURVE SMOOTH",
"321 272 LINE SMOOTH",
"372 227 OFFCURVE",
"382 193 OFFCURVE",
"382 166 CURVE SMOOTH",
"382 128 OFFCURVE",
"358 71 OFFCURVE",
"274 71 CURVE SMOOTH",
"195 71 OFFCURVE",
"141 120 OFFCURVE",
"101 181 CURVE",
"41 124 LINE",
"84 54 OFFCURVE",
"191 -48 OFFCURVE",
"320 -48 CURVE SMOOTH",
"438 -48 OFFCURVE",
"510 47 OFFCURVE",
"510 142 CURVE SMOOTH",
"510 210 OFFCURVE",
"460 270 OFFCURVE",
"420 305 CURVE SMOOTH"
);
}
);
width = 608;
}
);
unicode = 093D;
},
{
glyphname = dvmI;
lastChange = "2017-01-30 15:56:24 +0000";
layers = (
{
layerId = "7872E05C-01F2-413A-9F3F-5746E4900C50";
paths = (
{
closed = 1;
nodes = (
"156 -50 LINE",
"156 577 LINE",
"339 577 LINE",
"306 625 LINE",
"154 625 LINE",
"138 628 OFFCURVE",
"108 670 OFFCURVE",
"108 702 CURVE SMOOTH",
"108 792 OFFCURVE",
"194 808 OFFCURVE",
"268 808 CURVE SMOOTH",
"435 808 OFFCURVE",
"578 725 OFFCURVE",
"671 659 CURVE",
"693 678 LINE",
"579 774 OFFCURVE",
"417 853 OFFCURVE",
"243 853 CURVE SMOOTH",
"167 853 OFFCURVE",
"62 825 OFFCURVE",
"62 727 CURVE SMOOTH",
"62 680 OFFCURVE",
"82 647 OFFCURVE",
"107 625 CURVE",
"-83 625 LINE",
"-50 577 LINE",
"100 577 LINE",
"100 -8 LINE"
);
}
);
width = 256;
},
{
layerId = "20CB0FE4-6866-45E2-B7C3-9D16484A9962";
paths = (
{
closed = 1;
nodes = (
"200 -40 LINE",
"200 531 LINE",
"352 531 LINE",
"290 635 LINE",
"185 635 LINE",
"165 650 OFFCURVE",
"153 669 OFFCURVE",
"153 693 CURVE SMOOTH",
"153 779 OFFCURVE",
"272 785 OFFCURVE",
"332 785 CURVE SMOOTH",
"438 785 OFFCURVE",
"579 753 OFFCURVE",
"685 673 CURVE",
"735 717 LINE",
"625 818 OFFCURVE",
"457 906 OFFCURVE",
"264 906 CURVE SMOOTH",
"145 906 OFFCURVE",
"28 859 OFFCURVE",
"28 740 CURVE SMOOTH",
"28 699 OFFCURVE",
"45 663 OFFCURVE",
"67 635 CURVE",
"-82 635 LINE",
"-20 531 LINE",
"70 531 LINE",
"70 37 LINE"
);
}
);
width = 270;
}
);
unicode = 093F;
},
{
glyphname = dvmII;
lastChange = "2017-01-30 15:56:24 +0000";
layers = (
{
layerId = "7872E05C-01F2-413A-9F3F-5746E4900C50";
paths = (
{
closed = 1;
nodes = (
"306 625 LINE",
"135 625 LINE",
"82 738 OFFCURVE",
"13 860 OFFCURVE",
"-109 860 CURVE SMOOTH",
"-165 860 OFFCURVE",
"-216 828 OFFCURVE",
"-216 764 CURVE SMOOTH",
"-216 722 OFFCURVE",
"-192 688 OFFCURVE",
"-165 673 CURVE",
"-141 688 LINE",
"-159 698 OFFCURVE",
"-173 717 OFFCURVE",
"-173 744 CURVE SMOOTH",
"-173 795 OFFCURVE",
"-135 817 OFFCURVE",
"-90 817 CURVE SMOOTH",
"5 817 OFFCURVE",
"55 719 OFFCURVE",
"99 625 CURVE",
"-84 625 LINE",
"-51 577 LINE",
"100 577 LINE",
"100 8 LINE",
"156 -50 LINE",
"156 577 LINE",
"339 577 LINE"
);
}
);
width = 256;
},
{
layerId = "20CB0FE4-6866-45E2-B7C3-9D16484A9962";
paths = (
{
closed = 1;
nodes = (
"290 635 LINE",
"180 635 LINE",
"135 732 OFFCURVE",
"34 928 OFFCURVE",
"-129 928 CURVE SMOOTH",
"-217 928 OFFCURVE",
"-276 874 OFFCURVE",
"-276 795 CURVE SMOOTH",
"-276 722 OFFCURVE",
"-205 674 OFFCURVE",
"-172 657 CURVE",
"-103 698 LINE",
"-122 708 OFFCURVE",
"-151 732 OFFCURVE",
"-151 762 CURVE SMOOTH",
"-151 800 OFFCURVE",
"-123 815 OFFCURVE",
"-88 815 CURVE SMOOTH",
"-4 815 OFFCURVE",
"56 715 OFFCURVE",
"95 635 CURVE",
"-92 635 LINE",
"-20 531 LINE",
"70 531 LINE",
"70 37 LINE",
"200 -40 LINE",
"200 531 LINE",
"362 531 LINE"
);
}
);
width = 270;
}
);
unicode = 0940;
},
{
glyphname = dvmU;
lastChange = "2017-01-30 15:56:24 +0000";
layers = (
{
anchors = (
{
name = _blwm.u;
position = "{-100, -50}";
}
);
layerId = "7872E05C-01F2-413A-9F3F-5746E4900C50";
paths = (
{
closed = 1;
nodes = (
"-236 -94 CURVE",
"-193 -120 LINE",
"-189 -81 OFFCURVE",
"-167 -47 OFFCURVE",
"-128 -47 CURVE SMOOTH",
"-95 -47 OFFCURVE",
"-68 -69 OFFCURVE",
"-68 -106 CURVE SMOOTH",
"-68 -153 OFFCURVE",
"-113 -194 OFFCURVE",
"-175 -194 CURVE SMOOTH",
"-256 -194 OFFCURVE",
"-331 -132 OFFCURVE",
"-378 -76 CURVE",
"-403 -97 LINE",
"-342 -176 OFFCURVE",
"-252 -239 OFFCURVE",
"-155 -239 CURVE SMOOTH",
"-76 -239 OFFCURVE",
"-25 -183 OFFCURVE",
"-25 -125 CURVE SMOOTH",
"-25 -97 OFFCURVE",
"-40 -66 OFFCURVE",
"-67 -39 CURVE SMOOTH",
"-90 -16 OFFCURVE",
"-121 -4 OFFCURVE",
"-149 -4 CURVE SMOOTH",
"-195 -4 OFFCURVE",
"-230 -37 OFFCURVE"
);
}
);
width = 0;
},
{
anchors = (
{
name = _blwm.u;
position = "{-70, -40}";
}
);
layerId = "20CB0FE4-6866-45E2-B7C3-9D16484A9962";
paths = (
{
closed = 1;
nodes = (
"-273 -87 CURVE",
"-174 -146 LINE",
"-172 -95 OFFCURVE",
"-149 -57 OFFCURVE",
"-118 -57 CURVE SMOOTH",
"-94 -57 OFFCURVE",
"-83 -74 OFFCURVE",
"-83 -95 CURVE SMOOTH",
"-83 -146 OFFCURVE",
"-137 -188 OFFCURVE",
"-205 -188 CURVE SMOOTH",
"-274 -188 OFFCURVE",
"-342 -128 OFFCURVE",
"-393 -65 CURVE",
"-450 -105 LINE",
"-387 -193 OFFCURVE",
"-276 -293 OFFCURVE",
"-159 -293 CURVE SMOOTH",
"-41 -293 OFFCURVE",
"17 -215 OFFCURVE",
"17 -142 CURVE SMOOTH",
"17 -109 OFFCURVE",
"-4 -63 OFFCURVE",
"-37 -25 CURVE SMOOTH",
"-70 13 OFFCURVE",
"-115 43 OFFCURVE",
"-159 43 CURVE SMOOTH",
"-249 43 OFFCURVE",
"-281 -32 OFFCURVE"
);
}
);
width = 0;
}
);
unicode = 0941;
},
{
glyphname = dvmUU;
lastChange = "2017-01-30 15:56:24 +0000";
layers = (
{
anchors = (
{
name = _blwm.u;
position = "{-100, -50}";
}
);
layerId = "7872E05C-01F2-413A-9F3F-5746E4900C50";
paths = (
{
closed = 1;
nodes = (
"-240 -134 CURVE SMOOTH",
"-240 -71 OFFCURVE",
"-182 -51 OFFCURVE",
"-149 -51 CURVE SMOOTH",
"-78 -51 OFFCURVE",
"3 -113 OFFCURVE",
"75 -219 CURVE",
"99 -197 LINE",
"31 -95 OFFCURVE",
"-59 -3 OFFCURVE",
"-166 -3 CURVE SMOOTH",
"-231 -3 OFFCURVE",
"-290 -45 OFFCURVE",
"-290 -114 CURVE SMOOTH",
"-290 -170 OFFCURVE",
"-230 -243 OFFCURVE",
"-158 -243 CURVE SMOOTH",
"-109 -243 OFFCURVE",
"-79 -201 OFFCURVE",
"-72 -157 CURVE",
"-116 -128 LINE",
"-121 -166 OFFCURVE",
"-141 -197 OFFCURVE",
"-180 -197 CURVE SMOOTH",
"-217 -197 OFFCURVE",
"-240 -174 OFFCURVE"
);
}
);
width = 0;
},
{
anchors = (
{
name = _blwm.u;
position = "{-70, -40}";
}
);
layerId = "20CB0FE4-6866-45E2-B7C3-9D16484A9962";
paths = (
{
closed = 1;
nodes = (
"-227 -151 CURVE",
"-227 -104 OFFCURVE",
"-185 -71 OFFCURVE",
"-139 -71 CURVE SMOOTH",
"-57 -71 OFFCURVE",
"24 -172 OFFCURVE",
"86 -266 CURVE",
"141 -219 LINE",
"71 -105 OFFCURVE",
"-38 43 OFFCURVE",
"-178 43 CURVE SMOOTH",
"-264 43 OFFCURVE",
"-333 -18 OFFCURVE",
"-333 -101 CURVE SMOOTH",
"-333 -188 OFFCURVE",
"-224 -293 OFFCURVE",
"-142 -293 CURVE SMOOTH",
"-72 -293 OFFCURVE",
"-33 -250 OFFCURVE",
"-21 -180 CURVE",
"-125 -116 LINE",
"-137 -180 OFFCURVE",
"-157 -194 OFFCURVE",
"-184 -194 CURVE SMOOTH",
"-207 -194 OFFCURVE",
"-227 -177 OFFCURVE"
);
}
);
width = 0;
}
);
unicode = 0942;
},
{
glyphname = dvmvR;
lastChange = "2017-01-30 15:56:24 +0000";
layers = (
{
anchors = (
{
name = _blwm.u;
position = "{-100, -50}";
}
);
layerId = "7872E05C-01F2-413A-9F3F-5746E4900C50";
paths = (
{
closed = 1;
nodes = (
"-100 -47 LINE",
"-156 -6 LINE",
"-170 -15 OFFCURVE",
"-294 -56 OFFCURVE",
"-294 -130 CURVE SMOOTH",
"-294 -211 OFFCURVE",
"-219 -270 OFFCURVE",
"-147 -270 CURVE SMOOTH",
"-89 -270 OFFCURVE",
"-30 -229 OFFCURVE",
"-2 -200 CURVE",
"-40 -167 LINE",
"-74 -201 OFFCURVE",
"-115 -227 OFFCURVE",
"-164 -227 CURVE SMOOTH",
"-208 -227 OFFCURVE",
"-250 -197 OFFCURVE",
"-250 -157 CURVE SMOOTH",
"-250 -97 OFFCURVE",
"-159 -61 OFFCURVE",
"-100 -50 CURVE"
);
}
);
width = 0;
},
{
anchors = (
{
name = _blwm.u;
position = "{-70, -40}";
}
);
layerId = "20CB0FE4-6866-45E2-B7C3-9D16484A9962";
paths = (
{
closed = 1;
nodes = (
"-70 -36 LINE",
"-198 38 LINE",
"-266 1 OFFCURVE",
"-324 -45 OFFCURVE",
"-324 -111 CURVE SMOOTH",
"-324 -192 OFFCURVE",
"-205 -307 OFFCURVE",
"-97 -307 CURVE SMOOTH",
"-18 -307 OFFCURVE",
"46 -253 OFFCURVE",
"70 -222 CURVE",
"-24 -143 LINE",
"-47 -173 OFFCURVE",
"-93 -204 OFFCURVE",
"-148 -204 CURVE SMOOTH",
"-183 -204 OFFCURVE",
"-214 -182 OFFCURVE",
"-214 -153 CURVE SMOOTH",
"-214 -96 OFFCURVE",
"-146 -71 OFFCURVE",
"-70 -40 CURVE"
);
}
);
width = 0;
}
);
unicode = 0943;
},
{
glyphname = dvmEcandra;
lastChange = "2017-01-30 15:56:24 +0000";
layers = (
{
anchors = (
{
name = _abvm;
position = "{-100, 625}";
}
);
layerId = "7872E05C-01F2-413A-9F3F-5746E4900C50";
paths = (
{
closed = 1;
nodes = (
"-325 845 LINE",
"-295 790 OFFCURVE",
"-231 713 OFFCURVE",
"-136 713 CURVE SMOOTH",
"-61 713 OFFCURVE",
"-7 774 OFFCURVE",
"27 837 CURVE",
"-9 867 LINE",
"-41 808 OFFCURVE",
"-83 750 OFFCURVE",
"-154 750 CURVE SMOOTH",
"-223 750 OFFCURVE",
"-276 818 OFFCURVE",
"-300 863 CURVE"
);
}
);
width = 0;
},
{
anchors = (
{
name = _abvm;
position = "{-70, 635}";
}
);
layerId = "20CB0FE4-6866-45E2-B7C3-9D16484A9962";
paths = (
{
closed = 1;
nodes = (
"-378 860 LINE",
"-306 748 OFFCURVE",
"-224 685 OFFCURVE",
"-127 685 CURVE SMOOTH",
"-23 685 OFFCURVE",
"32 765 OFFCURVE",
"71 836 CURVE",
"-28 911 LINE",
"-60 850 OFFCURVE",
"-107 791 OFFCURVE",
"-173 791 CURVE SMOOTH",
"-243 791 OFFCURVE",
"-283 845 OFFCURVE",
"-322 901 CURVE"
);
}
);
width = 0;
}
);
unicode = 0945;
},
{
glyphname = dvmE;
lastChange = "2017-01-30 15:56:24 +0000";
layers = (
{
anchors = (
{
name = _abvm;
position = "{-100, 625}";
}
);
layerId = "7872E05C-01F2-413A-9F3F-5746E4900C50";
paths = (
{
closed = 1;
nodes = (
"-391 799 LINE",
"-372 806 OFFCURVE",
"-359 809 OFFCURVE",
"-342 809 CURVE SMOOTH",
"-249 809 OFFCURVE",
"-182 683 OFFCURVE",
"-137 589 CURVE",
"-107 602 LINE",
"-148 687 OFFCURVE",
"-217 860 OFFCURVE",
"-363 860 CURVE SMOOTH",
"-377 860 OFFCURVE",
"-405 854 OFFCURVE",
"-418 845 CURVE"
);
}
);
width = 0;
},
{
anchors = (
{
name = _abvm;
position = "{-70, 635}";
}
);
layerId = "20CB0FE4-6866-45E2-B7C3-9D16484A9962";
paths = (
{
closed = 1;
nodes = (
"-398 732 LINE",
"-372 751 OFFCURVE",
"-347 762 OFFCURVE",
"-326 762 CURVE SMOOTH",
"-252 762 OFFCURVE",
"-196 641 OFFCURVE",
"-153 556 CURVE",
"-87 590 LINE",
"-143 713 OFFCURVE",
"-220 885 OFFCURVE",
"-363 885 CURVE SMOOTH",
"-399 885 OFFCURVE",
"-439 871 OFFCURVE",
"-481 846 CURVE"
);
}
);
width = 0;
}
);
unicode = 0947;
},
{
glyphname = dvmAI;
lastChange = "2017-01-30 15:56:24 +0000";
layers = (
{
anchors = (
{
name = _abvm;
position = "{-100, 625}";
}
);
layerId = "7872E05C-01F2-413A-9F3F-5746E4900C50";
paths = (
{
closed = 1;
nodes = (
"-364 861 LINE",
"-349 867 OFFCURVE",
"-333 868 OFFCURVE",
"-320 868 CURVE SMOOTH",
"-226 868 OFFCURVE",
"-163 702 OFFCURVE",
"-133 625 CURVE",
"-179 709 OFFCURVE",
"-282 781 OFFCURVE",
"-370 781 CURVE SMOOTH",
"-396 781 OFFCURVE",
"-422 775 OFFCURVE",
"-446 762 CURVE",
"-413 720 LINE",
"-393 729 OFFCURVE",
"-374 734 OFFCURVE",
"-354 734 CURVE SMOOTH",
"-269 734 OFFCURVE",
"-188 669 OFFCURVE",
"-145 589 CURVE",
"-97 610 LINE",
"-120 670 OFFCURVE",
"-187 919 OFFCURVE",
"-333 919 CURVE SMOOTH",
"-347 919 OFFCURVE",
"-371 915 OFFCURVE",
"-387 908 CURVE"
);
}
);
width = 0;
},
{
anchors = (
{
name = _abvm;
position = "{-70, 635}";
}
);
layerId = "20CB0FE4-6866-45E2-B7C3-9D16484A9962";
paths = (
{
closed = 1;
nodes = (
"-335 826 LINE",
"-323 831 OFFCURVE",
"-311 833 OFFCURVE",
"-301 833 CURVE SMOOTH",
"-215 833 OFFCURVE",
"-154 662 OFFCURVE",
"-145 635 CURVE",
"-201 721 OFFCURVE",
"-288 798 OFFCURVE",
"-370 798 CURVE SMOOTH",
"-400 798 OFFCURVE",
"-433 791 OFFCURVE",
"-462 769 CURVE",
"-380 666 LINE",
"-357 679 OFFCURVE",
"-331 685 OFFCURVE",
"-313 685 CURVE SMOOTH",
"-223 685 OFFCURVE",
"-157 566 OFFCURVE",
"-157 566 CURVE",
"-84 577 LINE",
"-103 717 OFFCURVE",
"-163 944 OFFCURVE",
"-309 944 CURVE SMOOTH",
"-332 944 OFFCURVE",
"-360 941 OFFCURVE",
"-385 929 CURVE"
);
}
);
width = 0;
}
);
unicode = 0948;
},
{
glyphname = dvmOcandra;
lastChange = "2017-01-30 15:56:24 +0000";
layers = (
{
layerId = "7872E05C-01F2-413A-9F3F-5746E4900C50";
paths = (
{
closed = 1;
nodes = (
"176 577 LINE",
"358 577 LINE",
"326 625 LINE",
"-63 625 LINE",
"-31 577 LINE",
"120 577 LINE",
"120 -6 LINE",
"176 -50 LINE"
);
},
{
closed = 1;
nodes = (
"-57 845 LINE",
"-19 792 OFFCURVE",
"44 713 OFFCURVE",
"135 713 CURVE SMOOTH",
"210 713 OFFCURVE",
"261 774 OFFCURVE",
"295 837 CURVE",
"259 867 LINE",
"227 808 OFFCURVE",
"184 750 OFFCURVE",
"113 750 CURVE SMOOTH",
"56 750 OFFCURVE",
"0 814 OFFCURVE",
"-32 863 CURVE"
);
}
);
width = 289;
},
{
layerId = "20CB0FE4-6866-45E2-B7C3-9D16484A9962";
paths = (
{
closed = 1;
nodes = (
"214 531 LINE",
"357 531 LINE",
"304 635 LINE",
"-63 635 LINE",
"-10 531 LINE",
"84 531 LINE",
"84 37 LINE",
"214 -40 LINE"
);
},
{
closed = 1;
nodes = (
"-88 860 LINE",
"-16 748 OFFCURVE",
"66 685 OFFCURVE",
"163 685 CURVE SMOOTH",
"267 685 OFFCURVE",
"322 765 OFFCURVE",
"361 836 CURVE",
"262 911 LINE",
"230 850 OFFCURVE",
"183 791 OFFCURVE",
"117 791 CURVE SMOOTH",
"47 791 OFFCURVE",
"7 845 OFFCURVE",
"-32 901 CURVE"
);
}
);
width = 289;
}
);
unicode = 0949;
},
{
glyphname = dvmO;
lastChange = "2017-01-30 15:56:24 +0000";
layers = (
{
layerId = "7872E05C-01F2-413A-9F3F-5746E4900C50";
paths = (
{
closed = 1;
nodes = (
"156 577 LINE",
"338 577 LINE",
"306 625 LINE",
"138 625 LINE",
"96 714 OFFCURVE",
"27 860 OFFCURVE",
"-107 860 CURVE SMOOTH",
"-121 860 OFFCURVE",
"-149 854 OFFCURVE",
"-162 845 CURVE",
"-135 799 LINE",
"-116 806 OFFCURVE",
"-103 809 OFFCURVE",
"-86 809 CURVE SMOOTH",
"-4 809 OFFCURVE",
"57 712 OFFCURVE",
"101 625 CURVE",
"-83 625 LINE",
"-51 577 LINE",
"100 577 LINE",
"100 -6 LINE",
"156 -50 LINE"
);
}
);
width = 256;
},
{
layerId = "20CB0FE4-6866-45E2-B7C3-9D16484A9962";
paths = (
{
closed = 1;
nodes = (
"214 531 LINE",
"357 531 LINE",
"304 635 LINE",
"177 635 LINE",
"123 751 OFFCURVE",
"48 885 OFFCURVE",
"-78 885 CURVE SMOOTH",
"-114 885 OFFCURVE",
"-154 871 OFFCURVE",
"-196 846 CURVE",
"-113 732 LINE",
"-87 751 OFFCURVE",
"-62 762 OFFCURVE",
"-41 762 CURVE SMOOTH",
"11 762 OFFCURVE",
"55 701 OFFCURVE",
"91 635 CURVE",
"-63 635 LINE",
"-10 531 LINE",
"84 531 LINE",
"84 37 LINE",
"214 -40 LINE"
);
}
);
width = 289;
}
);
unicode = 094B;
},
{
glyphname = dvmAU;
lastChange = "2017-01-30 15:56:24 +0000";
layers = (
{
layerId = "7872E05C-01F2-413A-9F3F-5746E4900C50";
paths = (
{
closed = 1;
nodes = (
"156 577 LINE",
"308 577 LINE",
"276 625 LINE",
"151 625 LINE",
"124 703 OFFCURVE",
"57 919 OFFCURVE",
"-79 919 CURVE SMOOTH",
"-93 919 OFFCURVE",
"-117 915 OFFCURVE",
"-133 908 CURVE",
"-110 861 LINE",
"-95 867 OFFCURVE",
"-79 868 OFFCURVE",
"-66 868 CURVE SMOOTH",
"28 868 OFFCURVE",
"91 702 OFFCURVE",
"121 625 CURVE",
"75 709 OFFCURVE",
"-28 781 OFFCURVE",
"-116 781 CURVE SMOOTH",
"-142 781 OFFCURVE",
"-168 775 OFFCURVE",
"-192 762 CURVE",
"-159 720 LINE",
"-139 729 OFFCURVE",
"-120 734 OFFCURVE",
"-100 734 CURVE SMOOTH",
"-28 734 OFFCURVE",
"41 688 OFFCURVE",
"86 625 CURVE",
"-52 625 LINE",
"-20 577 LINE",
"100 577 LINE",
"100 -6 LINE",
"156 -50 LINE"
);
}
);
width = 256;
},
{
layerId = "20CB0FE4-6866-45E2-B7C3-9D16484A9962";
paths = (
{
closed = 1;
nodes = (
"214 531 LINE",
"357 531 LINE",
"304 635 LINE",
"191 635 LINE",
"165 772 OFFCURVE",
"103 944 OFFCURVE",
"-24 944 CURVE SMOOTH",
"-47 944 OFFCURVE",
"-75 941 OFFCURVE",
"-100 929 CURVE",
"-50 826 LINE",
"-38 831 OFFCURVE",
"-26 833 OFFCURVE",
"-16 833 CURVE SMOOTH",
"70 833 OFFCURVE",
"131 662 OFFCURVE",
"140 635 CURVE",
"84 721 OFFCURVE",
"-3 798 OFFCURVE",
"-85 798 CURVE SMOOTH",
"-115 798 OFFCURVE",
"-148 791 OFFCURVE",
"-177 769 CURVE",
"-95 666 LINE",
"-72 679 OFFCURVE",
"-46 685 OFFCURVE",
"-28 685 CURVE SMOOTH",
"12 685 OFFCURVE",
"47 661 OFFCURVE",
"74 635 CURVE",
"-63 635 LINE",
"-10 531 LINE",
"84 531 LINE",
"84 37 LINE",
"214 -40 LINE"
);
}
);
width = 289;
}
);
unicode = 094C;
},
{
glyphname = dvVirama;
lastChange = "2017-01-30 15:56:24 +0000";
layers = (
{
anchors = (
{
name = _blwm.virama;
position = "{-100, -50}";
}
);
layerId = "7872E05C-01F2-413A-9F3F-5746E4900C50";
paths = (
{
closed = 1;
nodes = (
"-205 -166 LINE",
"-190 -158 OFFCURVE",
"-173 -155 OFFCURVE",
"-158 -155 CURVE SMOOTH",
"-77 -155 OFFCURVE",
"-19 -250 OFFCURVE",
"15 -296 CURVE",
"41 -277 LINE",
"-13 -204 OFFCURVE",
"-78 -106 OFFCURVE",
"-173 -106 CURVE SMOOTH",
"-197 -106 OFFCURVE",
"-218 -113 OFFCURVE",
"-236 -124 CURVE"
);
}
);
width = 0;
},
{
anchors = (
{
name = _blwm.virama;
position = "{-70, -40}";
}
);
layerId = "20CB0FE4-6866-45E2-B7C3-9D16484A9962";
paths = (
{
closed = 1;
nodes = (
"-217 -201 LINE",
"-199 -193 OFFCURVE",
"-181 -189 OFFCURVE",
"-164 -189 CURVE SMOOTH",
"-81 -189 OFFCURVE",
"-19 -295 OFFCURVE",
"19 -345 CURVE",
"80 -303 LINE",
"20 -225 OFFCURVE",
"-74 -73 OFFCURVE",
"-201 -73 CURVE SMOOTH",
"-229 -73 OFFCURVE",
"-261 -82 OFFCURVE",
"-288 -98 CURVE"
);
}
);
width = 0;
}
);
unicode = 094D;
},
{
glyphname = dvvRR;
lastChange = "2017-01-30 15:56:24 +0000";
layers = (
{
layerId = "7872E05C-01F2-413A-9F3F-5746E4900C50";
paths = (
{
closed = 1;
nodes = (
"659 324 LINE",
"686 338 OFFCURVE",
"711 360 OFFCURVE",
"711 379 CURVE SMOOTH",
"711 417 OFFCURVE",
"674 466 OFFCURVE",
"637 466 CURVE SMOOTH",
"603 466 OFFCURVE",
"575 444 OFFCURVE",
"575 411 CURVE SMOOTH",
"575 390 OFFCURVE",
"585 370 OFFCURVE",
"596 349 CURVE",
"571 337 OFFCURVE",
"537 327 OFFCURVE",
"505 327 CURVE SMOOTH",
"488 327 OFFCURVE",
"471 329 OFFCURVE",
"457 336 CURVE",
"457 577 LINE",
"867 577 LINE",
"835 625 LINE",
"-52 625 LINE",
"-20 577 LINE",
"401 577 LINE",
"401 332 LINE",
"321 435 OFFCURVE",
"256 467 OFFCURVE",
"195 467 CURVE SMOOTH",
"146 467 OFFCURVE",
"98 456 OFFCURVE",
"42 413 CURVE",
"76 371 LINE",
"121 403 OFFCURVE",
"164 424 OFFCURVE",
"222 424 CURVE SMOOTH",
"295 424 OFFCURVE",
"349 350 OFFCURVE",
"377 312 CURVE",
"111 102 LINE",
"152 69 LINE",
"401 274 LINE",
"401 -9 LINE",
"457 -50 LINE",
"457 306 LINE",
"480 295 OFFCURVE",
"508 289 OFFCURVE",
"540 289 CURVE SMOOTH",
"568 289 OFFCURVE",
"599 295 OFFCURVE",
"628 310 CURVE",
"666 243 LINE",
"652 233 OFFCURVE",
"539 199 OFFCURVE",
"539 125 CURVE SMOOTH",
"539 63 OFFCURVE",
"579 23 OFFCURVE",
"630 7 CURVE",
"607 -10 OFFCURVE",
"590 -31 OFFCURVE",
"590 -57 CURVE SMOOTH",
"590 -138 OFFCURVE",
"662 -185 OFFCURVE",
"734 -185 CURVE SMOOTH",
"788 -185 OFFCURVE",
"840 -153 OFFCURVE",
"868 -124 CURVE",
"830 -91 LINE",
"789 -125 OFFCURVE",
"764 -142 OFFCURVE",
"711 -142 CURVE SMOOTH",
"677 -142 OFFCURVE",
"633 -126 OFFCURVE",
"633 -81 CURVE SMOOTH",
"633 -22 OFFCURVE",
"750 13 OFFCURVE",
"790 28 CURVE",
"790 31 LINE",
"746 63 LINE",
"711 49 LINE",
"694 44 OFFCURVE",
"677 40 OFFCURVE",
"660 40 CURVE SMOOTH",
"626 40 OFFCURVE",
"582 56 OFFCURVE",
"582 101 CURVE SMOOTH",
"582 160 OFFCURVE",
"671 189 OFFCURVE",
"730 200 CURVE"
);
}
);
width = 822;
},
{
layerId = "20CB0FE4-6866-45E2-B7C3-9D16484A9962";
paths = (
{
closed = 1;
nodes = (
"846 287 LINE",
"864 304 OFFCURVE",
"872 321 OFFCURVE",
"872 344 CURVE SMOOTH",
"872 403 OFFCURVE",
"814 467 OFFCURVE",
"771 467 CURVE SMOOTH",
"737 467 OFFCURVE",
"707 438 OFFCURVE",
"707 406 CURVE SMOOTH",
"707 388 OFFCURVE",
"715 370 OFFCURVE",
"724 354 CURVE",
"724 354 OFFCURVE",
"698 327 OFFCURVE",
"638 327 CURVE SMOOTH",
"628 327 OFFCURVE",
"587 329 OFFCURVE",
"577 332 CURVE",
"577 531 LINE",
"1109 531 LINE",
"1037 635 LINE",
"-92 635 LINE",
"-20 531 LINE",
"452 531 LINE",
"452 319 LINE",
"346 442 OFFCURVE",
"274 464 OFFCURVE",
"201 464 CURVE SMOOTH",
"145 464 OFFCURVE",
"97 446 OFFCURVE",
"36 397 CURVE",
"126 293 LINE",
"180 339 OFFCURVE",
"229 357 OFFCURVE",
"272 357 CURVE SMOOTH",
"318 357 OFFCURVE",
"365 331 OFFCURVE",
"392 294 CURVE",
"120 73 LINE",
"217 -4 LINE",
"452 195 LINE",
"452 31 LINE",
"577 -40 LINE",
"577 253 LINE",
"612 240 OFFCURVE",
"655 233 OFFCURVE",
"696 233 CURVE SMOOTH",
"726 233 OFFCURVE",
"756 237 OFFCURVE",
"781 246 CURVE",
"802 218 LINE",
"737 180 OFFCURVE",
"660 135 OFFCURVE",
"660 69 CURVE SMOOTH",
"660 16 OFFCURVE",
"701 -52 OFFCURVE",
"767 -92 CURVE",
"753 -112 OFFCURVE",
"744 -135 OFFCURVE",
"744 -161 CURVE SMOOTH",
"744 -242 OFFCURVE",
"863 -357 OFFCURVE",
"971 -357 CURVE SMOOTH",
"1050 -357 OFFCURVE",
"1114 -303 OFFCURVE",
"1138 -272 CURVE",
"1044 -193 LINE",
"1021 -223 OFFCURVE",
"975 -254 OFFCURVE",
"920 -254 CURVE SMOOTH",
"885 -254 OFFCURVE",
"854 -232 OFFCURVE",
"854 -203 CURVE SMOOTH",
"854 -136 OFFCURVE",
"935 -125 OFFCURVE",
"977 -98 CURVE SMOOTH",
"997 -85 LINE SMOOTH",
"1018 -70 OFFCURVE",
"1034 -54 OFFCURVE",
"1044 -42 CURVE",
"950 37 LINE",
"919 -1 OFFCURVE",
"873 -24 OFFCURVE",
"826 -24 CURVE SMOOTH",
"791 -24 OFFCURVE",
"770 -2 OFFCURVE",
"770 27 CURVE SMOOTH",
"770 84 OFFCURVE",
"869 126 OFFCURVE",
"945 157 CURVE"
);
}
);
width = 1010;
}
);
unicode = 0960;
},
{
glyphname = dvvLL;
lastChange = "2017-01-30 15:56:24 +0000";
layers = (
{
layerId = "7872E05C-01F2-413A-9F3F-5746E4900C50";
paths = (
{
closed = 1;
nodes = (
"667 -146 LINE",
"623 -114 LINE",
"588 -128 LINE",
"571 -133 OFFCURVE",
"554 -137 OFFCURVE",
"537 -137 CURVE SMOOTH",
"503 -137 OFFCURVE",
"459 -121 OFFCURVE",
"459 -76 CURVE SMOOTH",
"459 -17 OFFCURVE",
"561 19 OFFCURVE",
"620 30 CURVE",
"620 577 LINE",
"774 577 LINE",
"742 625 LINE",
"-52 625 LINE",
"-20 577 LINE",
"564 577 LINE",
"564 387 LINE",
"537 404 OFFCURVE",
"498 415 OFFCURVE",
"462 415 CURVE SMOOTH",
"416 415 OFFCURVE",
"376 392 OFFCURVE",
"354 360 CURVE",
"330 388 OFFCURVE",
"281 418 OFFCURVE",
"228 418 CURVE SMOOTH",
"141 418 OFFCURVE",
"69 350 OFFCURVE",
"69 260 CURVE SMOOTH",
"69 140 OFFCURVE",
"167 28 OFFCURVE",
"258 -50 CURVE",
"288 -29 LINE",
"204 43 OFFCURVE",
"119 133 OFFCURVE",
"119 234 CURVE SMOOTH",
"119 318 OFFCURVE",
"170 370 OFFCURVE",
"245 370 CURVE SMOOTH",
"283 370 OFFCURVE",
"314 353 OFFCURVE",
"337 330 CURVE",
"325 303 OFFCURVE",
"322 274 OFFCURVE",
"322 244 CURVE SMOOTH",
"322 210 OFFCURVE",
"328 177 OFFCURVE",
"338 148 CURVE",
"386 135 LINE",
"381 164 OFFCURVE",
"376 198 OFFCURVE",
"376 231 CURVE SMOOTH",
"376 301 OFFCURVE",
"402 367 OFFCURVE",
"489 367 CURVE SMOOTH",
"515 367 OFFCURVE",
"544 361 OFFCURVE",
"564 354 CURVE",
"564 74 LINE",
"550 65 OFFCURVE",
"416 22 OFFCURVE",
"416 -52 CURVE SMOOTH",
"416 -114 OFFCURVE",
"456 -154 OFFCURVE",
"507 -170 CURVE",
"484 -187 OFFCURVE",
"467 -208 OFFCURVE",
"467 -234 CURVE SMOOTH",
"467 -315 OFFCURVE",
"539 -362 OFFCURVE",
"611 -362 CURVE SMOOTH",
"665 -362 OFFCURVE",
"738 -321 OFFCURVE",
"766 -292 CURVE",
"728 -259 LINE",
"687 -293 OFFCURVE",
"641 -319 OFFCURVE",
"588 -319 CURVE SMOOTH",
"554 -319 OFFCURVE",
"510 -303 OFFCURVE",
"510 -258 CURVE SMOOTH",
"510 -199 OFFCURVE",
"627 -164 OFFCURVE",
"667 -149 CURVE"
);
}
);
width = 720;
},
{
layerId = "20CB0FE4-6866-45E2-B7C3-9D16484A9962";
paths = (
{
closed = 1;
nodes = (
"782 -165 LINE",
"803 -150 OFFCURVE",
"819 -134 OFFCURVE",
"829 -122 CURVE",
"735 -43 LINE",
"704 -81 OFFCURVE",
"658 -104 OFFCURVE",
"611 -104 CURVE SMOOTH",
"576 -104 OFFCURVE",
"545 -82 OFFCURVE",
"545 -53 CURVE SMOOTH",
"545 4 OFFCURVE",
"613 29 OFFCURVE",
"689 60 CURVE",
"689 531 LINE",
"851 531 LINE",
"779 635 LINE",
"-92 635 LINE",
"-20 531 LINE",
"559 531 LINE",
"559 421 LINE",
"528 442 OFFCURVE",
"494 456 OFFCURVE",
"463 456 CURVE SMOOTH",
"412 456 OFFCURVE",
"371 434 OFFCURVE",
"344 400 CURVE",
"310 433 OFFCURVE",
"264 458 OFFCURVE",
"210 458 CURVE SMOOTH",
"110 458 OFFCURVE",
"43 383 OFFCURVE",
"43 285 CURVE SMOOTH",
"43 155 OFFCURVE",
"175 35 OFFCURVE",
"262 -40 CURVE",
"326 6 LINE",
"256 63 OFFCURVE",
"167 140 OFFCURVE",
"167 237 CURVE SMOOTH",
"167 302 OFFCURVE",
"208 342 OFFCURVE",
"258 342 CURVE SMOOTH",
"280 342 OFFCURVE",
"297 337 OFFCURVE",
"310 330 CURVE",
"305 313 OFFCURVE",
"303 294 OFFCURVE",
"303 276 CURVE SMOOTH",
"303 240 OFFCURVE",
"312 202 OFFCURVE",
"334 164 CURVE",
"451 123 LINE",
"436 156 OFFCURVE",
"427 194 OFFCURVE",
"427 230 CURVE SMOOTH",
"427 291 OFFCURVE",
"451 345 OFFCURVE",
"518 345 CURVE SMOOTH",
"533 345 OFFCURVE",
"547 343 OFFCURVE",
"559 338 CURVE",
"559 137 LINE",
"492 100 OFFCURVE",
"435 55 OFFCURVE",
"435 -11 CURVE SMOOTH",
"435 -64 OFFCURVE",
"486 -132 OFFCURVE",
"552 -172 CURVE",
"538 -192 OFFCURVE",
"529 -215 OFFCURVE",
"529 -241 CURVE SMOOTH",
"529 -322 OFFCURVE",
"648 -437 OFFCURVE",
"756 -437 CURVE SMOOTH",
"835 -437 OFFCURVE",
"899 -383 OFFCURVE",
"923 -352 CURVE",
"829 -273 LINE",
"806 -303 OFFCURVE",
"760 -334 OFFCURVE",
"705 -334 CURVE SMOOTH",
"670 -334 OFFCURVE",
"639 -312 OFFCURVE",
"639 -283 CURVE SMOOTH",
"639 -216 OFFCURVE",
"720 -205 OFFCURVE",
"762 -178 CURVE"
);
}
);
width = 759;
}
);
unicode = 0961;
},
{
glyphname = danda;
lastChange = "2017-01-30 15:56:24 +0000";
layers = (
{
layerId = "7872E05C-01F2-413A-9F3F-5746E4900C50";
paths = (
{
closed = 1;
nodes = (
"177 554 LINE",
"121 600 LINE",
"121 2 LINE",
"177 -43 LINE"
);
}
);
width = 299;
},
{
layerId = "20CB0FE4-6866-45E2-B7C3-9D16484A9962";
paths = (
{
closed = 1;
nodes = (
"250 558 LINE",
"120 635 LINE",
"120 37 LINE",
"250 -40 LINE"
);
}
);
width = 370;
}
);
unicode = 0964;
},
{
glyphname = doubledanda;
lastChange = "2017-01-30 15:56:24 +0000";
layers = (
{
layerId = "7872E05C-01F2-413A-9F3F-5746E4900C50";
paths = (
{
closed = 1;
nodes = (
"177 553 LINE",
"121 600 LINE",
"121 1 LINE",
"177 -43 LINE"
);
},
{
closed = 1;
nodes = (
"398 553 LINE",
"342 600 LINE",
"342 1 LINE",
"398 -43 LINE"
);
}
);
width = 520;
},
{
layerId = "20CB0FE4-6866-45E2-B7C3-9D16484A9962";
paths = (
{
closed = 1;
nodes = (
"250 558 LINE",
"120 635 LINE",
"120 37 LINE",
"250 -40 LINE"
);
},
{
closed = 1;
nodes = (
"539 558 LINE",
"409 635 LINE",
"409 37 LINE",
"539 -40 LINE"
);
}
);
width = 623;
}
);
unicode = 0965;
},
{
glyphname = dvOne;
lastChange = "2017-01-30 15:56:24 +0000";
layers = (
{
layerId = "7872E05C-01F2-413A-9F3F-5746E4900C50";
paths = (
{
closed = 1;
nodes = (
"342 -59 CURVE",
"189 93 LINE SMOOTH",
"172 109 OFFCURVE",
"168 122 OFFCURVE",
"168 132 CURVE SMOOTH",
"168 147 OFFCURVE",
"176 154 OFFCURVE",
"189 164 CURVE",
"305 247 OFFCURVE",
"411 333 OFFCURVE",
"411 407 CURVE SMOOTH",
"411 509 OFFCURVE",
"331 613 OFFCURVE",
"224 613 CURVE SMOOTH",
"164 613 OFFCURVE",
"83 563 OFFCURVE",
"83 480 CURVE SMOOTH",
"83 406 OFFCURVE",
"147 341 OFFCURVE",
"188 318 CURVE",
"213 343 LINE",
"172 371 OFFCURVE",
"135 414 OFFCURVE",
"135 463 CURVE SMOOTH",
"135 518 OFFCURVE",
"178 562 OFFCURVE",
"242 562 CURVE SMOOTH",
"322 562 OFFCURVE",
"362 499 OFFCURVE",
"362 432 CURVE SMOOTH",
"362 334 OFFCURVE",
"200 238 OFFCURVE",
"140 196 CURVE",
"121 182 OFFCURVE",
"102 168 OFFCURVE",
"102 147 CURVE SMOOTH",
"102 131 OFFCURVE",
"111 118 OFFCURVE",
"120 109 CURVE SMOOTH",
"272 -39 LINE SMOOTH",
"293 -59 OFFCURVE",
"321 -86 OFFCURVE",
"321 -111 CURVE",
"321 -132 OFFCURVE",
"310 -150 OFFCURVE",
"292 -166 CURVE",
"337 -202 LINE",
"360 -180 OFFCURVE",
"377 -154 OFFCURVE",
"377 -126 CURVE SMOOTH",
"377 -104 OFFCURVE",
"367 -81 OFFCURVE"
);
}
);
width = 467;
},
{
layerId = "20CB0FE4-6866-45E2-B7C3-9D16484A9962";
paths = (
{
closed = 1;
nodes = (
"375 -39 CURVE SMOOTH",
"238 89 LINE SMOOTH",
"221 105 OFFCURVE",
"217 118 OFFCURVE",
"217 128 CURVE SMOOTH",
"217 143 OFFCURVE",
"225 150 OFFCURVE",
"238 160 CURVE",
"347 246 OFFCURVE",
"443 307 OFFCURVE",
"443 395 CURVE SMOOTH",
"443 497 OFFCURVE",
"327 643 OFFCURVE",
"209 643 CURVE SMOOTH",
"131 643 OFFCURVE",
"61 583 OFFCURVE",
"61 500 CURVE SMOOTH",
"61 418 OFFCURVE",
"150 354 OFFCURVE",
"191 331 CURVE",
"233 371 LINE",
"206 390 OFFCURVE",
"178 417 OFFCURVE",
"178 455 CURVE SMOOTH",
"178 502 OFFCURVE",
"216 541 OFFCURVE",
"267 541 CURVE SMOOTH",
"317 541 OFFCURVE",
"347 500 OFFCURVE",
"347 456 CURVE SMOOTH",
"347 376 OFFCURVE",
"231 310 OFFCURVE",
"111 225 CURVE",
"89 209 OFFCURVE",
"79 201 OFFCURVE",
"79 186 CURVE SMOOTH",
"79 170 OFFCURVE",
"90 146 OFFCURVE",
"113 124 CURVE SMOOTH",
"277 -30 LINE SMOOTH",
"298 -50 OFFCURVE",
"307 -64 OFFCURVE",
"307 -81 CURVE",
"307 -102 OFFCURVE",
"296 -120 OFFCURVE",
"278 -136 CURVE",
"375 -211 LINE",
"404 -182 OFFCURVE",
"418 -153 OFFCURVE",
"418 -124 CURVE SMOOTH",
"418 -94 OFFCURVE",
"403 -65 OFFCURVE"
);
}
);
width = 467;
}
);
unicode = 0967;
},
{
glyphname = dvTwo;
lastChange = "2017-01-30 15:56:24 +0000";
layers = (
{
layerId = "7872E05C-01F2-413A-9F3F-5746E4900C50";
paths = (
{
closed = 1;
nodes = (
"74 512 LINE",
"125 545 OFFCURVE",
"187 568 OFFCURVE",
"250 568 CURVE SMOOTH",
"347 568 OFFCURVE",
"420 499 OFFCURVE",
"420 401 CURVE SMOOTH",
"420 324 OFFCURVE",
"341 244 OFFCURVE",
"225 213 CURVE",
"202 253 OFFCURVE",
"181 296 OFFCURVE",
"155 296 CURVE SMOOTH",
"125 296 OFFCURVE",
"90 277 OFFCURVE",
"90 243 CURVE SMOOTH",
"90 190 OFFCURVE",
"136 150 OFFCURVE",
"179 150 CURVE SMOOTH",
"191 150 OFFCURVE",
"206 153 OFFCURVE",
"218 155 CURVE",
"396 -156 LINE",
"434 -132 LINE",
"252 164 LINE",
"330 187 OFFCURVE",
"467 276 OFFCURVE",
"467 375 CURVE SMOOTH",
"467 496 OFFCURVE",
"373 622 OFFCURVE",
"255 622 CURVE SMOOTH",
"166 622 OFFCURVE",
"110 595 OFFCURVE",
"46 558 CURVE"
);
}
);
width = 525;
},
{
layerId = "20CB0FE4-6866-45E2-B7C3-9D16484A9962";
paths = (
{
closed = 1;
nodes = (
"113 456 LINE",
"164 489 OFFCURVE",
"215 512 OFFCURVE",
"278 512 CURVE SMOOTH",
"335 512 OFFCURVE",
"388 475 OFFCURVE",
"388 412 CURVE SMOOTH",
"388 321 OFFCURVE",
"294 271 OFFCURVE",
"230 256 CURVE",
"207 296 OFFCURVE",
"182 322 OFFCURVE",
"156 322 CURVE SMOOTH",
"126 322 OFFCURVE",
"69 295 OFFCURVE",
"69 257 CURVE SMOOTH",
"69 204 OFFCURVE",
"127 128 OFFCURVE",
"170 128 CURVE SMOOTH",
"182 128 OFFCURVE",
"194 128 OFFCURVE",
"206 130 CURVE",
"376 -158 LINE",
"461 -105 LINE",
"289 149 LINE",
"390 185 OFFCURVE",
"476 262 OFFCURVE",
"476 353 CURVE SMOOTH",
"476 480 OFFCURVE",
"359 632 OFFCURVE",
"254 632 CURVE SMOOTH",
"174 632 OFFCURVE",
"96 595 OFFCURVE",
"46 568 CURVE"
);
}
);
width = 525;
}
);
unicode = 0968;
},
{
glyphname = dvThree;
lastChange = "2017-01-30 15:56:24 +0000";
layers = (
{
layerId = "7872E05C-01F2-413A-9F3F-5746E4900C50";
paths = (
{
closed = 1;
nodes = (
"69 48 CURVE SMOOTH",
"69 2 OFFCURVE",
"127 -36 OFFCURVE",
"203 -58 CURVE",
"315 -241 LINE",
"355 -214 LINE",
"244 -54 LINE",
"360 -36 OFFCURVE",
"462 45 OFFCURVE",
"462 139 CURVE SMOOTH",
"462 216 OFFCURVE",
"405 286 OFFCURVE",
"373 314 CURVE",
"400 345 OFFCURVE",
"432 380 OFFCURVE",
"432 425 CURVE SMOOTH",
"432 507 OFFCURVE",
"360 612 OFFCURVE",
"246 612 CURVE SMOOTH",
"176 612 OFFCURVE",
"103 578 OFFCURVE",
"57 528 CURVE",
"94 491 LINE",
"134 536 OFFCURVE",
"201 568 OFFCURVE",
"261 568 CURVE SMOOTH",
"338 568 OFFCURVE",
"389 513 OFFCURVE",
"389 448 CURVE SMOOTH",
"389 384 OFFCURVE",
"327 319 OFFCURVE",
"183 277 CURVE",
"182 273 LINE",
"208 230 LINE",
"257 247 OFFCURVE",
"299 261 OFFCURVE",
"341 289 CURVE",
"355 286 OFFCURVE",
"414 222 OFFCURVE",
"414 165 CURVE SMOOTH",
"414 65 OFFCURVE",
"310 7 OFFCURVE",
"221 -2 CURVE",
"179 66 OFFCURVE",
"156 112 OFFCURVE",
"121 112 CURVE SMOOTH",
"92 112 OFFCURVE",
"69 81 OFFCURVE"
);
}
);
width = 536;
},
{
layerId = "20CB0FE4-6866-45E2-B7C3-9D16484A9962";
paths = (
{
closed = 1;
nodes = (
"64 95 CURVE SMOOTH",
"64 49 OFFCURVE",
"150 -23 OFFCURVE",
"223 -43 CURVE",
"324 -222 LINE",
"402 -173 LINE",
"312 -40 LINE",
"413 -14 OFFCURVE",
"485 60 OFFCURVE",
"485 146 CURVE SMOOTH",
"485 220 OFFCURVE",
"440 284 OFFCURVE",
"392 324 CURVE",
"416 354 OFFCURVE",
"431 388 OFFCURVE",
"431 430 CURVE SMOOTH",
"431 520 OFFCURVE",
"327 636 OFFCURVE",
"228 636 CURVE SMOOTH",
"158 636 OFFCURVE",
"106 602 OFFCURVE",
"52 546 CURVE",
"137 458 LINE",
"178 504 OFFCURVE",
"211 532 OFFCURVE",
"272 532 CURVE SMOOTH",
"317 532 OFFCURVE",
"343 503 OFFCURVE",
"343 466 CURVE SMOOTH",
"343 403 OFFCURVE",
"269 362 OFFCURVE",
"165 330 CURVE",
"164 326 LINE",
"226 222 LINE",
"267 236 OFFCURVE",
"308 254 OFFCURVE",
"341 278 CURVE",
"365 257 OFFCURVE",
"380 224 OFFCURVE",
"380 185 CURVE SMOOTH",
"380 114 OFFCURVE",
"310 63 OFFCURVE",
"255 57 CURVE",
"213 125 OFFCURVE",
"179 175 OFFCURVE",
"144 175 CURVE SMOOTH",
"103 175 OFFCURVE",
"64 128 OFFCURVE"
);
}
);
width = 536;
}
);
unicode = 0969;
},
{
glyphname = dvFour;
lastChange = "2017-01-30 15:56:24 +0000";
layers = (
{
layerId = "7872E05C-01F2-413A-9F3F-5746E4900C50";
paths = (
{
closed = 1;
nodes = (
"287 348 LINE",
"59 622 LINE",
"30 601 LINE",
"263 321 LINE",
"183 229 LINE SMOOTH",
"151 193 OFFCURVE",
"134 171 OFFCURVE",
"134 131 CURVE SMOOTH",
"134 47 OFFCURVE",
"228 -44 OFFCURVE",
"320 -44 CURVE SMOOTH",
"420 -44 OFFCURVE",
"458 25 OFFCURVE",
"458 81 CURVE",
"458 125 OFFCURVE",
"439 178 OFFCURVE",
"391 237 CURVE SMOOTH",
"328 315 LINE",
"543 592 LINE",
"504 622 LINE"
);
},
{
closed = 1;
nodes = (
"216 182 CURVE",
"304 287 LINE",
"310 281 LINE SMOOTH",
"351 240 OFFCURVE",
"408 178 OFFCURVE",
"408 101 CURVE SMOOTH",
"408 34 OFFCURVE",
"365 0 OFFCURVE",
"300 0 CURVE SMOOTH",
"200 0 OFFCURVE",
"152 108 OFFCURVE"
);
}
);
width = 621;
},
{
layerId = "20CB0FE4-6866-45E2-B7C3-9D16484A9962";
paths = (
{
closed = 1;
nodes = (
"291 409 LINE",
"74 640 LINE",
"16 592 LINE",
"242 353 LINE",
"177 279 LINE SMOOTH",
"145 243 OFFCURVE",
"128 211 OFFCURVE",
"128 171 CURVE SMOOTH",
"128 87 OFFCURVE",
"243 -48 OFFCURVE",
"345 -48 CURVE SMOOTH",
"440 -48 OFFCURVE",
"504 26 OFFCURVE",
"504 97 CURVE SMOOTH",
"504 166 OFFCURVE",
"454 236 OFFCURVE",
"405 288 CURVE SMOOTH",
"377 317 LINE",
"582 556 LINE",
"488 632 LINE"
);
},
{
closed = 1;
nodes = (
"227 109 CURVE SMOOTH",
"227 141 OFFCURVE",
"256 174 OFFCURVE",
"269 190 CURVE SMOOTH",
"329 261 LINE",
"364 223 OFFCURVE",
"396 186 OFFCURVE",
"396 147 CURVE SMOOTH",
"396 86 OFFCURVE",
"342 42 OFFCURVE",
"292 42 CURVE SMOOTH",
"249 42 OFFCURVE",
"227 68 OFFCURVE"
);
}
);
width = 621;
}
);
unicode = 096A;
},
{
glyphname = dvFive;
lastChange = "2017-01-30 15:56:24 +0000";
layers = (
{
layerId = "7872E05C-01F2-413A-9F3F-5746E4900C50";
paths = (
{
closed = 1;
nodes = (
"308 -41 CURVE SMOOTH",
"580 -41 OFFCURVE",
"485 417 OFFCURVE",
"461 587 CURVE",
"405 614 LINE",
"419 542 OFFCURVE",
"432 434 OFFCURVE",
"439 360 CURVE",
"409 321 OFFCURVE",
"358 291 OFFCURVE",
"303 291 CURVE SMOOTH",
"215 291 OFFCURVE",
"169 377 OFFCURVE",
"169 446 CURVE SMOOTH",
"169 502 OFFCURVE",
"187 547 OFFCURVE",
"214 593 CURVE",
"170 622 LINE",
"138 557 OFFCURVE",
"125 515 OFFCURVE",
"125 463 CURVE SMOOTH",
"125 336 OFFCURVE",
"233 244 OFFCURVE",
"326 244 CURVE SMOOTH",
"370 244 OFFCURVE",
"420 274 OFFCURVE",
"445 296 CURVE",
"448 149 OFFCURVE",
"433 8 OFFCURVE",
"298 8 CURVE SMOOTH",
"280 8 OFFCURVE",
"259 16 OFFCURVE",
"249 23 CURVE",
"231 56 OFFCURVE",
"197 137 OFFCURVE",
"162 137 CURVE SMOOTH",
"131 137 OFFCURVE",
"112 110 OFFCURVE",
"112 81 CURVE SMOOTH",
"112 28 OFFCURVE",
"194 -14 OFFCURVE",
"225 -27 CURVE",
"342 -224 LINE",
"375 -199 LINE",
"263 -34 LINE",
"266 -35 OFFCURVE",
"288 -41 OFFCURVE"
);
}
);
width = 620;
},
{
layerId = "20CB0FE4-6866-45E2-B7C3-9D16484A9962";
paths = (
{
closed = 1;
nodes = (
"333 -48 CURVE SMOOTH",
"605 -48 OFFCURVE",
"548 395 OFFCURVE",
"521 568 CURVE",
"395 624 LINE",
"409 552 OFFCURVE",
"420 482 OFFCURVE",
"427 408 CURVE",
"404 376 OFFCURVE",
"355 327 OFFCURVE",
"300 327 CURVE SMOOTH",
"255 327 OFFCURVE",
"211 358 OFFCURVE",
"211 421 CURVE SMOOTH",
"211 477 OFFCURVE",
"232 521 OFFCURVE",
"259 567 CURVE",
"136 632 LINE",
"108 566 OFFCURVE",
"99 526 OFFCURVE",
"99 474 CURVE SMOOTH",
"99 347 OFFCURVE",
"263 235 OFFCURVE",
"351 235 CURVE SMOOTH",
"395 235 OFFCURVE",
"420 254 OFFCURVE",
"445 276 CURVE",
"445 158 OFFCURVE",
"417 48 OFFCURVE",
"305 48 CURVE SMOOTH",
"287 48 OFFCURVE",
"272 53 OFFCURVE",
"262 60 CURVE",
"217 132 OFFCURVE",
"176 178 OFFCURVE",
"141 178 CURVE SMOOTH",
"110 178 OFFCURVE",
"79 143 OFFCURVE",
"79 114 CURVE SMOOTH",
"79 61 OFFCURVE",
"147 13 OFFCURVE",
"227 -20 CURVE",
"346 -237 LINE",
"417 -192 LINE",
"315 -47 LINE",
"323 -48 OFFCURVE",
"326 -48 OFFCURVE"
);
}
);
width = 620;
}
);
unicode = 096B;
},
{
glyphname = dvSix;
lastChange = "2017-01-30 15:56:24 +0000";
layers = (
{
layerId = "7872E05C-01F2-413A-9F3F-5746E4900C50";
paths = (
{
closed = 1;
nodes = (
"429 298 LINE",
"410 340 LINE",
"330 357 OFFCURVE",
"269 350 OFFCURVE",
"214 333 CURVE",
"182 356 OFFCURVE",
"145 397 OFFCURVE",
"145 459 CURVE SMOOTH",
"145 551 OFFCURVE",
"247 609 OFFCURVE",
"414 547 CURVE",
"417 550 LINE",
"403 598 LINE",
"231 661 OFFCURVE",
"94 597 OFFCURVE",
"94 481 CURVE SMOOTH",
"94 400 OFFCURVE",
"143 346 OFFCURVE",
"182 316 CURVE",
"144 288 OFFCURVE",
"112 243 OFFCURVE",
"112 188 CURVE SMOOTH",
"112 81 OFFCURVE",
"229 -36 OFFCURVE",
"351 -36 CURVE SMOOTH",
"378 -36 OFFCURVE",
"406 -30 OFFCURVE",
"433 -14 CURVE",
"527 -183 LINE",
"568 -155 LINE",
"467 3 LINE",
"492 25 OFFCURVE",
"514 46 OFFCURVE",
"514 72 CURVE SMOOTH",
"514 112 OFFCURVE",
"476 164 OFFCURVE",
"433 164 CURVE SMOOTH",
"399 164 OFFCURVE",
"378 139 OFFCURVE",
"378 106 CURVE SMOOTH",
"378 87 OFFCURVE",
"391 54 OFFCURVE",
"403 32 CURVE",
"388 19 OFFCURVE",
"358 9 OFFCURVE",
"322 9 CURVE SMOOTH",
"235 9 OFFCURVE",
"164 91 OFFCURVE",
"164 161 CURVE SMOOTH",
"164 265 OFFCURVE",
"247 326 OFFCURVE",
"426 294 CURVE"
);
}
);
width = 598;
},
{
layerId = "20CB0FE4-6866-45E2-B7C3-9D16484A9962";
paths = (
{
closed = 1;
nodes = (
"441 265 LINE",
"397 373 LINE",
"326 388 OFFCURVE",
"263 387 OFFCURVE",
"213 371 CURVE",
"199 388 OFFCURVE",
"190 409 OFFCURVE",
"190 436 CURVE SMOOTH",
"190 530 OFFCURVE",
"283 558 OFFCURVE",
"431 498 CURVE",
"434 501 LINE",
"403 612 LINE",
"225 675 OFFCURVE",
"80 604 OFFCURVE",
"80 488 CURVE SMOOTH",
"80 423 OFFCURVE",
"117 374 OFFCURVE",
"153 342 CURVE",
"116 314 OFFCURVE",
"94 273 OFFCURVE",
"94 220 CURVE SMOOTH",
"94 105 OFFCURVE",
"222 -48 OFFCURVE",
"379 -48 CURVE SMOOTH",
"407 -48 OFFCURVE",
"433 -42 OFFCURVE",
"455 -32 CURVE",
"543 -179 LINE",
"622 -129 LINE",
"515 19 LINE",
"526 36 OFFCURVE",
"532 53 OFFCURVE",
"532 70 CURVE SMOOTH",
"532 110 OFFCURVE",
"485 191 OFFCURVE",
"442 191 CURVE SMOOTH",
"408 191 OFFCURVE",
"371 166 OFFCURVE",
"371 133 CURVE SMOOTH",
"371 114 OFFCURVE",
"378 97 OFFCURVE",
"390 75 CURVE",
"377 60 OFFCURVE",
"353 45 OFFCURVE",
"314 45 CURVE SMOOTH",
"255 45 OFFCURVE",
"201 96 OFFCURVE",
"201 155 CURVE SMOOTH",
"201 259 OFFCURVE",
"287 292 OFFCURVE",
"438 261 CURVE"
);
}
);
width = 598;
}
);
unicode = 096C;
},
{
glyphname = dvSeven;
lastChange = "2017-01-30 15:56:24 +0000";
layers = (
{
layerId = "7872E05C-01F2-413A-9F3F-5746E4900C50";
paths = (
{
closed = 1;
nodes = (
"579 215 LINE",
"512 213 OFFCURVE",
"397 255 OFFCURVE",
"397 354 CURVE SMOOTH",
"397 431 OFFCURVE",
"448 480 OFFCURVE",
"518 480 CURVE SMOOTH",
"627 480 OFFCURVE",
"677 380 OFFCURVE",
"677 290 CURVE SMOOTH",
"677 178 OFFCURVE",
"617 34 OFFCURVE",
"452 34 CURVE SMOOTH",
"229 34 OFFCURVE",
"121 340 OFFCURVE",
"97 622 CURVE",
"63 606 LINE",
"86 347 OFFCURVE",
"192 -16 OFFCURVE",
"484 -16 CURVE SMOOTH",
"636 -16 OFFCURVE",
"726 146 OFFCURVE",
"726 261 CURVE SMOOTH",
"726 395 OFFCURVE",
"625 530 OFFCURVE",
"496 530 CURVE SMOOTH",
"430 530 OFFCURVE",
"348 472 OFFCURVE",
"348 381 CURVE SMOOTH",
"348 265 OFFCURVE",
"442 193 OFFCURVE",
"561 185 CURVE",
"580 214 LINE"
);
}
);
width = 800;
},
{
layerId = "20CB0FE4-6866-45E2-B7C3-9D16484A9962";
paths = (
{
closed = 1;
nodes = (
"596 252 LINE",
"532 243 OFFCURVE",
"437 265 OFFCURVE",
"437 350 CURVE SMOOTH",
"437 421 OFFCURVE",
"490 450 OFFCURVE",
"532 450 CURVE SMOOTH",
"599 450 OFFCURVE",
"662 393 OFFCURVE",
"662 292 CURVE SMOOTH",
"662 180 OFFCURVE",
"595 68 OFFCURVE",
"441 68 CURVE SMOOTH",
"225 68 OFFCURVE",
"131 354 OFFCURVE",
"107 636 CURVE",
"27 599 LINE",
"50 337 OFFCURVE",
"162 -48 OFFCURVE",
"478 -48 CURVE SMOOTH",
"661 -48 OFFCURVE",
"763 102 OFFCURVE",
"763 228 CURVE SMOOTH",
"763 384 OFFCURVE",
"619 564 OFFCURVE",
"481 564 CURVE SMOOTH",
"389 564 OFFCURVE",
"320 491 OFFCURVE",
"320 400 CURVE SMOOTH",
"320 258 OFFCURVE",
"456 173 OFFCURVE",
"551 179 CURVE",
"597 251 LINE"
);
}
);
width = 800;
}
);
unicode = 096D;
},
{
glyphname = dvEight;
lastChange = "2017-01-30 15:56:24 +0000";
layers = (
{
layerId = "7872E05C-01F2-413A-9F3F-5746E4900C50";
paths = (
{
closed = 1;
nodes = (
"448 169 LINE",
"425 80 OFFCURVE",
"372 -1 OFFCURVE",
"273 -1 CURVE SMOOTH",
"190 -1 OFFCURVE",
"123 70 OFFCURVE",
"123 139 CURVE SMOOTH",
"123 166 OFFCURVE",
"132 196 OFFCURVE",
"153 226 CURVE SMOOTH",
"408 591 LINE",
"366 622 LINE",
"114 273 LINE",
"72 216 OFFCURVE",
"68 182 OFFCURVE",
"68 149 CURVE SMOOTH",
"68 76 OFFCURVE",
"175 -48 OFFCURVE",
"292 -48 CURVE SMOOTH",
"419 -48 OFFCURVE",
"464 68 OFFCURVE",
"491 141 CURVE",
"452 170 LINE"
);
}
);
width = 549;
},
{
layerId = "20CB0FE4-6866-45E2-B7C3-9D16484A9962";
paths = (
{
closed = 1;
nodes = (
"418 206 LINE",
"389 129 OFFCURVE",
"330 57 OFFCURVE",
"257 57 CURVE SMOOTH",
"209 57 OFFCURVE",
"164 92 OFFCURVE",
"164 136 CURVE SMOOTH",
"164 165 OFFCURVE",
"174 195 OFFCURVE",
"209 240 CURVE SMOOTH",
"463 569 LINE",
"351 636 LINE",
"73 295 LINE",
"46 262 OFFCURVE",
"36 226 OFFCURVE",
"36 193 CURVE SMOOTH",
"36 79 OFFCURVE",
"185 -55 OFFCURVE",
"302 -55 CURVE SMOOTH",
"432 -55 OFFCURVE",
"494 45 OFFCURVE",
"528 131 CURVE",
"422 207 LINE"
);
}
);
width = 549;
}
);
unicode = 096E;
},
{
glyphname = dvNine;
lastChange = "2017-01-30 15:56:24 +0000";
layers = (
{
layerId = "7872E05C-01F2-413A-9F3F-5746E4900C50";
paths = (
{
closed = 1;
nodes = (
"329 -21 LINE",
"346 -47 OFFCURVE",
"376 -80 OFFCURVE",
"376 -109 CURVE SMOOTH",
"376 -134 OFFCURVE",
"350 -159 OFFCURVE",
"316 -178 CURVE",
"354 -207 LINE",
"387 -190 OFFCURVE",
"421 -160 OFFCURVE",
"421 -123 CURVE SMOOTH",
"421 -104 OFFCURVE",
"413 -81 OFFCURVE",
"400 -62 CURVE SMOOTH",
"208 214 LINE",
"317 239 OFFCURVE",
"436 309 OFFCURVE",
"436 426 CURVE SMOOTH",
"436 508 OFFCURVE",
"343 612 OFFCURVE",
"230 612 CURVE SMOOTH",
"138 612 OFFCURVE",
"52 540 OFFCURVE",
"52 434 CURVE SMOOTH",
"52 386 OFFCURVE",
"68 340 OFFCURVE",
"104 290 CURVE"
);
},
{
closed = 1;
nodes = (
"178 258 CURVE",
"127 309 OFFCURVE",
"101 364 OFFCURVE",
"101 415 CURVE SMOOTH",
"101 494 OFFCURVE",
"163 561 OFFCURVE",
"258 561 CURVE SMOOTH",
"331 561 OFFCURVE",
"388 511 OFFCURVE",
"388 442 CURVE SMOOTH",
"388 332 OFFCURVE",
"274 279 OFFCURVE"
);
}
);
width = 483;
},
{
layerId = "20CB0FE4-6866-45E2-B7C3-9D16484A9962";
paths = (
{
closed = 1;
nodes = (
"286 -9 LINE",
"300 -29 OFFCURVE",
"309 -48 OFFCURVE",
"309 -65 CURVE SMOOTH",
"309 -88 OFFCURVE",
"294 -108 OFFCURVE",
"260 -123 CURVE",
"364 -207 LINE",
"400 -189 OFFCURVE",
"432 -163 OFFCURVE",
"432 -125 CURVE SMOOTH",
"432 -105 OFFCURVE",
"426 -84 OFFCURVE",
"406 -55 CURVE SMOOTH",
"226 207 LINE",
"346 231 OFFCURVE",
"444 302 OFFCURVE",
"444 419 CURVE SMOOTH",
"444 501 OFFCURVE",
"345 641 OFFCURVE",
"208 641 CURVE SMOOTH",
"116 641 OFFCURVE",
"17 553 OFFCURVE",
"17 447 CURVE SMOOTH",
"17 399 OFFCURVE",
"32 350 OFFCURVE",
"68 300 CURVE"
);
},
{
closed = 1;
nodes = (
"163 308 CURVE",
"145 327 OFFCURVE",
"134 358 OFFCURVE",
"134 393 CURVE SMOOTH",
"134 488 OFFCURVE",
"205 535 OFFCURVE",
"269 535 CURVE SMOOTH",
"320 535 OFFCURVE",
"347 510 OFFCURVE",
"347 470 CURVE SMOOTH",
"347 369 OFFCURVE",
"227 318 OFFCURVE"
);
}
);
width = 483;
}
);
unicode = 096F;
},
{
glyphname = dvAbbreviationsign;
lastChange = "2017-01-30 15:56:24 +0000";
layers = (
{
layerId = "7872E05C-01F2-413A-9F3F-5746E4900C50";
paths = (
{
closed = 1;
nodes = (
"264 373 CURVE",
"174 371 OFFCURVE",
"115 304 OFFCURVE",
"115 229 CURVE SMOOTH",
"115 148 OFFCURVE",
"172 104 OFFCURVE",
"247 104 CURVE",
"339 108 OFFCURVE",
"395 178 OFFCURVE",
"395 253 CURVE SMOOTH",
"395 321 OFFCURVE",
"354 373 OFFCURVE"
);
},
{
closed = 1;
nodes = (
"226 133 CURVE SMOOTH",
"175 133 OFFCURVE",
"150 171 OFFCURVE",
"150 215 CURVE SMOOTH",
"150 305 OFFCURVE",
"228 344 OFFCURVE",
"286 344 CURVE SMOOTH",
"334 344 OFFCURVE",
"362 312 OFFCURVE",
"362 271 CURVE SMOOTH",
"362 204 OFFCURVE",
"313 133 OFFCURVE"
);
}
);
width = 509;
},
{
layerId = "20CB0FE4-6866-45E2-B7C3-9D16484A9962";
paths = (
{
closed = 1;
nodes = (
"243 405 CURVE",
"153 403 OFFCURVE",
"94 336 OFFCURVE",
"94 261 CURVE SMOOTH",
"94 170 OFFCURVE",
"174 97 OFFCURVE",
"265 97 CURVE",
"357 101 OFFCURVE",
"415 167 OFFCURVE",
"415 242 CURVE SMOOTH",
"415 332 OFFCURVE",
"337 405 OFFCURVE"
);
},
{
closed = 1;
nodes = (
"223 173 CURVE",
"197 173 OFFCURVE",
"179 191 OFFCURVE",
"179 220 CURVE SMOOTH",
"179 280 OFFCURVE",
"240 329 OFFCURVE",
"286 329 CURVE",
"312 329 OFFCURVE",
"329 311 OFFCURVE",
"329 282 CURVE SMOOTH",
"329 222 OFFCURVE",
"268 173 OFFCURVE"
);
}
);
width = 509;
}
);
unicode = 0970;
},
{
glyphname = dvK_SSA;
lastChange = "2017-01-30 15:56:24 +0000";
layers = (
{
layerId = "7872E05C-01F2-413A-9F3F-5746E4900C50";
paths = (
{
closed = 1;
nodes = (
"717 625 LINE",
"420 625 LINE",
"452 577 LINE",
"541 577 LINE",
"541 368 LINE",
"513 343 OFFCURVE",
"467 327 OFFCURVE",
"412 327 CURVE SMOOTH",
"364 327 OFFCURVE",
"321 344 OFFCURVE",
"285 364 CURVE",
"314 391 OFFCURVE",
"389 447 OFFCURVE",
"389 496 CURVE SMOOTH",
"389 571 OFFCURVE",
"320 633 OFFCURVE",
"237 633 CURVE SMOOTH",
"170 633 OFFCURVE",
"115 580 OFFCURVE",
"115 518 CURVE SMOOTH",
"115 447 OFFCURVE",
"172 403 OFFCURVE",
"211 375 CURVE",
"130 313 OFFCURVE",
"62 259 OFFCURVE",
"62 191 CURVE SMOOTH",
"62 98 OFFCURVE",
"155 15 OFFCURVE",
"246 15 CURVE SMOOTH",
"281 15 OFFCURVE",
"313 32 OFFCURVE",
"325 40 CURVE",
"406 -77 LINE",
"450 -50 LINE",
"351 57 LINE",
"371 73 OFFCURVE",
"385 95 OFFCURVE",
"385 115 CURVE SMOOTH",
"385 152 OFFCURVE",
"347 193 OFFCURVE",
"319 193 CURVE SMOOTH",
"294 193 OFFCURVE",
"266 173 OFFCURVE",
"266 144 CURVE SMOOTH",
"266 120 OFFCURVE",
"281 101 OFFCURVE",
"294 81 CURVE",
"281 65 OFFCURVE",
"259 58 OFFCURVE",
"231 58 CURVE SMOOTH",
"165 58 OFFCURVE",
"108 106 OFFCURVE",
"108 164 CURVE SMOOTH",
"108 232 OFFCURVE",
"192 291 OFFCURVE",
"259 344 CURVE",
"309 315 OFFCURVE",
"389 283 OFFCURVE",
"460 283 CURVE SMOOTH",
"487 283 OFFCURVE",
"518 291 OFFCURVE",
"541 303 CURVE",
"541 -9 LINE",
"597 -50 LINE",
"597 577 LINE",
"749 577 LINE"
);
},
{
closed = 1;
nodes = (
"260 593 CURVE SMOOTH",
"319 593 OFFCURVE",
"342 555 OFFCURVE",
"342 521 CURVE SMOOTH",
"342 466 OFFCURVE",
"270 419 OFFCURVE",
"236 396 CURVE",
"192 426 OFFCURVE",
"161 453 OFFCURVE",
"161 498 CURVE SMOOTH",
"161 552 OFFCURVE",
"206 593 OFFCURVE"
);
}
);
width = 697;
},
{
layerId = "20CB0FE4-6866-45E2-B7C3-9D16484A9962";
paths = (
{
closed = 1;
nodes = (
"752 635 LINE",
"384 635 LINE",
"456 531 LINE",
"532 531 LINE",
"532 387 LINE",
"501 354 OFFCURVE",
"443 326 OFFCURVE",
"390 326 CURVE SMOOTH",
"363 326 OFFCURVE",
"330 330 OFFCURVE",
"306 341 CURVE",
"377 405 OFFCURVE",
"397 444 OFFCURVE",
"397 474 CURVE SMOOTH",
"397 562 OFFCURVE",
"311 649 OFFCURVE",
"221 649 CURVE SMOOTH",
"139 649 OFFCURVE",
"80 594 OFFCURVE",
"80 525 CURVE SMOOTH",
"80 461 OFFCURVE",
"127 392 OFFCURVE",
"160 365 CURVE",
"79 303 OFFCURVE",
"32 270 OFFCURVE",
"32 202 CURVE SMOOTH",
"32 104 OFFCURVE",
"154 -20 OFFCURVE",
"263 -20 CURVE SMOOTH",
"290 -20 OFFCURVE",
"317 -17 OFFCURVE",
"343 -2 CURVE",
"436 -143 LINE",
"515 -82 LINE",
"409 41 LINE",
"417 50 OFFCURVE",
"427 67 OFFCURVE",
"427 93 CURVE SMOOTH",
"427 125 OFFCURVE",
"383 198 OFFCURVE",
"343 198 CURVE SMOOTH",
"310 198 OFFCURVE",
"276 174 OFFCURVE",
"276 142 CURVE SMOOTH",
"276 127 OFFCURVE",
"279 113 OFFCURVE",
"292 93 CURVE",
"277 82 OFFCURVE",
"255 77 OFFCURVE",
"232 77 CURVE SMOOTH",
"177 77 OFFCURVE",
"137 110 OFFCURVE",
"137 166 CURVE SMOOTH",
"137 226 OFFCURVE",
"217 272 OFFCURVE",
"243 291 CURVE",
"296 253 OFFCURVE",
"372 227 OFFCURVE",
"441 227 CURVE SMOOTH",
"472 227 OFFCURVE",
"503 235 OFFCURVE",
"532 248 CURVE",
"532 32 LINE",
"662 -40 LINE",
"662 531 LINE",
"824 531 LINE"
);
},
{
closed = 1;
nodes = (
"251 567 CURVE SMOOTH",
"284 567 OFFCURVE",
"309 550 OFFCURVE",
"309 515 CURVE SMOOTH",
"309 479 OFFCURVE",
"240 426 OFFCURVE",
"219 411 CURVE",
"190 429 OFFCURVE",
"177 466 OFFCURVE",
"177 494 CURVE SMOOTH",
"177 534 OFFCURVE",
"209 567 OFFCURVE"
);
}
);
width = 732;
}
);
},
{
glyphname = dvJ_NYA;
lastChange = "2017-01-30 15:56:24 +0000";
layers = (
{
layerId = "7872E05C-01F2-413A-9F3F-5746E4900C50";
paths = (
{
closed = 1;
nodes = (
"599 -50 LINE",
"599 577 LINE",
"751 577 LINE",
"719 625 LINE",
"-52 625 LINE",
"-20 577 LINE",
"543 577 LINE",
"543 394 LINE",
"226 394 LINE",
"222 388 LINE",
"269 341 OFFCURVE",
"348 277 OFFCURVE",
"348 199 CURVE SMOOTH",
"348 137 OFFCURVE",
"309 101 OFFCURVE",
"249 101 CURVE SMOOTH",
"220 101 OFFCURVE",
"192 114 OFFCURVE",
"173 130 CURVE",
"160 164 OFFCURVE",
"127 271 OFFCURVE",
"98 271 CURVE SMOOTH",
"74 271 OFFCURVE",
"61 257 OFFCURVE",
"61 231 CURVE SMOOTH",
"61 200 OFFCURVE",
"101 151 OFFCURVE",
"146 107 CURVE SMOOTH",
"148 105 OFFCURVE",
"248 -98 OFFCURVE",
"248 -98 CURVE",
"287 -74 LINE",
"206 67 LINE",
"226 60 OFFCURVE",
"247 56 OFFCURVE",
"271 56 CURVE SMOOTH",
"348 56 OFFCURVE",
"391 113 OFFCURVE",
"391 177 CURVE SMOOTH",
"391 239 OFFCURVE",
"361 298 OFFCURVE",
"308 344 CURVE",
"543 344 LINE",
"543 -9 LINE"
);
}
);
width = 699;
},
{
layerId = "20CB0FE4-6866-45E2-B7C3-9D16484A9962";
paths = (
{
closed = 1;
nodes = (
"680 -40 LINE",
"680 531 LINE",
"843 531 LINE",
"771 635 LINE",
"-92 635 LINE",
"-20 531 LINE",
"550 531 LINE",
"550 436 LINE",
"251 436 LINE",
"236 412 LINE",
"308 342 OFFCURVE",
"351 274 OFFCURVE",
"351 217 CURVE SMOOTH",
"351 162 OFFCURVE",
"322 128 OFFCURVE",
"263 128 CURVE SMOOTH",
"228 128 OFFCURVE",
"216 136 OFFCURVE",
"216 136 CURVE",
"165 231 OFFCURVE",
"130 306 OFFCURVE",
"97 306 CURVE SMOOTH",
"66 306 OFFCURVE",
"38 270 OFFCURVE",
"38 243 CURVE SMOOTH",
"38 205 OFFCURVE",
"91 136 OFFCURVE",
"159 87 CURVE",
"268 -134 LINE",
"345 -83 LINE",
"271 34 LINE",
"282 32 OFFCURVE",
"292 31 OFFCURVE",
"302 31 CURVE SMOOTH",
"388 31 OFFCURVE",
"451 93 OFFCURVE",
"451 173 CURVE SMOOTH",
"451 230 OFFCURVE",
"428 280 OFFCURVE",
"391 321 CURVE",
"550 321 LINE",
"550 37 LINE"
);
}
);
width = 750;
}
);
},
{
glyphname = dvReph;
lastChange = "2017-01-30 15:56:24 +0000";
layers = (
{
anchors = (
{
name = _abvm;
position = "{-100, 625}";
}
);
layerId = "7872E05C-01F2-413A-9F3F-5746E4900C50";
paths = (
{
closed = 1;
nodes = (
"-8 853 LINE",
"-34 866 OFFCURVE",
"-59 872 OFFCURVE",
"-90 872 CURVE SMOOTH",
"-155 872 OFFCURVE",
"-210 832 OFFCURVE",
"-210 751 CURVE SMOOTH",
"-210 699 OFFCURVE",
"-183 635 OFFCURVE",
"-127 600 CURVE",
"-99 614 LINE",
"-140 640 OFFCURVE",
"-164 686 OFFCURVE",
"-164 730 CURVE SMOOTH",
"-164 803 OFFCURVE",
"-120 832 OFFCURVE",
"-66 832 CURVE SMOOTH",
"-51 832 OFFCURVE",
"-39 830 OFFCURVE",
"-25 826 CURVE"
);
}
);
width = 0;
},
{
anchors = (
{
name = _abvm;
position = "{-70, 635}";
}
);
layerId = "20CB0FE4-6866-45E2-B7C3-9D16484A9962";
paths = (
{
closed = 1;
nodes = (
"23 885 LINE",
"-10 911 OFFCURVE",
"-49 931 OFFCURVE",
"-106 931 CURVE SMOOTH",
"-182 931 OFFCURVE",
"-249 881 OFFCURVE",
"-249 798 CURVE SMOOTH",
"-249 717 OFFCURVE",
"-190 636 OFFCURVE",
"-144 601 CURVE",
"-84 624 LINE",
"-117 656 OFFCURVE",
"-148 694 OFFCURVE",
"-148 744 CURVE SMOOTH",
"-148 804 OFFCURVE",
"-100 839 OFFCURVE",
"-47 839 CURVE SMOOTH",
"-33 839 OFFCURVE",
"-19 837 OFFCURVE",
"-4 832 CURVE"
);
}
);
width = 0;
}
);
},
{
glyphname = dvRashtrasign;
lastChange = "2017-01-30 15:56:24 +0000";
layers = (
{
layerId = "7872E05C-01F2-413A-9F3F-5746E4900C50";
paths = (
{
closed = 1;
nodes = (
"-358 -177 LINE",
"-208 3 LINE",
"-57 -177 LINE",
"-30 -159 LINE",
"-206 45 LINE",
"-226 45 LINE",
"-398 -145 LINE"
);
}
);
width = 0;
},
{
layerId = "20CB0FE4-6866-45E2-B7C3-9D16484A9962";
paths = (
{
closed = 1;
nodes = (
"-321 -187 LINE",
"-180 -28 LINE",
"-53 -187 LINE",
"17 -141 LINE",
"-149 35 LINE",
"-271 35 LINE",
"-425 -104 LINE"
);
}
);
width = 0;
}
);
},
{
glyphname = dvK;
lastChange = "2017-01-30 15:56:24 +0000";
layers = (
{
layerId = "7872E05C-01F2-413A-9F3F-5746E4900C50";
paths = (
{
closed = 1;
nodes = (
"726 348 LINE",
"692 408 OFFCURVE",
"634 456 OFFCURVE",
"561 456 CURVE SMOOTH",
"511 456 OFFCURVE",
"459 418 OFFCURVE",
"433 376 CURVE",
"439 577 LINE",
"680 577 LINE",
"648 625 LINE",
"-52 625 LINE",
"-20 577 LINE",
"383 577 LINE",
"383 265 LINE",
"349 203 OFFCURVE",
"302 148 OFFCURVE",
"229 148 CURVE SMOOTH",
"161 148 OFFCURVE",
"101 211 OFFCURVE",
"101 281 CURVE SMOOTH",
"101 368 OFFCURVE",
"159 408 OFFCURVE",
"228 408 CURVE SMOOTH",
"248 408 OFFCURVE",
"269 405 OFFCURVE",
"290 398 CURVE",
"273 445 LINE",
"250 454 OFFCURVE",
"226 458 OFFCURVE",
"203 458 CURVE SMOOTH",
"120 458 OFFCURVE",
"50 403 OFFCURVE",
"50 317 CURVE SMOOTH",
"50 213 OFFCURVE",
"151 98 OFFCURVE",
"249 98 CURVE SMOOTH",
"299 98 OFFCURVE",
"353 130 OFFCURVE",
"389 188 CURVE",
"383 -9 LINE",
"439 -50 LINE",
"439 288 LINE",
"476 360 OFFCURVE",
"519 406 OFFCURVE",
"585 406 CURVE SMOOTH",
"638 406 OFFCURVE",
"679 367 OFFCURVE",
"705 324 CURVE"
);
}
);
width = 628;
},
{
layerId = "20CB0FE4-6866-45E2-B7C3-9D16484A9962";
paths = (
{
closed = 1;
nodes = (
"703 349 LINE",
"657 414 OFFCURVE",
"588 465 OFFCURVE",
"535 465 CURVE SMOOTH",
"501 465 OFFCURVE",
"474 457 OFFCURVE",
"453 445 CURVE",
"454 481 OFFCURVE",
"456 503 OFFCURVE",
"457 531 CURVE",
"657 531 LINE",
"585 635 LINE",
"-92 635 LINE",
"-20 531 LINE",
"327 531 LINE",
"327 257 LINE",
"310 213 OFFCURVE",
"272 186 OFFCURVE",
"228 186 CURVE SMOOTH",
"179 186 OFFCURVE",
"142 215 OFFCURVE",
"142 262 CURVE SMOOTH",
"142 317 OFFCURVE",
"193 345 OFFCURVE",
"238 345 CURVE SMOOTH",
"252 345 OFFCURVE",
"274 344 OFFCURVE",
"295 334 CURVE",
"256 455 LINE",
"232 466 OFFCURVE",
"206 470 OFFCURVE",
"181 470 CURVE SMOOTH",
"115 470 OFFCURVE",
"37 427 OFFCURVE",
"37 317 CURVE SMOOTH",
"37 191 OFFCURVE",
"172 68 OFFCURVE",
"264 68 CURVE SMOOTH",
"293 68 OFFCURVE",
"312 76 OFFCURVE",
"331 85 CURVE",
"326 25 LINE",
"457 -40 LINE",
"457 265 LINE",
"482 311 OFFCURVE",
"522 340 OFFCURVE",
"569 340 CURVE SMOOTH",
"607 340 OFFCURVE",
"626 326 OFFCURVE",
"645 291 CURVE"
);
}
);
width = 565;
}
);
},
{
glyphname = dvKH;
lastChange = "2017-01-30 15:56:24 +0000";
layers = (
{
layerId = "7872E05C-01F2-413A-9F3F-5746E4900C50";
paths = (
{
closed = 1;
nodes = (
"650 577 LINE",
"618 625 LINE",
"-52 625 LINE",
"-20 577 LINE",
"194 577 LINE",
"194 333 LINE SMOOTH",
"194 290 OFFCURVE",
"172 272 OFFCURVE",
"138 272 CURVE SMOOTH",
"114 272 OFFCURVE",
"92 284 OFFCURVE",
"71 305 CURVE",
"50 285 LINE",
"133 147 OFFCURVE",
"239 -12 OFFCURVE",
"427 -12 CURVE SMOOTH",
"567 -12 OFFCURVE",
"688 120 OFFCURVE",
"688 248 CURVE SMOOTH",
"688 289 OFFCURVE",
"672 336 OFFCURVE",
"648 367 CURVE SMOOTH",
"610 416 OFFCURVE",
"558 442 OFFCURVE",
"495 442 CURVE SMOOTH",
"414 442 OFFCURVE",
"359 383 OFFCURVE",
"359 310 CURVE SMOOTH",
"359 186 OFFCURVE",
"467 127 OFFCURVE",
"591 130 CURVE",
"547 71 OFFCURVE",
"489 34 OFFCURVE",
"403 34 CURVE SMOOTH",
"288 34 OFFCURVE",
"186 137 OFFCURVE",
"141 213 CURVE",
"207 218 OFFCURVE",
"248 261 OFFCURVE",
"248 315 CURVE SMOOTH",
"248 577 LINE"
);
},
{
closed = 1;
nodes = (
"616 164 CURVE",
"529 153 OFFCURVE",
"405 186 OFFCURVE",
"405 290 CURVE SMOOTH",
"405 366 OFFCURVE",
"458 402 OFFCURVE",
"511 402 CURVE SMOOTH",
"585 402 OFFCURVE",
"651 345 OFFCURVE",
"651 270 CURVE SMOOTH",
"651 221 OFFCURVE",
"631 180 OFFCURVE"
);
}
);
width = 598;
},
{
layerId = "20CB0FE4-6866-45E2-B7C3-9D16484A9962";
paths = (
{
closed = 1;
nodes = (
"614 531 LINE",
"542 635 LINE",
"-92 635 LINE",
"-20 531 LINE",
"145 531 LINE",
"145 350 LINE SMOOTH",
"145 338 OFFCURVE",
"139 334 OFFCURVE",
"130 334 CURVE SMOOTH",
"116 334 OFFCURVE",
"95 346 OFFCURVE",
"71 370 CURVE",
"12 317 LINE",
"101 174 OFFCURVE",
"213 11 OFFCURVE",
"388 11 CURVE SMOOTH",
"489 11 OFFCURVE",
"656 84 OFFCURVE",
"656 263 CURVE SMOOTH",
"656 307 OFFCURVE",
"632 370 OFFCURVE",
"555 428 CURVE",
"525 450 OFFCURVE",
"486 467 OFFCURVE",
"445 467 CURVE SMOOTH",
"375 467 OFFCURVE",
"311 411 OFFCURVE",
"311 334 CURVE SMOOTH",
"311 236 OFFCURVE",
"397 175 OFFCURVE",
"478 159 CURVE",
"453 137 OFFCURVE",
"414 123 OFFCURVE",
"365 123 CURVE SMOOTH",
"290 123 OFFCURVE",
"223 159 OFFCURVE",
"185 210 CURVE",
"256 225 OFFCURVE",
"273 271 OFFCURVE",
"273 326 CURVE SMOOTH",
"273 531 LINE"
);
},
{
closed = 1;
nodes = (
"540 223 CURVE",
"491 225 OFFCURVE",
"435 250 OFFCURVE",
"435 302 CURVE SMOOTH",
"435 335 OFFCURVE",
"461 364 OFFCURVE",
"496 364 CURVE SMOOTH",
"538 364 OFFCURVE",
"567 332 OFFCURVE",
"567 294 CURVE SMOOTH",
"567 264 OFFCURVE",
"552 235 OFFCURVE"
);
}
);
width = 522;
}
);
},
{
glyphname = dvG;
lastChange = "2017-01-30 15:56:24 +0000";
layers = (
{
layerId = "7872E05C-01F2-413A-9F3F-5746E4900C50";
paths = (
{
closed = 1;
nodes = (
"311 625 LINE",
"-52 625 LINE",
"-20 577 LINE",
"130 577 LINE",
"130 334 LINE",
"103 334 OFFCURVE",
"64 333 OFFCURVE",
"64 309 CURVE SMOOTH",
"64 270 OFFCURVE",
"126 198 OFFCURVE",
"163 198 CURVE SMOOTH",
"183 198 OFFCURVE",
"186 218 OFFCURVE",
"186 246 CURVE SMOOTH",
"186 577 LINE",
"343 577 LINE"
);
}
);
width = 291;
},
{
layerId = "20CB0FE4-6866-45E2-B7C3-9D16484A9962";
paths = (
{
closed = 1;
nodes = (
"292 635 LINE",
"-96 635 LINE",
"-20 531 LINE",
"89 531 LINE",
"89 364 LINE",
"42 364 OFFCURVE",
"21 351 OFFCURVE",
"21 322 CURVE SMOOTH",
"21 265 OFFCURVE",
"119 170 OFFCURVE",
"174 170 CURVE SMOOTH",
"201 170 OFFCURVE",
"214 185 OFFCURVE",
"214 248 CURVE SMOOTH",
"214 531 LINE",
"370 531 LINE"
);
}
);
width = 272;
}
);
},
{
glyphname = dvGH;
lastChange = "2017-01-30 15:56:24 +0000";
layers = (
{
layerId = "7872E05C-01F2-413A-9F3F-5746E4900C50";
paths = (
{
closed = 1;
nodes = (
"449 207 LINE",
"411 160 OFFCURVE",
"353 110 OFFCURVE",
"273 110 CURVE SMOOTH",
"199 110 OFFCURVE",
"121 161 OFFCURVE",
"121 232 CURVE SMOOTH",
"121 307 OFFCURVE",
"193 323 OFFCURVE",
"257 323 CURVE SMOOTH",
"286 323 OFFCURVE",
"312 320 OFFCURVE",
"330 317 CURVE",
"312 368 LINE",
"292 371 OFFCURVE",
"271 373 OFFCURVE",
"249 373 CURVE SMOOTH",
"226 373 OFFCURVE",
"203 371 OFFCURVE",
"181 366 CURVE",
"146 395 OFFCURVE",
"120 428 OFFCURVE",
"120 466 CURVE SMOOTH",
"120 525 OFFCURVE",
"167 566 OFFCURVE",
"210 577 CURVE",
"433 577 LINE",
"401 625 LINE",
"-52 625 LINE",
"-20 577 LINE",
"42 577 LINE",
"126 579 LINE",
"88 558 OFFCURVE",
"70 516 OFFCURVE",
"70 484 CURVE SMOOTH",
"70 442 OFFCURVE",
"93 389 OFFCURVE",
"147 357 CURVE",
"103 340 OFFCURVE",
"71 310 OFFCURVE",
"71 258 CURVE SMOOTH",
"71 154 OFFCURVE",
"190 63 OFFCURVE",
"306 63 CURVE SMOOTH",
"365 63 OFFCURVE",
"430 102 OFFCURVE",
"479 169 CURVE"
);
}
);
width = 381;
},
{
layerId = "20CB0FE4-6866-45E2-B7C3-9D16484A9962";
paths = (
{
closed = 1;
nodes = (
"433 318 LINE",
"372 235 OFFCURVE",
"313 181 OFFCURVE",
"239 181 CURVE SMOOTH",
"194 181 OFFCURVE",
"168 207 OFFCURVE",
"168 240 CURVE SMOOTH",
"168 288 OFFCURVE",
"221 299 OFFCURVE",
"264 299 CURVE SMOOTH",
"293 299 OFFCURVE",
"324 292 OFFCURVE",
"344 285 CURVE",
"308 406 LINE",
"289 412 OFFCURVE",
"261 417 OFFCURVE",
"238 417 CURVE SMOOTH",
"221 417 OFFCURVE",
"205 415 OFFCURVE",
"189 412 CURVE",
"177 424 OFFCURVE",
"170 442 OFFCURVE",
"170 461 CURVE SMOOTH",
"170 485 OFFCURVE",
"188 521 OFFCURVE",
"215 531 CURVE",
"462 531 LINE",
"391 635 LINE",
"-92 635 LINE",
"-20 531 LINE",
"20 531 LINE SMOOTH",
"27 531 OFFCURVE",
"49 533 OFFCURVE",
"57 533 CURVE",
"52 522 OFFCURVE",
"47 505 OFFCURVE",
"47 487 CURVE SMOOTH",
"47 445 OFFCURVE",
"84 412 OFFCURVE",
"114 390 CURVE",
"76 369 OFFCURVE",
"54 334 OFFCURVE",
"54 292 CURVE SMOOTH",
"54 186 OFFCURVE",
"178 72 OFFCURVE",
"298 72 CURVE SMOOTH",
"349 72 OFFCURVE",
"425 97 OFFCURVE",
"508 220 CURVE"
);
}
);
width = 371;
}
);
},
{
glyphname = dvC;
lastChange = "2017-01-30 15:56:24 +0000";
layers = (
{
layerId = "7872E05C-01F2-413A-9F3F-5746E4900C50";
paths = (
{
closed = 1;
nodes = (
"504 577 LINE",
"472 625 LINE",
"-52 625 LINE",
"-20 577 LINE"
);
},
{
closed = 1;
nodes = (
"512 237 LINE",
"466 169 OFFCURVE",
"400 123 OFFCURVE",
"324 123 CURVE SMOOTH",
"256 123 OFFCURVE",
"195 178 OFFCURVE",
"195 242 CURVE SMOOTH",
"195 321 OFFCURVE",
"261 363 OFFCURVE",
"336 375 CURVE",
"437 375 LINE",
"404 425 LINE",
"9 425 LINE",
"42 375 LINE",
"219 377 LINE",
"178 361 OFFCURVE",
"143 312 OFFCURVE",
"143 269 CURVE SMOOTH",
"143 167 OFFCURVE",
"259 75 OFFCURVE",
"351 75 CURVE SMOOTH",
"441 75 OFFCURVE",
"493 129 OFFCURVE",
"544 197 CURVE"
);
}
);
width = 452;
},
{
layerId = "20CB0FE4-6866-45E2-B7C3-9D16484A9962";
paths = (
{
closed = 1;
nodes = (
"497 531 LINE",
"434 635 LINE",
"-84 635 LINE",
"-20 531 LINE"
);
},
{
closed = 1;
nodes = (
"478 330 LINE",
"428 239 OFFCURVE",
"363 189 OFFCURVE",
"297 189 CURVE SMOOTH",
"262 189 OFFCURVE",
"231 204 OFFCURVE",
"231 247 CURVE SMOOTH",
"231 291 OFFCURVE",
"273 333 OFFCURVE",
"341 343 CURVE",
"434 343 LINE",
"362 448 LINE",
"-14 448 LINE",
"58 342 LINE",
"144 347 LINE",
"129 332 OFFCURVE",
"120 311 OFFCURVE",
"120 290 CURVE SMOOTH",
"120 186 OFFCURVE",
"247 77 OFFCURVE",
"337 77 CURVE SMOOTH",
"397 77 OFFCURVE",
"459 96 OFFCURVE",
"558 227 CURVE"
);
}
);
width = 414;
}
);
},
{
glyphname = dvCH;
lastChange = "2017-01-30 15:56:24 +0000";
layers = (
{
layerId = "7872E05C-01F2-413A-9F3F-5746E4900C50";
paths = (
{
closed = 1;
nodes = (
"656 8 CURVE",
"685 42 LINE",
"646 65 OFFCURVE",
"601 93 OFFCURVE",
"557 125 CURVE",
"602 177 OFFCURVE",
"631 242 OFFCURVE",
"631 312 CURVE SMOOTH",
"631 389 OFFCURVE",
"591 486 OFFCURVE",
"497 486 CURVE SMOOTH",
"414 486 OFFCURVE",
"371 414 OFFCURVE",
"371 339 CURVE SMOOTH",
"371 250 OFFCURVE",
"423 191 OFFCURVE",
"491 133 CURVE",
"436 82 OFFCURVE",
"364 50 OFFCURVE",
"288 50 CURVE SMOOTH",
"194 50 OFFCURVE",
"141 100 OFFCURVE",
"141 158 CURVE SMOOTH",
"141 227 OFFCURVE",
"200 241 OFFCURVE",
"252 241 CURVE SMOOTH",
"279 241 OFFCURVE",
"305 237 OFFCURVE",
"318 235 CURVE",
"299 287 LINE",
"284 289 OFFCURVE",
"267 291 OFFCURVE",
"248 291 CURVE SMOOTH",
"224 291 OFFCURVE",
"198 288 OFFCURVE",
"174 282 CURVE",
"147 303 OFFCURVE",
"115 332 OFFCURVE",
"115 368 CURVE SMOOTH",
"115 432 OFFCURVE",
"169 451 OFFCURVE",
"236 451 CURVE SMOOTH",
"259 451 OFFCURVE",
"284 449 OFFCURVE",
"309 445 CURVE",
"291 496 LINE",
"267 501 OFFCURVE",
"242 504 OFFCURVE",
"217 504 CURVE SMOOTH",
"135 504 OFFCURVE",
"60 472 OFFCURVE",
"60 392 CURVE SMOOTH",
"60 338 OFFCURVE",
"103 296 OFFCURVE",
"139 270 CURVE",
"109 255 OFFCURVE",
"88 230 OFFCURVE",
"88 192 CURVE SMOOTH",
"88 85 OFFCURVE",
"192 6 OFFCURVE",
"317 6 CURVE SMOOTH",
"393 6 OFFCURVE",
"472 42 OFFCURVE",
"532 99 CURVE",
"572 67 OFFCURVE",
"621 32 OFFCURVE"
);
},
{
closed = 1;
nodes = (
"753 577 LINE",
"721 625 LINE",
"-52 625 LINE",
"-20 577 LINE"
);
},
{
closed = 1;
nodes = (
"588 339 CURVE SMOOTH",
"588 272 OFFCURVE",
"560 208 OFFCURVE",
"515 157 CURVE",
"466 196 OFFCURVE",
"417 244 OFFCURVE",
"417 314 CURVE SMOOTH",
"417 378 OFFCURVE",
"453 446 OFFCURVE",
"518 446 CURVE SMOOTH",
"571 446 OFFCURVE",
"588 392 OFFCURVE"
);
}
);
width = 701;
},
{
layerId = "20CB0FE4-6866-45E2-B7C3-9D16484A9962";
paths = (
{
closed = 1;
nodes = (
"660 -20 LINE",
"719 49 LINE",
"604 129 LINE",
"627 172 OFFCURVE",
"641 220 OFFCURVE",
"641 271 CURVE SMOOTH",
"641 375 OFFCURVE",
"557 485 OFFCURVE",
"464 485 CURVE SMOOTH",
"404 485 OFFCURVE",
"343 432 OFFCURVE",
"343 351 CURVE SMOOTH",
"343 270 OFFCURVE",
"405 190 OFFCURVE",
"452 146 CURVE",
"408 104 OFFCURVE",
"348 78 OFFCURVE",
"280 78 CURVE SMOOTH",
"232 78 OFFCURVE",
"183 91 OFFCURVE",
"183 135 CURVE SMOOTH",
"183 178 OFFCURVE",
"236 190 OFFCURVE",
"266 190 CURVE SMOOTH",
"297 190 OFFCURVE",
"326 184 OFFCURVE",
"347 179 CURVE",
"300 295 LINE",
"274 302 OFFCURVE",
"242 305 OFFCURVE",
"219 305 CURVE SMOOTH",
"202 305 OFFCURVE",
"188 303 OFFCURVE",
"174 301 CURVE",
"161 311 OFFCURVE",
"155 322 OFFCURVE",
"155 335 CURVE SMOOTH",
"155 363 OFFCURVE",
"186 377 OFFCURVE",
"234 377 CURVE SMOOTH",
"257 377 OFFCURVE",
"285 373 OFFCURVE",
"315 367 CURVE",
"275 481 LINE",
"242 488 OFFCURVE",
"211 492 OFFCURVE",
"187 492 CURVE SMOOTH",
"89 492 OFFCURVE",
"39 447 OFFCURVE",
"39 376 CURVE SMOOTH",
"39 338 OFFCURVE",
"68 299 OFFCURVE",
"101 268 CURVE",
"81 248 OFFCURVE",
"70 221 OFFCURVE",
"70 189 CURVE SMOOTH",
"70 70 OFFCURVE",
"208 -29 OFFCURVE",
"337 -29 CURVE SMOOTH",
"422 -29 OFFCURVE",
"498 6 OFFCURVE",
"554 63 CURVE"
);
},
{
closed = 1;
nodes = (
"803 531 LINE",
"731 635 LINE",
"-92 635 LINE",
"-20 531 LINE"
);
},
{
closed = 1;
nodes = (
"544 337 CURVE SMOOTH",
"544 276 OFFCURVE",
"513 215 OFFCURVE",
"504 206 CURVE",
"476 230 OFFCURVE",
"457 262 OFFCURVE",
"457 293 CURVE SMOOTH",
"457 339 OFFCURVE",
"479 380 OFFCURVE",
"513 380 CURVE SMOOTH",
"537 380 OFFCURVE",
"544 354 OFFCURVE"
);
}
);
width = 711;
}
);
},
{
glyphname = dvJ;
lastChange = "2017-01-30 15:56:24 +0000";
layers = (
{
layerId = "7872E05C-01F2-413A-9F3F-5746E4900C50";
paths = (
{
closed = 1;
nodes = (
"548 577 LINE",
"516 625 LINE",
"-52 625 LINE",
"-20 577 LINE"
);
},
{
closed = 1;
nodes = (
"562 394 LINE",
"252 394 LINE",
"248 388 LINE",
"295 341 OFFCURVE",
"374 277 OFFCURVE",
"374 199 CURVE SMOOTH",
"374 137 OFFCURVE",
"335 101 OFFCURVE",
"275 101 CURVE SMOOTH",
"162 101 OFFCURVE",
"105 286 OFFCURVE",
"73 380 CURVE",
"41 361 LINE",
"80 246 OFFCURVE",
"148 56 OFFCURVE",
"297 56 CURVE SMOOTH",
"374 56 OFFCURVE",
"417 113 OFFCURVE",
"417 177 CURVE SMOOTH",
"417 239 OFFCURVE",
"387 298 OFFCURVE",
"334 344 CURVE",
"592 344 LINE"
);
}
);
width = 496;
},
{
layerId = "20CB0FE4-6866-45E2-B7C3-9D16484A9962";
paths = (
{
closed = 1;
nodes = (
"543 531 LINE",
"471 635 LINE",
"-92 635 LINE",
"-20 531 LINE"
);
},
{
closed = 1;
nodes = (
"547 436 LINE",
"218 436 LINE",
"203 412 LINE",
"274 344 OFFCURVE",
"302 285 OFFCURVE",
"302 249 CURVE SMOOTH",
"302 211 OFFCURVE",
"282 192 OFFCURVE",
"246 192 CURVE SMOOTH",
"169 192 OFFCURVE",
"117 307 OFFCURVE",
"79 436 CURVE",
"11 397 LINE",
"66 237 OFFCURVE",
"147 67 OFFCURVE",
"281 67 CURVE SMOOTH",
"366 67 OFFCURVE",
"412 117 OFFCURVE",
"412 194 CURVE SMOOTH",
"412 237 OFFCURVE",
"395 286 OFFCURVE",
"358 321 CURVE",
"627 321 LINE"
);
}
);
width = 451;
}
);
},
{
glyphname = dvJH;
lastChange = "2017-01-30 15:56:24 +0000";
layers = (
{
layerId = "7872E05C-01F2-413A-9F3F-5746E4900C50";
paths = (
{
closed = 1;
nodes = (
"571 577 LINE",
"540 625 LINE",
"-53 625 LINE",
"-20 577 LINE",
"359 577 LINE",
"359 471 LINE",
"199 471 LINE SMOOTH",
"127 471 OFFCURVE",
"70 424 OFFCURVE",
"70 360 CURVE SMOOTH",
"70 272 OFFCURVE",
"148 197 OFFCURVE",
"206 197 CURVE SMOOTH",
"257 197 OFFCURVE",
"314 234 OFFCURVE",
"355 234 CURVE SMOOTH",
"393 234 OFFCURVE",
"424 206 OFFCURVE",
"424 166 CURVE SMOOTH",
"424 76 OFFCURVE",
"295 33 OFFCURVE",
"213 39 CURVE",
"173 92 OFFCURVE",
"135 141 OFFCURVE",
"112 141 CURVE SMOOTH",
"89 141 OFFCURVE",
"68 129 OFFCURVE",
"68 112 CURVE SMOOTH",
"68 68 OFFCURVE",
"133 19 OFFCURVE",
"199 0 CURVE",
"360 -187 LINE",
"397 -161 LINE",
"247 -8 LINE",
"329 -8 OFFCURVE",
"466 47 OFFCURVE",
"466 148 CURVE SMOOTH",
"466 173 OFFCURVE",
"453 205 OFFCURVE",
"431 231 CURVE",
"455 224 OFFCURVE",
"479 220 OFFCURVE",
"502 220 CURVE SMOOTH",
"540 220 OFFCURVE",
"584 241 OFFCURVE",
"610 263 CURVE",
"582 301 LINE",
"550 272 OFFCURVE",
"506 259 OFFCURVE",
"470 259 CURVE SMOOTH",
"432 259 OFFCURVE",
"386 275 OFFCURVE",
"350 281 CURVE",
"345 281 OFFCURVE",
"340 282 OFFCURVE",
"336 282 CURVE SMOOTH",
"301 282 OFFCURVE",
"235 244 OFFCURVE",
"188 244 CURVE SMOOTH",
"143 244 OFFCURVE",
"111 281 OFFCURVE",
"111 333 CURVE SMOOTH",
"111 395 OFFCURVE",
"166 419 OFFCURVE",
"214 419 CURVE SMOOTH",
"415 419 LINE",
"415 577 LINE"
);
}
);
width = 520;
},
{
layerId = "20CB0FE4-6866-45E2-B7C3-9D16484A9962";
paths = (
{
closed = 1;
nodes = (
"590 531 LINE",
"518 635 LINE",
"-92 635 LINE",
"-20 531 LINE",
"303 531 LINE",
"303 472 LINE",
"179 472 LINE SMOOTH",
"98 472 OFFCURVE",
"51 441 OFFCURVE",
"51 369 CURVE SMOOTH",
"51 283 OFFCURVE",
"163 167 OFFCURVE",
"236 167 CURVE SMOOTH",
"285 167 OFFCURVE",
"322 206 OFFCURVE",
"364 206 CURVE SMOOTH",
"381 206 OFFCURVE",
"386 195 OFFCURVE",
"386 187 CURVE SMOOTH",
"386 134 OFFCURVE",
"308 94 OFFCURVE",
"231 90 CURVE",
"195 137 OFFCURVE",
"154 181 OFFCURVE",
"124 181 CURVE SMOOTH",
"88 181 OFFCURVE",
"52 151 OFFCURVE",
"52 115 CURVE SMOOTH",
"52 60 OFFCURVE",
"145 -8 OFFCURVE",
"219 -23 CURVE",
"347 -199 LINE",
"430 -145 LINE",
"314 -19 LINE",
"404 6 OFFCURVE",
"476 70 OFFCURVE",
"476 140 CURVE SMOOTH",
"476 160 OFFCURVE",
"468 192 OFFCURVE",
"452 217 CURVE",
"476 210 OFFCURVE",
"497 207 OFFCURVE",
"515 207 CURVE SMOOTH",
"570 207 OFFCURVE",
"615 241 OFFCURVE",
"657 280 CURVE",
"584 373 LINE",
"541 317 OFFCURVE",
"507 302 OFFCURVE",
"454 302 CURVE SMOOTH",
"417 302 OFFCURVE",
"394 307 OFFCURVE",
"373 311 CURVE SMOOTH",
"354 314 OFFCURVE",
"336 316 OFFCURVE",
"311 316 CURVE SMOOTH",
"263 316 OFFCURVE",
"227 279 OFFCURVE",
"181 279 CURVE SMOOTH",
"159 279 OFFCURVE",
"150 296 OFFCURVE",
"150 312 CURVE SMOOTH",
"150 342 OFFCURVE",
"176 360 OFFCURVE",
"212 360 CURVE SMOOTH",
"429 360 LINE",
"429 531 LINE"
);
}
);
width = 498;
}
);
},
{
glyphname = dvNY;
lastChange = "2017-01-30 15:56:24 +0000";
layers = (
{
layerId = "7872E05C-01F2-413A-9F3F-5746E4900C50";
paths = (
{
closed = 1;
nodes = (
"584 577 LINE",
"552 625 LINE",
"-53 625 LINE",
"-20 577 LINE"
);
},
{
closed = 1;
nodes = (
"570 321 LINE",
"562 311 OFFCURVE",
"534 286 OFFCURVE",
"498 286 CURVE SMOOTH",
"482 286 OFFCURVE",
"468 292 OFFCURVE",
"451 301 CURVE",
"425 371 OFFCURVE",
"374 453 OFFCURVE",
"269 453 CURVE SMOOTH",
"236 453 OFFCURVE",
"192 438 OFFCURVE",
"154 402 CURVE",
"190 363 LINE",
"206 381 OFFCURVE",
"248 406 OFFCURVE",
"288 406 CURVE SMOOTH",
"366 406 OFFCURVE",
"407 354 OFFCURVE",
"407 296 CURVE SMOOTH",
"407 202 OFFCURVE",
"342 153 OFFCURVE",
"256 153 CURVE SMOOTH",
"158 153 OFFCURVE",
"65 301 OFFCURVE",
"41 336 CURVE",
"18 315 LINE",
"78 230 OFFCURVE",
"165 109 OFFCURVE",
"282 109 CURVE SMOOTH",
"356 109 OFFCURVE",
"419 148 OFFCURVE",
"444 227 CURVE SMOOTH",
"448 238 OFFCURVE",
"451 249 OFFCURVE",
"453 262 CURVE",
"476 244 OFFCURVE",
"498 237 OFFCURVE",
"520 237 CURVE SMOOTH",
"545 237 OFFCURVE",
"578 251 OFFCURVE",
"604 277 CURVE"
);
}
);
width = 532;
},
{
layerId = "20CB0FE4-6866-45E2-B7C3-9D16484A9962";
paths = (
{
closed = 1;
nodes = (
"609 531 LINE",
"537 635 LINE",
"-92 635 LINE",
"-20 531 LINE"
);
},
{
closed = 1;
nodes = (
"612 391 LINE",
"601 372 OFFCURVE",
"553 327 OFFCURVE",
"502 327 CURVE SMOOTH",
"492 327 OFFCURVE",
"482 329 OFFCURVE",
"472 332 CURVE",
"412 441 OFFCURVE",
"340 490 OFFCURVE",
"274 490 CURVE SMOOTH",
"233 490 OFFCURVE",
"186 463 OFFCURVE",
"140 413 CURVE",
"238 307 LINE",
"262 340 OFFCURVE",
"296 368 OFFCURVE",
"330 368 CURVE SMOOTH",
"368 368 OFFCURVE",
"394 338 OFFCURVE",
"394 295 CURVE SMOOTH",
"394 228 OFFCURVE",
"356 187 OFFCURVE",
"287 187 CURVE SMOOTH",
"206 187 OFFCURVE",
"145 262 OFFCURVE",
"70 367 CURVE",
"10 313 LINE",
"95 197 OFFCURVE",
"208 68 OFFCURVE",
"335 68 CURVE SMOOTH",
"417 68 OFFCURVE",
"495 126 OFFCURVE",
"495 222 CURVE SMOOTH",
"495 228 OFFCURVE",
"495 232 OFFCURVE",
"494 238 CURVE",
"509 229 OFFCURVE",
"525 223 OFFCURVE",
"546 223 CURVE SMOOTH",
"592 223 OFFCURVE",
"639 257 OFFCURVE",
"678 304 CURVE"
);
}
);
width = 517;
}
);
},
{
glyphname = dvNN;
lastChange = "2017-01-30 15:56:24 +0000";
layers = (
{
layerId = "7872E05C-01F2-413A-9F3F-5746E4900C50";
paths = (
{
closed = 1;
nodes = (
"484 625 LINE",
"-52 625 LINE",
"-20 577 LINE",
"73 577 LINE",
"73 373 LINE SMOOTH",
"73 326 OFFCURVE",
"89 266 OFFCURVE",
"140 221 CURVE SMOOTH",
"193 175 OFFCURVE",
"232 168 OFFCURVE",
"262 168 CURVE SMOOTH",
"335 168 OFFCURVE",
"387 224 OFFCURVE",
"387 300 CURVE SMOOTH",
"387 577 LINE",
"517 577 LINE"
);
},
{
closed = 1;
nodes = (
"238 213 CURVE SMOOTH",
"165 213 OFFCURVE",
"127 270 OFFCURVE",
"127 356 CURVE SMOOTH",
"127 577 LINE",
"333 577 LINE",
"333 330 LINE SMOOTH",
"333 248 OFFCURVE",
"303 213 OFFCURVE"
);
}
);
width = 464;
},
{
layerId = "20CB0FE4-6866-45E2-B7C3-9D16484A9962";
paths = (
{
closed = 1;
nodes = (
"529 635 LINE",
"-92 635 LINE",
"-20 531 LINE",
"59 531 LINE",
"59 351 LINE SMOOTH",
"59 294 OFFCURVE",
"101 233 OFFCURVE",
"155 189 CURVE SMOOTH",
"202 150 OFFCURVE",
"258 124 OFFCURVE",
"302 124 CURVE SMOOTH",
"393 124 OFFCURVE",
"446 181 OFFCURVE",
"446 279 CURVE SMOOTH",
"446 531 LINE",
"601 531 LINE"
);
},
{
closed = 1;
nodes = (
"252 230 CURVE SMOOTH",
"215 230 OFFCURVE",
"188 261 OFFCURVE",
"188 309 CURVE SMOOTH",
"188 531 LINE",
"316 531 LINE",
"316 310 LINE SMOOTH",
"316 251 OFFCURVE",
"292 230 OFFCURVE"
);
}
);
width = 509;
}
);
},
{
glyphname = dvT;
lastChange = "2017-01-30 15:56:24 +0000";
layers = (
{
layerId = "7872E05C-01F2-413A-9F3F-5746E4900C50";
paths = (
{
closed = 1;
nodes = (
"216 -30 LINE",
"163 41 OFFCURVE",
"107 134 OFFCURVE",
"107 218 CURVE SMOOTH",
"107 295 OFFCURVE",
"152 333 OFFCURVE",
"236 333 CURVE",
"443 333 LINE",
"408 393 LINE",
"224 393 LINE",
"119 393 OFFCURVE",
"60 334 OFFCURVE",
"60 248 CURVE SMOOTH",
"60 154 OFFCURVE",
"113 50 OFFCURVE",
"189 -50 CURVE"
);
},
{
closed = 1;
nodes = (
"327 625 LINE",
"-52 625 LINE",
"-20 577 LINE",
"359 577 LINE"
);
}
);
width = 307;
},
{
layerId = "20CB0FE4-6866-45E2-B7C3-9D16484A9962";
paths = (
{
closed = 1;
nodes = (
"275 5 LINE",
"223 67 OFFCURVE",
"173 138 OFFCURVE",
"173 207 CURVE SMOOTH",
"173 263 OFFCURVE",
"202 309 OFFCURVE",
"264 309 CURVE",
"522 309 LINE",
"437 430 LINE",
"221 430 LINE",
"111 430 OFFCURVE",
"56 377 OFFCURVE",
"56 281 CURVE SMOOTH",
"56 185 OFFCURVE",
"130 52 OFFCURVE",
"207 -40 CURVE"
);
},
{
closed = 1;
nodes = (
"359 635 LINE",
"-92 635 LINE",
"-20 531 LINE",
"431 531 LINE"
);
}
);
width = 339;
}
);
},
{
glyphname = dvTH;
lastChange = "2017-01-30 15:56:24 +0000";
layers = (
{
layerId = "7872E05C-01F2-413A-9F3F-5746E4900C50";
paths = (
{
closed = 1;
nodes = (
"439 577 LINE",
"407 625 LINE",
"358 625 LINE",
"390 577 LINE"
);
},
{
closed = 1;
nodes = (
"438 263 LINE",
"411 235 OFFCURVE",
"338 173 OFFCURVE",
"267 173 CURVE SMOOTH",
"210 173 OFFCURVE",
"134 217 OFFCURVE",
"134 278 CURVE SMOOTH",
"134 302 OFFCURVE",
"155 315 OFFCURVE",
"171 325 CURVE SMOOTH",
"230 363 OFFCURVE",
"352 419 OFFCURVE",
"352 492 CURVE SMOOTH",
"352 558 OFFCURVE",
"287 633 OFFCURVE",
"206 633 CURVE SMOOTH",
"142 633 OFFCURVE",
"97 584 OFFCURVE",
"97 537 CURVE SMOOTH",
"97 502 OFFCURVE",
"111 469 OFFCURVE",
"155 432 CURVE",
"177 451 LINE",
"156 468 OFFCURVE",
"141 494 OFFCURVE",
"141 514 CURVE SMOOTH",
"141 558 OFFCURVE",
"179 591 OFFCURVE",
"231 591 CURVE SMOOTH",
"277 591 OFFCURVE",
"309 553 OFFCURVE",
"309 515 CURVE SMOOTH",
"309 475 OFFCURVE",
"273 446 OFFCURVE",
"230 418 CURVE SMOOTH",
"183 387 OFFCURVE",
"131 363 OFFCURVE",
"103 345 CURVE SMOOTH",
"86 334 OFFCURVE",
"80 323 OFFCURVE",
"80 311 CURVE SMOOTH",
"80 228 OFFCURVE",
"183 127 OFFCURVE",
"291 127 CURVE SMOOTH",
"341 127 OFFCURVE",
"412 160 OFFCURVE",
"469 222 CURVE"
);
}
);
width = 381;
},
{
layerId = "20CB0FE4-6866-45E2-B7C3-9D16484A9962";
paths = (
{
closed = 1;
nodes = (
"551 531 LINE",
"479 635 LINE",
"391 635 LINE",
"463 531 LINE"
);
},
{
closed = 1;
nodes = (
"523 309 LINE",
"456 227 OFFCURVE",
"390 185 OFFCURVE",
"326 185 CURVE SMOOTH",
"288 185 OFFCURVE",
"255 197 OFFCURVE",
"255 225 CURVE SMOOTH",
"255 243 OFFCURVE",
"273 253 OFFCURVE",
"287 263 CURVE SMOOTH",
"347 302 OFFCURVE",
"446 348 OFFCURVE",
"446 436 CURVE SMOOTH",
"446 509 OFFCURVE",
"348 643 OFFCURVE",
"240 643 CURVE SMOOTH",
"180 643 OFFCURVE",
"112 602 OFFCURVE",
"112 530 CURVE SMOOTH",
"112 485 OFFCURVE",
"142 439 OFFCURVE",
"181 400 CURVE",
"240 438 LINE",
"229 449 OFFCURVE",
"216 468 OFFCURVE",
"216 488 CURVE SMOOTH",
"216 522 OFFCURVE",
"245 547 OFFCURVE",
"280 547 CURVE SMOOTH",
"305 547 OFFCURVE",
"339 526 OFFCURVE",
"339 490 CURVE SMOOTH",
"339 459 OFFCURVE",
"311 429 OFFCURVE",
"274 403 CURVE SMOOTH",
"227 370 OFFCURVE",
"165 342 OFFCURVE",
"132 323 CURVE SMOOTH",
"118 315 OFFCURVE",
"114 309 OFFCURVE",
"114 293 CURVE SMOOTH",
"114 200 OFFCURVE",
"276 69 OFFCURVE",
"384 69 CURVE SMOOTH",
"433 69 OFFCURVE",
"505 86 OFFCURVE",
"600 210 CURVE"
);
}
);
width = 458;
}
);
},
{
glyphname = dvDH;
lastChange = "2017-01-30 15:56:24 +0000";
layers = (
{
layerId = "7872E05C-01F2-413A-9F3F-5746E4900C50";
paths = (
{
closed = 1;
nodes = (
"125 473 CURVE",
"125 522 OFFCURVE",
"164 564 OFFCURVE",
"217 577 CURVE",
"270 577 LINE",
"238 625 LINE",
"-52 625 LINE",
"-20 577 LINE",
"3 577 LINE",
"126 578 LINE",
"104 565 OFFCURVE",
"72 535 OFFCURVE",
"72 485 CURVE SMOOTH",
"72 434 OFFCURVE",
"116 390 OFFCURVE",
"152 366 CURVE",
"110 351 OFFCURVE",
"76 319 OFFCURVE",
"76 268 CURVE SMOOTH",
"76 167 OFFCURVE",
"183 78 OFFCURVE",
"291 78 CURVE SMOOTH",
"353 78 OFFCURVE",
"430 131 OFFCURVE",
"473 190 CURVE",
"440 229 LINE",
"410 187 OFFCURVE",
"348 128 OFFCURVE",
"263 128 CURVE SMOOTH",
"181 128 OFFCURVE",
"128 173 OFFCURVE",
"128 242 CURVE SMOOTH",
"128 307 OFFCURVE",
"190 327 OFFCURVE",
"249 327 CURVE SMOOTH",
"273 327 OFFCURVE",
"298 323 OFFCURVE",
"314 321 CURVE",
"296 373 LINE",
"273 377 OFFCURVE",
"249 379 OFFCURVE",
"225 379 CURVE SMOOTH",
"213 379 OFFCURVE",
"201 378 OFFCURVE",
"189 376 CURVE",
"159 398 OFFCURVE",
"126 429 OFFCURVE"
);
},
{
closed = 1;
nodes = (
"389 577 LINE",
"463 577 LINE",
"431 625 LINE",
"357 625 LINE"
);
}
);
width = 364;
},
{
layerId = "20CB0FE4-6866-45E2-B7C3-9D16484A9962";
paths = (
{
closed = 1;
nodes = (
"173 461 CURVE SMOOTH",
"173 485 OFFCURVE",
"191 522 OFFCURVE",
"218 531 CURVE",
"327 531 LINE",
"255 635 LINE",
"-92 635 LINE",
"-20 531 LINE",
"27 531 LINE SMOOTH",
"37 531 OFFCURVE",
"50 533 OFFCURVE",
"61 533 CURVE",
"54 523 OFFCURVE",
"49 499 OFFCURVE",
"49 487 CURVE SMOOTH",
"49 441 OFFCURVE",
"84 416 OFFCURVE",
"118 394 CURVE",
"80 375 OFFCURVE",
"55 338 OFFCURVE",
"55 299 CURVE SMOOTH",
"55 176 OFFCURVE",
"181 73 OFFCURVE",
"288 73 CURVE SMOOTH",
"333 73 OFFCURVE",
"421 92 OFFCURVE",
"515 212 CURVE",
"431 315 LINE",
"375 234 OFFCURVE",
"313 178 OFFCURVE",
"240 178 CURVE SMOOTH",
"197 178 OFFCURVE",
"167 204 OFFCURVE",
"167 238 CURVE SMOOTH",
"167 286 OFFCURVE",
"220 297 OFFCURVE",
"255 297 CURVE SMOOTH",
"284 297 OFFCURVE",
"312 292 OFFCURVE",
"353 280 CURVE",
"314 408 LINE",
"286 412 OFFCURVE",
"249 417 OFFCURVE",
"220 417 CURVE SMOOTH",
"212 417 OFFCURVE",
"200 417 OFFCURVE",
"195 416 CURVE",
"179 429 OFFCURVE",
"173 442 OFFCURVE"
);
},
{
closed = 1;
nodes = (
"378 531 LINE",
"451 531 LINE",
"380 635 LINE",
"306 635 LINE"
);
}
);
width = 360;
}
);
},
{
glyphname = dvN;
lastChange = "2017-01-30 15:56:24 +0000";
layers = (
{
layerId = "7872E05C-01F2-413A-9F3F-5746E4900C50";
paths = (
{
closed = 1;
nodes = (
"99 355 LINE",
"71 355 OFFCURVE",
"52 345 OFFCURVE",
"52 320 CURVE SMOOTH",
"52 268 OFFCURVE",
"118 183 OFFCURVE",
"157 183 CURVE SMOOTH",
"169 183 OFFCURVE",
"177 191 OFFCURVE",
"177 205 CURVE",
"177 301 LINE",
"414 301 LINE",
"382 355 LINE"
);
},
{
closed = 1;
nodes = (
"315 625 LINE",
"-52 625 LINE",
"-20 577 LINE",
"348 577 LINE"
);
}
);
width = 295;
},
{
layerId = "20CB0FE4-6866-45E2-B7C3-9D16484A9962";
paths = (
{
closed = 1;
nodes = (
"111 386 LINE",
"63 386 OFFCURVE",
"35 371 OFFCURVE",
"35 327 CURVE SMOOTH",
"35 270 OFFCURVE",
"122 156 OFFCURVE",
"174 156 CURVE SMOOTH",
"198 156 OFFCURVE",
"210 174 OFFCURVE",
"210 196 CURVE",
"210 272 LINE",
"467 272 LINE",
"389 386 LINE"
);
},
{
closed = 1;
nodes = (
"318 635 LINE",
"-92 635 LINE",
"-20 531 LINE",
"389 531 LINE"
);
}
);
width = 298;
}
);
},
{
glyphname = dvP;
lastChange = "2017-01-30 15:56:24 +0000";
layers = (
{
layerId = "7872E05C-01F2-413A-9F3F-5746E4900C50";
paths = (
{
closed = 1;
nodes = (
"350 577 LINE",
"319 625 LINE",
"-53 625 LINE",
"-20 577 LINE",
"86 577 LINE",
"86 375 LINE SMOOTH",
"86 272 OFFCURVE",
"194 175 OFFCURVE",
"272 175 CURVE SMOOTH",
"316 175 OFFCURVE",
"364 205 OFFCURVE",
"390 231 CURVE",
"356 272 LINE",
"344 261 OFFCURVE",
"304 225 OFFCURVE",
"244 225 CURVE SMOOTH",
"194 225 OFFCURVE",
"142 272 OFFCURVE",
"142 344 CURVE SMOOTH",
"142 577 LINE"
);
}
);
width = 299;
},
{
layerId = "20CB0FE4-6866-45E2-B7C3-9D16484A9962";
paths = (
{
closed = 1;
nodes = (
"385 531 LINE",
"313 635 LINE",
"-92 635 LINE",
"-20 531 LINE",
"57 531 LINE",
"57 384 LINE SMOOTH",
"57 284 OFFCURVE",
"206 164 OFFCURVE",
"283 164 CURVE SMOOTH",
"301 164 OFFCURVE",
"362 166 OFFCURVE",
"439 267 CURVE",
"363 363 LINE",
"321 306 OFFCURVE",
"282 275 OFFCURVE",
"242 275 CURVE SMOOTH",
"206 275 OFFCURVE",
"186 292 OFFCURVE",
"186 334 CURVE SMOOTH",
"186 531 LINE"
);
}
);
width = 293;
}
);
},
